<?xml version="1.0" encoding="UTF-8"?>
<svg xmlns="http://www.w3.org/2000/svg" xmlns:xlink="http://www.w3.org/1999/xlink" viewBox="0 0 404.34 230.52">
  <defs>
    <style>
      .cls-1, .cls-2 {
        fill: #fff;
      }

      .cls-3, .cls-4, .cls-5 {
        opacity: .6;
      }

      .cls-3, .cls-6 {
        fill: #020230;
      }

      .cls-4, .cls-7 {
        fill: #e8975b;
      }

      .cls-8 {
        fill: url(#_Áåçûìÿííûé_ãğàäèåíò_33);
      }

      .cls-9 {
        fill: #e82b88;
      }

      .cls-10 {
        fill: #afa7cc;
      }

      .cls-11 {
        fill: url(#_Áåçûìÿííûé_ãğàäèåíò_33-7);
      }

      .cls-12 {
        isolation: isolate;
      }

      .cls-13, .cls-2 {
        opacity: .4;
      }

      .cls-13, .cls-14 {
        fill: #06033e;
      }

      .cls-15 {
        opacity: .2;
      }

      .cls-16 {
        fill: url(#_Áåçûìÿííûé_ãğàäèåíò_33-8);
      }

      .cls-17 {
        fill: url(#_Áåçûìÿííûé_ãğàäèåíò_33-2);
      }

      .cls-18 {
        fill: url(#_Áåçûìÿííûé_ãğàäèåíò_33-3);
      }

      .cls-19 {
        fill: url(#_Áåçûìÿííûé_ãğàäèåíò_33-5);
      }

      .cls-20 {
        fill: url(#_Áåçûìÿííûé_ãğàäèåíò_33-4);
      }

      .cls-2 {
        mix-blend-mode: lighten;
      }

      .cls-21 {
        fill: #000973;
      }

      .cls-22 {
        fill: url(#_Áåçûìÿííûé_ãğàäèåíò_33-6);
      }

      .cls-23 {
        fill: #ba2f2f;
      }

      .cls-14 {
        opacity: .8;
      }
    </style>
    <linearGradient id="_Áåçûìÿííûé_ãğàäèåíò_33" data-name="Áåçûìÿííûé ãğàäèåíò 33" x1="371.73" y1="151.24" x2="404.34" y2="151.24" gradientUnits="userSpaceOnUse">
      <stop offset="0" stop-color="#e39a65"/>
      <stop offset="1" stop-color="#e95f8d"/>
    </linearGradient>
    <linearGradient id="_Áåçûìÿííûé_ãğàäèåíò_33-2" data-name="Áåçûìÿííûé ãğàäèåíò 33" x1="305.33" y1="176.17" x2="360.1" y2="176.17" xlink:href="#_Áåçûìÿííûé_ãğàäèåíò_33"/>
    <linearGradient id="_Áåçûìÿííûé_ãğàäèåíò_33-3" data-name="Áåçûìÿííûé ãğàäèåíò 33" x1="0" y1="142.73" x2="54.78" y2="142.73" xlink:href="#_Áåçûìÿííûé_ãğàäèåíò_33"/>
    <linearGradient id="_Áåçûìÿííûé_ãğàäèåíò_33-4" data-name="Áåçûìÿííûé ãğàäèåíò 33" x1="52.92" y1="63.4" x2="129.69" y2="63.4" xlink:href="#_Áåçûìÿííûé_ãğàäèåíò_33"/>
    <linearGradient id="_Áåçûìÿííûé_ãğàäèåíò_33-5" data-name="Áåçûìÿííûé ãğàäèåíò 33" x1="7351.04" y1="4276" x2="7403.66" y2="4276" gradientTransform="translate(7599.08 4367.44) rotate(-120.21) scale(1 -1)" xlink:href="#_Áåçûìÿííûé_ãğàäèåíò_33"/>
    <linearGradient id="_Áåçûìÿííûé_ãğàäèåíò_33-6" data-name="Áåçûìÿííûé ãğàäèåíò 33" x1="7350.92" y1="4247.1" x2="7421.61" y2="4247.1" gradientTransform="translate(7599.08 4367.44) rotate(-120.21) scale(1 -1)" xlink:href="#_Áåçûìÿííûé_ãğàäèåíò_33"/>
    <linearGradient id="_Áåçûìÿííûé_ãğàäèåíò_33-7" data-name="Áåçûìÿííûé ãğàäèåíò 33" x1="7384.43" y1="4224.57" x2="7425.17" y2="4224.57" gradientTransform="translate(7599.08 4367.44) rotate(-120.21) scale(1 -1)" xlink:href="#_Áåçûìÿííûé_ãğàäèåíò_33"/>
    <linearGradient id="_Áåçûìÿííûé_ãğàäèåíò_33-8" data-name="Áåçûìÿííûé ãğàäèåíò 33" x1="7385.17" y1="4309.72" x2="7447.15" y2="4309.72" gradientTransform="translate(7599.08 4367.44) rotate(-120.21) scale(1 -1)" xlink:href="#_Áåçûìÿííûé_ãğàäèåíò_33"/>
  </defs>
  <g class="cls-12">
    <g id="_Ñëîé_1" data-name="Ñëîé 1">
      <path class="cls-8" d="m388.03,160.83c-1.2,0-2.41-.31-3.48-.93l-11.74-6.78c-.68-.39-1.09-1.1-1.09-1.88s.41-1.49,1.09-1.88l11.74-6.78c2.15-1.24,4.82-1.24,6.96,0l11.74,6.78c.68.39,1.09,1.1,1.09,1.88s-.41,1.49-1.09,1.88l-11.74,6.78c-1.07.62-2.28.93-3.48.93Zm0-17.32c-.88,0-1.76.23-2.55.68l-11.74,6.78c-.13.08-.16.2-.16.27s.02.19.16.27l11.74,6.78h0c1.57.91,3.53.91,5.1,0l11.74-6.78c.13-.08.16-.2.16-.27s-.02-.19-.16-.27l-11.74-6.78c-.79-.45-1.67-.68-2.55-.68Z"/>
      <path class="cls-17" d="m332.71,192c-1.96,0-3.91-.5-5.65-1.51h0l-20.2-11.66c-.96-.55-1.54-1.55-1.54-2.66s.57-2.1,1.54-2.66l20.2-11.66c3.49-2.01,7.82-2.01,11.31,0l20.2,11.66c.96.55,1.54,1.55,1.54,2.66s-.57,2.1-1.54,2.66l-20.2,11.66c-1.74,1.01-3.7,1.51-5.66,1.51Zm-4.72-3.12c2.92,1.68,6.53,1.68,9.45,0l20.2-11.66c.54-.32.6-.84.6-1.05s-.06-.73-.6-1.05l-20.2-11.66c-2.92-1.68-6.54-1.68-9.45,0l-20.2,11.66c-.54.32-.6.84-.6,1.05s.06.73.6,1.05l20.2,11.66Z"/>
      <path class="cls-18" d="m27.39,158.56c-1.96,0-3.91-.5-5.66-1.51l-20.2-11.66c-.96-.55-1.54-1.55-1.54-2.66s.57-2.1,1.54-2.66l20.2-11.66c3.49-2.01,7.82-2.01,11.31,0l20.2,11.66c.96.55,1.54,1.55,1.54,2.66s-.57,2.1-1.54,2.66l-20.2,11.66c-1.74,1.01-3.7,1.51-5.66,1.51Zm0-29.8c-1.63,0-3.27.42-4.73,1.26l-20.2,11.66c-.55.32-.6.84-.6,1.05s.06.73.6,1.05l20.2,11.66h0c2.92,1.68,6.54,1.68,9.45,0l20.2-11.66c.55-.32.6-.84.6-1.05s-.06-.73-.6-1.05l-20.2-11.66c-1.46-.84-3.09-1.26-4.73-1.26Z"/>
      <path class="cls-20" d="m91.31,85.43c-2.7,0-5.4-.7-7.81-2.09h0l-28.6-16.51c-1.24-.71-1.98-2-1.98-3.43s.74-2.71,1.98-3.43l28.59-16.51c4.82-2.78,10.81-2.78,15.63,0l28.6,16.51c1.24.72,1.98,2,1.98,3.43s-.74,2.71-1.98,3.43l-28.59,16.51c-2.41,1.39-5.11,2.09-7.81,2.09Zm-6.88-3.7c4.25,2.45,9.52,2.45,13.77,0l28.59-16.51c.66-.38,1.05-1.06,1.05-1.82s-.39-1.44-1.05-1.82l-28.6-16.51c-4.24-2.45-9.52-2.45-13.77,0l-28.59,16.51c-.66.38-1.05,1.06-1.05,1.82s.39,1.44,1.05,1.82l28.6,16.51Z"/>
      <path class="cls-3" d="m155.65,228.94l-83.23-48.1c-4.05-2.34-3.54-6.41,1.13-9.11l178.12-102.84c4.67-2.7,11.74-2.99,15.78-.65l83.23,48.1c4.05,2.34,3.54,6.41-1.13,9.11l-178.12,102.84c-4.67,2.7-11.74,2.99-15.78.65Z"/>
      <path class="cls-10" d="m346.39,93.94l.1.12-78.75-45.51c-4.02-2.32-11.03-2.03-15.67.65l-176.41,101.85-5.88-2.25,1.65,8.25h0c.22,1.24,1.09,2.4,2.65,3.3l81.27,46.97c4.02,2.32,11.03,2.03,15.67-.65l176.86-102.11c2.18-1.26,3.44-2.82,3.75-4.37h.01s1.69-8.02,1.69-8.02l-6.94,1.77Z"/>
      <path class="cls-21" d="m155.65,200.06l-83.23-48.1c-4.05-2.34-3.54-6.41,1.13-9.11L251.67,40.01c4.67-2.7,11.74-2.99,15.78-.65l83.23,48.1c4.05,2.34,3.54,6.41-1.13,9.11l-178.12,102.84c-4.67,2.7-11.74,2.99-15.78.65Z"/>
      <path class="cls-21" d="m155.76,194.69l-76.68-44.3c-3.95-2.28-3.46-6.27,1.11-8.9L251.73,42.42c4.56-2.63,11.47-2.92,15.42-.64l77.29,44.66c3.95,2.28,3.46,6.27-1.11,8.9l-172.16,98.7c-4.56,2.64-11.47,2.92-15.42.64Z"/>
      <path class="cls-13" d="m158.61,197.55l-76.68-44.3c-3.95-2.28-3.46-6.27,1.11-8.9L254.59,45.28c4.56-2.64,11.47-2.92,15.42-.64l77.29,44.66c3.95,2.28,3.46,6.27-1.11,8.9l-172.16,98.7c-4.56,2.64-11.47,2.92-15.42.64Z"/>
      <path class="cls-13" d="m298.22,59.74l-2.99,1.72c-2.31,1.33-2.56,3.35-.56,4.51l1.41.81c2,1.16,5.5,1.01,7.81-.32l2.98-1.72-8.66-5Z"/>
      <g class="cls-15">
        <path class="cls-19" d="m164.75,137.97l36.54,21.15c4.41,2.53,12.11,2.18,17.18-.77h0c5.08-2.95,5.61-7.4,1.2-9.93l-36.54-21.15c-4.41-2.53-12.11-2.18-17.18.77h0c-5.08,2.95-5.61,7.4-1.2,9.93Z"/>
      </g>
      <path class="cls-7" d="m178.42,136.6l-5.12-2.96c-.76-.44-.67-1.21.21-1.71h0c.88-.51,2.21-.56,2.97-.12l5.12,2.96c.76.44.67,1.21-.21,1.71h0c-.88.51-2.21.56-2.97.12Z"/>
      <path class="cls-7" d="m197.48,147.6l-13.69-7.9c-.76-.44-.67-1.21.21-1.71h0c.88-.51,2.21-.56,2.97-.12l13.69,7.9c.76.44.67,1.21-.21,1.71h0c-.88.51-2.21.56-2.97.12Z"/>
      <path class="cls-7" d="m207.86,153.59l-4.97-2.87c-.76-.44-.67-1.21.21-1.71h0c.88-.51,2.21-.56,2.97-.12l4.97,2.87c.76.44.67,1.21-.21,1.71h0c-.88.51-2.21.56-2.97.12Z"/>
      <g class="cls-15">
        <path class="cls-22" d="m176.34,110.44l54.35,31.7c4.41,2.53,12.11,2.18,17.18-.77h0c5.08-2.95,5.61-7.4,1.2-9.93l-54.35-31.7c-4.41-2.53-12.11-2.18-17.18.77h0c-5.08,2.95-5.61,7.4-1.2,9.93Z"/>
      </g>
      <g>
        <path class="cls-7" d="m199.76,114.76c-.81-.47-2.13-.47-2.94,0l-1.45.84c-.81.47-.81,1.23,0,1.7.81.47,2.13.47,2.94,0l1.45-.84c.81-.47.81-1.23,0-1.7Z"/>
        <path class="cls-7" d="m213.49,114.1c-.81-.47-2.13-.47-2.94,0l-8.88,5.13c-.81.47-.81,1.23,0,1.7.81.47,2.13.47,2.94,0l8.88-5.13c.81-.47.81-1.23,0-1.7Z"/>
        <path class="cls-7" d="m240.87,134.63c-.81-.47-2.13-.47-2.94,0l-4.8,2.77c-.81.47-.81,1.23,0,1.7.81.47,2.13.47,2.94,0l4.8-2.77c.81-.47.81-1.23,0-1.7Z"/>
        <path class="cls-7" d="m233.98,131.34c-.81-.47-2.13-.47-2.94,0l-4.2,2.42c-.81.47-.81,1.23,0,1.7.81.47,2.13.47,2.94,0l4.2-2.42c.81-.47.81-1.23,0-1.7Z"/>
        <path class="cls-7" d="m232.37,125c-.81-.47-2.13-.47-2.94,0l-8.88,5.13c-.81.47-.81,1.23,0,1.7.81.47,2.13.47,2.94,0l8.88-5.13c.81-.47.81-1.23,0-1.7Z"/>
        <path class="cls-7" d="m224.2,122.46c-.81-.47-2.13-.47-2.94,0l-7,4.04c-.81.47-.81,1.23,0,1.7.81.47,2.13.47,2.94,0l7-4.04c.81-.47.81-1.23,0-1.7Z"/>
        <path class="cls-7" d="m215.1,120.44c-.81-.47-2.13-.47-2.94,0l-4.2,2.42c-.81.47-.81,1.23,0,1.7.81.47,2.13.47,2.94,0l4.2-2.42c.81-.47.81-1.23,0-1.7Z"/>
      </g>
      <path class="cls-11" d="m201.28,91.81l24.75,14.27c4.41,2.53,12.11,2.18,17.18-.77h0c5.08-2.95,5.61-7.4,1.2-9.93l-24.75-14.27c-4.41-2.53-12.11-2.18-17.18.77h0c-5.08,2.95-5.61,7.4-1.2,9.93Z"/>
      <path class="cls-1" d="m349.55,94.41l-178.12,102.84c-4.67,2.7-11.74,2.99-15.78.65l-83.23-48.1c-1.38-.8-2.19-1.8-2.52-2.88-.54,1.86.25,3.73,2.52,5.04l83.23,48.1c4.05,2.34,11.11,2.04,15.78-.65l178.12-102.84c3.08-1.78,4.31-4.15,3.66-6.23-.42,1.45-1.61,2.89-3.66,4.07Z"/>
      <g>
        <path class="cls-16" d="m111.33,118.74l46.05,26.45c4.41,2.53,12.11,2.18,17.18-.77h0c5.08-2.95,5.61-7.4,1.2-9.93l-46.05-26.45c-4.41-2.53-12.11-2.18-17.18.77h0c-5.08,2.95-5.61,7.4-1.2,9.93Z"/>
        <g class="cls-5">
          <path class="cls-6" d="m111.33,143.94l46.05,26.45c4.41,2.53,12.11,2.18,17.18-.77h0c5.08-2.95,5.61-7.4,1.2-9.93l-46.05-26.45c-4.41-2.53-12.11-2.18-17.18.77h0c-5.08,2.95-5.61,7.4-1.2,9.93Z"/>
        </g>
        <path class="cls-23" d="m142.96,127.91l-13.69-7.9c-.76-.44-.67-1.21.21-1.71h0c.88-.51,2.21-.56,2.97-.12l13.69,7.9c.76.44.67,1.21-.21,1.71h0c-.88.51-2.21.56-2.97.12Z"/>
        <path class="cls-23" d="m153.34,133.9l-4.97-2.87c-.76-.44-.67-1.21.21-1.71h0c.88-.51,2.21-.56,2.97-.12l4.97,2.87c.76.44.67,1.21-.21,1.71h0c-.88.51-2.21.56-2.97.12Z"/>
      </g>
      <path class="cls-2" d="m178.77,0h-70.42v114.31h.02c-.05,1.67.92,3.26,2.97,4.43l46.04,26.45c4.41,2.53,12.11,2.18,17.18-.77h0c2.48-1.45,3.87-3.25,4.14-5.01l.07.03V0Z"/>
      <path class="cls-23" d="m212.04,89l-4.08-2.36c-.76-.44-.67-1.21.21-1.71h0c.88-.51,2.21-.56,2.97-.12l4.08,2.36c.76.44.67,1.21-.21,1.71h0c-.88.51-2.21.56-2.97.12Z"/>
      <path class="cls-23" d="m227.93,98.17l-10.77-6.22c-.76-.44-.67-1.21.21-1.71h0c.88-.51,2.21-.56,2.97-.12l10.77,6.22c.76.44.67,1.21-.21,1.71h0c-.88.51-2.21.56-2.97.12Z"/>
      <g>
        <path class="cls-7" d="m193.6,109.9c-3.39,1.96-8.89,1.96-12.29,0s-3.39-5.14,0-7.09,8.89-1.96,12.29,0c3.39,1.96,3.39,5.14,0,7.09Z"/>
        <path class="cls-23" d="m183.72,106.11l3.32-1.92c.58-.33,1.56-.19,1.79.26l1.44,2.75c.25.48-.52.92-1.34.78l-4.76-.83c-.78-.14-1.03-.7-.45-1.04Z"/>
      </g>
      <g>
        <path class="cls-9" d="m187.2,25.12l4.14,2.39c.78.45,2.03.45,2.81,0,.77-.45.77-1.17,0-1.62l-4.14-2.39c-.77-.45-2.03-.45-2.81,0-.77.45-.77,1.17,0,1.62Z"/>
        <path class="cls-4" d="m181.32,28.51l11.69,6.75c.77.45,2.03.45,2.81,0s.77-1.17,0-1.62l-11.69-6.75c-.77-.45-2.03-.45-2.81,0-.77.45-.77,1.17,0,1.62Z"/>
        <path class="cls-4" d="m210.96,37.22c.78-.45.77-1.17,0-1.62l-11.69-6.75c-.77-.45-2.03-.45-2.81,0-.77.45-.77,1.17,0,1.62l11.69,6.75c.77.45,2.03.45,2.81,0Z"/>
        <path class="cls-7" d="m220.11,40.88l-.69-.4-3.32-1.92c-.77-.45-2.03-.45-2.81,0-.77.45-.77,1.17,0,1.62l3.32,1.92.69.4,3.32,1.92c.78.45,2.03.45,2.81,0,.78-.45.77-1.17,0-1.62l-3.32-1.92Z"/>
      </g>
      <g>
        <path class="cls-7" d="m243.11,193.5l16.89,9.75c.97.56,2.55.56,3.53,0,.97-.56.97-1.47,0-2.04l-16.89-9.75c-.97-.56-2.55-.56-3.53,0-.97.56-.97,1.47,0,2.04Z"/>
        <path class="cls-4" d="m235.71,195.74c-.97.56-.97,1.47,0,2.04l25.98,15c.97.56,2.55.56,3.53,0,.97-.56.97-1.47,0-2.04l-25.97-15c-.97-.56-2.55-.56-3.53,0Z"/>
        <path class="cls-7" d="m228.32,202.04l5.21,3.01c.97.56,2.55.56,3.53,0,.97-.56.97-1.47,0-2.04l-5.21-3.01c-.97-.56-2.55-.56-3.53,0-.97.56-.97,1.47,0,2.04Z"/>
        <path class="cls-9" d="m220.93,206.31l14.7,8.49c.97.56,2.55.56,3.53,0,.97-.56.97-1.47,0-2.04l-14.7-8.49c-.97-.56-2.55-.56-3.53,0-.97.56-.97,1.47,0,2.04Z"/>
        <path class="cls-7" d="m258.19,217.25c.97-.56.97-1.47,0-2.04l-14.7-8.49c-.97-.56-2.55-.56-3.53,0-.97.56-.97,1.47,0,2.04l14.7,8.49c.97.56,2.55.56,3.53,0Z"/>
        <path class="cls-4" d="m269.7,221.86l-.86-.5-4.18-2.41c-.97-.56-2.55-.56-3.53,0-.97.56-.97,1.47,0,2.04l4.18,2.41.86.5,4.18,2.41c.97.56,2.55.56,3.53,0,.97-.56.97-1.47,0-2.04l-4.18-2.41Z"/>
      </g>
      <path class="cls-7" d="m328.81,87.4l-.69-.4-3.32-1.92c-.77-.45-2.03-.45-2.81,0-.77.45-.77,1.17,0,1.62l3.32,1.92.69.4,3.32,1.92c.78.45,2.03.45,2.81,0,.78-.45.78-1.17,0-1.62l-3.32-1.92Z"/>
      <g>
        <path class="cls-7" d="m266.39,51.24l-.69-.4-3.32-1.92c-.77-.45-2.03-.45-2.81,0-.77.45-.77,1.17,0,1.62l3.32,1.92.69.4,3.32,1.92c.78.45,2.03.45,2.81,0,.78-.45.78-1.17,0-1.62l-3.32-1.92Z"/>
        <path class="cls-7" d="m279.39,58.65l-.69-.4-3.32-1.92c-.77-.45-2.03-.45-2.81,0-.77.45-.77,1.17,0,1.62l3.32,1.92.69.4,1.06.61c.78.45,2.03.45,2.81,0,.78-.45.77-1.17,0-1.62l-1.06-.61Z"/>
      </g>
      <g>
        <path class="cls-1" d="m257.2,79.03l6.58-3.8-1.66-.56,1.04-.6c1.12.32,1.96.47,2.53.44l1.07.62-8.16,4.71-1.4-.81Z"/>
        <path class="cls-1" d="m260.52,80.95l.98-.57,5.11-.65c.08-.01.28-.04.61-.07.33-.04.55-.07.67-.09.12-.02.3-.05.54-.1.24-.05.44-.1.61-.17.17-.06.33-.14.49-.23.32-.19.51-.36.56-.52s-.04-.31-.29-.44c-.52-.27-1.21-.17-2.06.32l-.34.2-1.38-.8.35-.2c.37-.22.75-.39,1.12-.51.37-.12.75-.2,1.14-.24.39-.03.78,0,1.17.09.4.09.78.25,1.16.46.69.4,1.02.81,1,1.23-.02.42-.37.83-1.05,1.22-.23.13-.47.25-.72.34-.25.1-.52.17-.81.23-.29.06-.55.1-.76.13-.22.03-.5.06-.86.1-.04,0-.07,0-.09,0-.02,0-.05,0-.08,0-.03,0-.06,0-.09,0l-4.23.51,2.45,1.41-1.13.65-4.06-2.34Z"/>
        <path class="cls-1" d="m266.55,83.48l1.32-.76,1.33.77-1.32.76-1.33-.77Zm3.33-1.92l1.33-.77,1.33.77-1.33.77-1.33-.77Z"/>
        <path class="cls-1" d="m269.88,86.49c-.73-.42-1.06-.85-1.01-1.28.05-.43.45-.86,1.19-1.29l.29-.17,1.4.81-.23.13c-.41.24-.66.45-.75.62-.09.17,0,.34.29.51.12.07.25.12.39.15.13.03.26.04.38.03.12,0,.25-.04.4-.09.15-.05.28-.11.41-.17.13-.06.28-.14.45-.24.43-.25.69-.48.78-.69.08-.21-.04-.43-.37-.64-.01,0-.05-.03-.11-.06-.06-.04-.09-.06-.1-.06l1.17-.68c.11.06.17.1.19.11.37.2.72.29,1.04.27.32-.02.69-.15,1.1-.39.36-.21.58-.4.65-.56.07-.17-.03-.33-.31-.49-.12-.07-.24-.12-.37-.14-.12-.03-.25-.04-.37-.03-.12,0-.24.03-.38.07-.13.04-.26.09-.38.15-.12.06-.25.12-.4.21l-.28.16-1.4-.81.38-.22c.7-.4,1.42-.61,2.17-.61.75,0,1.47.18,2.15.58.69.4,1.03.81,1.02,1.24,0,.43-.35.84-1.05,1.24-.46.27-.95.43-1.46.5-.51.06-.98.03-1.4-.11.23.27.28.56.14.86-.14.3-.48.61-1.01.91-.78.45-1.56.7-2.33.76-.78.06-1.53-.13-2.27-.55Z"/>
        <path class="cls-1" d="m277.1,89.9c-.8.04-1.54-.14-2.23-.54-.68-.4-.99-.82-.92-1.28.07-.46.46-.9,1.19-1.32l3.59-2.07c.74-.43,1.51-.67,2.29-.71.78-.04,1.53.14,2.23.55.7.41,1.02.84.94,1.29-.08.45-.48.89-1.22,1.32l-3.59,2.07c-.72.42-1.48.64-2.28.68Zm-1.02-1.23c.47.27,1.11.18,1.91-.28l3.54-2.05c.11-.06.2-.12.28-.17.08-.05.16-.11.25-.18.08-.07.14-.13.18-.19.04-.06.07-.13.08-.19.02-.06,0-.13-.05-.2-.05-.07-.12-.13-.22-.19-.12-.07-.25-.12-.39-.14-.14-.02-.27-.03-.4-.01-.12.01-.26.05-.4.1-.14.05-.27.1-.38.16-.11.05-.23.12-.36.19l-3.54,2.05c-.8.46-.96.83-.49,1.1Z"/>
      </g>
      <path class="cls-14" d="m301.19,64.96c-.94.54-2.46.54-3.39,0-.94-.54-.94-1.42,0-1.96.94-.54,2.46-.54,3.39,0,.94.54.94,1.42,0,1.96Z"/>
    </g>
  </g>
</svg>