<?xml version="1.0" encoding="UTF-8"?>
<svg id="katman_1" data-name="katman 1" xmlns="http://www.w3.org/2000/svg" xmlns:xlink="http://www.w3.org/1999/xlink" viewBox="0 0 350.27 292.36">
  <defs>
    <style>
      .cls-1 {
        fill: url(#Adsız_degrade_31);
      }

      .cls-2, .cls-3 {
        fill: #fff;
      }

      .cls-4 {
        fill: url(#Adsız_degrade_24);
      }

      .cls-4, .cls-5, .cls-6, .cls-7, .cls-8, .cls-9, .cls-3, .cls-10, .cls-11, .cls-12, .cls-13, .cls-14, .cls-15, .cls-16, .cls-17 {
        isolation: isolate;
      }

      .cls-4, .cls-5, .cls-6, .cls-7, .cls-3, .cls-12, .cls-13, .cls-14, .cls-17 {
        opacity: .5;
      }

      .cls-18 {
        fill: #bcbeff;
      }

      .cls-5 {
        fill: url(#Adsız_degrade_21);
      }

      .cls-19 {
        fill: url(#Adsız_degrade_55);
      }

      .cls-6 {
        fill: url(#Adsız_degrade_23);
      }

      .cls-20, .cls-16 {
        fill: #0f054c;
      }

      .cls-21 {
        fill: url(#Adsız_degrade_36);
      }

      .cls-22 {
        fill: url(#Adsız_degrade_32);
      }

      .cls-23 {
        fill: #160a5b;
      }

      .cls-24 {
        fill: url(#Adsız_degrade_53);
      }

      .cls-25 {
        fill: url(#Adsız_degrade_8);
      }

      .cls-26 {
        fill: #393091;
      }

      .cls-27 {
        fill: #24126a;
      }

      .cls-7 {
        fill: url(#Adsız_degrade_34);
      }

      .cls-28 {
        fill: url(#Adsız_degrade_11);
      }

      .cls-29 {
        fill: #e2b1a6;
      }

      .cls-8 {
        fill: url(#Adsız_degrade_3);
        opacity: .78;
      }

      .cls-30 {
        fill: url(#Adsız_degrade_47);
      }

      .cls-31 {
        fill: url(#Adsız_degrade_18);
      }

      .cls-32 {
        fill: #4846a5;
      }

      .cls-33 {
        fill: url(#Adsız_degrade_5);
      }

      .cls-34 {
        fill: url(#Adsız_degrade_51);
      }

      .cls-35 {
        fill: url(#Adsız_degrade_9);
      }

      .cls-36 {
        fill: url(#Adsız_degrade_16);
      }

      .cls-37 {
        fill: url(#Adsız_degrade_56);
      }

      .cls-38 {
        fill: url(#Adsız_degrade_4);
      }

      .cls-39 {
        fill: url(#Adsız_degrade_52);
      }

      .cls-9 {
        fill: #180d5b;
        opacity: .2;
      }

      .cls-40 {
        fill: url(#Adsız_degrade_7);
      }

      .cls-41 {
        fill: url(#Adsız_degrade_50);
      }

      .cls-42 {
        fill: url(#Adsız_degrade_38);
      }

      .cls-43 {
        fill: url(#Adsız_degrade_10);
      }

      .cls-44 {
        fill: #936d6d;
      }

      .cls-10, .cls-45, .cls-16 {
        opacity: .3;
      }

      .cls-10, .cls-11, .cls-46, .cls-15 {
        fill: #42e8e0;
      }

      .cls-47 {
        fill: url(#Adsız_degrade_49);
      }

      .cls-48 {
        fill: url(#Adsız_degrade_48);
      }

      .cls-11 {
        opacity: .8;
      }

      .cls-49 {
        fill: url(#Adsız_degrade_57);
      }

      .cls-50 {
        fill: url(#Adsız_degrade_12);
      }

      .cls-51 {
        fill: url(#Adsız_degrade_41);
      }

      .cls-52 {
        fill: url(#Adsız_degrade_6);
      }

      .cls-53 {
        fill: url(#Adsız_degrade_13);
      }

      .cls-12 {
        fill: url(#Adsız_degrade_26);
      }

      .cls-54 {
        fill: url(#Adsız_degrade_46);
      }

      .cls-55 {
        fill: url(#Adsız_degrade_27);
      }

      .cls-56 {
        fill: #aa8383;
      }

      .cls-57 {
        fill: #3f21d3;
      }

      .cls-13 {
        fill: url(#Adsız_degrade_25);
      }

      .cls-58 {
        fill: url(#Adsız_degrade_45);
      }

      .cls-59 {
        fill: url(#Adsız_degrade_2);
      }

      .cls-60 {
        fill: #453c9e;
      }

      .cls-61 {
        fill: url(#Adsız_degrade_44);
      }

      .cls-62 {
        fill: url(#Adsız_degrade_30);
      }

      .cls-63 {
        fill: #fcd1c5;
      }

      .cls-64 {
        fill: url(#Adsız_degrade_14);
      }

      .cls-65 {
        opacity: .51;
      }

      .cls-66 {
        fill: url(#Adsız_degrade_19);
      }

      .cls-67 {
        fill: url(#Adsız_degrade_15);
      }

      .cls-68 {
        fill: url(#Adsız_degrade_20);
      }

      .cls-69 {
        fill: url(#Adsız_degrade_58);
      }

      .cls-14 {
        fill: url(#Adsız_degrade_22);
      }

      .cls-70 {
        fill: #f0f6ff;
      }

      .cls-71 {
        fill: url(#Adsız_degrade_33);
      }

      .cls-72 {
        fill: url(#Adsız_degrade_40);
      }

      .cls-73 {
        fill: #5351af;
      }

      .cls-74 {
        fill: url(#Adsız_degrade_37);
      }

      .cls-15 {
        opacity: .4;
      }

      .cls-75 {
        fill: url(#Adsız_degrade_29);
      }

      .cls-76 {
        fill: url(#Adsız_degrade_54);
      }

      .cls-77 {
        fill: url(#Adsız_degrade_28);
      }

      .cls-17 {
        fill: url(#Adsız_degrade_35);
      }

      .cls-78 {
        fill: url(#Adsız_degrade_43);
      }

      .cls-79 {
        fill: url(#Adsız_degrade_17);
      }

      .cls-80 {
        fill: #c4ccd6;
      }

      .cls-81 {
        fill: url(#Adsız_degrade_39);
      }
    </style>
    <linearGradient id="Adsız_degrade_2" data-name="Adsız degrade 2" x1="114.02" y1="161.18" x2="114.02" y2="261.6" gradientTransform="translate(0 291.89) scale(1 -1)" gradientUnits="userSpaceOnUse">
      <stop offset="0" stop-color="#c0bff6"/>
      <stop offset=".29" stop-color="#c4c3f6"/>
      <stop offset=".64" stop-color="#d2d2f9"/>
      <stop offset="1" stop-color="#e9e9fd"/>
    </linearGradient>
    <linearGradient id="Adsız_degrade_3" data-name="Adsız degrade 3" x1="42.64" y1="265.31" x2="90.23" y2="265.31" gradientTransform="translate(0 291.89) scale(1 -1)" gradientUnits="userSpaceOnUse">
      <stop offset="0" stop-color="#e9e9fd"/>
      <stop offset=".04" stop-color="#d3d4f7"/>
      <stop offset=".11" stop-color="#b2b5ee"/>
      <stop offset=".18" stop-color="#959be7"/>
      <stop offset=".27" stop-color="#7e85e1"/>
      <stop offset=".36" stop-color="#6c75dc"/>
      <stop offset=".48" stop-color="#6069d9"/>
      <stop offset=".64" stop-color="#5962d7"/>
      <stop offset="1" stop-color="#5761d7"/>
    </linearGradient>
    <linearGradient id="Adsız_degrade_4" data-name="Adsız degrade 4" x1="55.7" y1="266.53" x2="124.75" y2="266.53" gradientTransform="translate(0 291.89) scale(1 -1)" gradientUnits="userSpaceOnUse">
      <stop offset="0" stop-color="#c0bff6"/>
      <stop offset=".29" stop-color="#c4c3f6"/>
      <stop offset=".64" stop-color="#d2d2f9"/>
      <stop offset="1" stop-color="#e9e9fd"/>
    </linearGradient>
    <linearGradient id="Adsız_degrade_5" data-name="Adsız degrade 5" x1="111.95" y1="247.56" x2="103.55" y2="262.22" gradientTransform="translate(0 291.89) scale(1 -1)" gradientUnits="userSpaceOnUse">
      <stop offset="0" stop-color="#c0bff6"/>
      <stop offset=".29" stop-color="#c4c3f6"/>
      <stop offset=".64" stop-color="#d2d2f9"/>
      <stop offset="1" stop-color="#e9e9fd"/>
    </linearGradient>
    <linearGradient id="Adsız_degrade_6" data-name="Adsız degrade 6" x1="72.97" y1="254.52" x2="72.97" y2="276.88" gradientTransform="translate(0 291.89) scale(1 -1)" gradientUnits="userSpaceOnUse">
      <stop offset="0" stop-color="#5761d7"/>
      <stop offset=".18" stop-color="#5b65d8"/>
      <stop offset=".39" stop-color="#6a72de"/>
      <stop offset=".61" stop-color="#8188e8"/>
      <stop offset=".85" stop-color="#a2a6f5"/>
      <stop offset="1" stop-color="#bcbeff"/>
    </linearGradient>
    <linearGradient id="Adsız_degrade_7" data-name="Adsız degrade 7" x1="74.32" y1="271.81" x2="92.2" y2="271.81" gradientTransform="translate(0 291.89) scale(1 -1)" gradientUnits="userSpaceOnUse">
      <stop offset="0" stop-color="#5761d7"/>
      <stop offset=".18" stop-color="#5b65d8"/>
      <stop offset=".39" stop-color="#6a72de"/>
      <stop offset=".61" stop-color="#8188e8"/>
      <stop offset=".85" stop-color="#a2a6f5"/>
      <stop offset="1" stop-color="#bcbeff"/>
    </linearGradient>
    <linearGradient id="Adsız_degrade_8" data-name="Adsız degrade 8" x1="78.96" y1="269.13" x2="96.85" y2="269.13" gradientTransform="translate(0 291.89) scale(1 -1)" gradientUnits="userSpaceOnUse">
      <stop offset="0" stop-color="#5761d7"/>
      <stop offset=".18" stop-color="#5b65d8"/>
      <stop offset=".39" stop-color="#6a72de"/>
      <stop offset=".61" stop-color="#8188e8"/>
      <stop offset=".85" stop-color="#a2a6f5"/>
      <stop offset="1" stop-color="#bcbeff"/>
    </linearGradient>
    <linearGradient id="Adsız_degrade_9" data-name="Adsız degrade 9" x1="83.61" y1="266.46" x2="101.49" y2="266.46" gradientTransform="translate(0 291.89) scale(1 -1)" gradientUnits="userSpaceOnUse">
      <stop offset="0" stop-color="#5761d7"/>
      <stop offset=".18" stop-color="#5b65d8"/>
      <stop offset=".39" stop-color="#6a72de"/>
      <stop offset=".61" stop-color="#8188e8"/>
      <stop offset=".85" stop-color="#a2a6f5"/>
      <stop offset="1" stop-color="#bcbeff"/>
    </linearGradient>
    <linearGradient id="Adsız_degrade_10" data-name="Adsız degrade 10" x1="88.25" y1="263.79" x2="106.13" y2="263.79" gradientTransform="translate(0 291.89) scale(1 -1)" gradientUnits="userSpaceOnUse">
      <stop offset="0" stop-color="#5761d7"/>
      <stop offset=".18" stop-color="#5b65d8"/>
      <stop offset=".39" stop-color="#6a72de"/>
      <stop offset=".61" stop-color="#8188e8"/>
      <stop offset=".85" stop-color="#a2a6f5"/>
      <stop offset="1" stop-color="#bcbeff"/>
    </linearGradient>
    <linearGradient id="Adsız_degrade_11" data-name="Adsız degrade 11" x1="83.76" y1="232.97" x2="88.34" y2="232.97" gradientTransform="translate(0 291.89) scale(1 -1)" gradientUnits="userSpaceOnUse">
      <stop offset="0" stop-color="#c0bff6"/>
      <stop offset=".29" stop-color="#c4c3f6"/>
      <stop offset=".64" stop-color="#d2d2f9"/>
      <stop offset="1" stop-color="#e9e9fd"/>
    </linearGradient>
    <linearGradient id="Adsız_degrade_12" data-name="Adsız degrade 12" x1="83.21" y1="232.51" x2="86.99" y2="232.51" gradientTransform="translate(0 291.89) scale(1 -1)" gradientUnits="userSpaceOnUse">
      <stop offset="0" stop-color="#5761d7"/>
      <stop offset=".18" stop-color="#5b65d8"/>
      <stop offset=".39" stop-color="#6a72de"/>
      <stop offset=".61" stop-color="#8188e8"/>
      <stop offset=".85" stop-color="#a2a6f5"/>
      <stop offset="1" stop-color="#bcbeff"/>
    </linearGradient>
    <linearGradient id="Adsız_degrade_13" data-name="Adsız degrade 13" x1="43.85" y1="257.49" x2="48.43" y2="257.49" gradientTransform="translate(0 291.89) scale(1 -1)" gradientUnits="userSpaceOnUse">
      <stop offset="0" stop-color="#c0bff6"/>
      <stop offset=".29" stop-color="#c4c3f6"/>
      <stop offset=".64" stop-color="#d2d2f9"/>
      <stop offset="1" stop-color="#e9e9fd"/>
    </linearGradient>
    <linearGradient id="Adsız_degrade_14" data-name="Adsız degrade 14" x1="43.3" y1="257.03" x2="47.08" y2="257.03" gradientTransform="translate(0 291.89) scale(1 -1)" gradientUnits="userSpaceOnUse">
      <stop offset="0" stop-color="#5761d7"/>
      <stop offset=".18" stop-color="#5b65d8"/>
      <stop offset=".39" stop-color="#6a72de"/>
      <stop offset=".61" stop-color="#8188e8"/>
      <stop offset=".85" stop-color="#a2a6f5"/>
      <stop offset="1" stop-color="#bcbeff"/>
    </linearGradient>
    <linearGradient id="Adsız_degrade_15" data-name="Adsız degrade 15" x1="83.76" y1="138.52" x2="88.34" y2="138.52" gradientTransform="translate(0 291.89) scale(1 -1)" gradientUnits="userSpaceOnUse">
      <stop offset="0" stop-color="#c0bff6"/>
      <stop offset=".29" stop-color="#c4c3f6"/>
      <stop offset=".64" stop-color="#d2d2f9"/>
      <stop offset="1" stop-color="#e9e9fd"/>
    </linearGradient>
    <linearGradient id="Adsız_degrade_16" data-name="Adsız degrade 16" x1="83.21" y1="138.06" x2="86.99" y2="138.06" gradientTransform="translate(0 291.89) scale(1 -1)" gradientUnits="userSpaceOnUse">
      <stop offset="0" stop-color="#5761d7"/>
      <stop offset=".18" stop-color="#5b65d8"/>
      <stop offset=".39" stop-color="#6a72de"/>
      <stop offset=".61" stop-color="#8188e8"/>
      <stop offset=".85" stop-color="#a2a6f5"/>
      <stop offset="1" stop-color="#bcbeff"/>
    </linearGradient>
    <linearGradient id="Adsız_degrade_17" data-name="Adsız degrade 17" x1="43.85" y1="163.05" x2="48.43" y2="163.05" gradientTransform="translate(0 291.89) scale(1 -1)" gradientUnits="userSpaceOnUse">
      <stop offset="0" stop-color="#c0bff6"/>
      <stop offset=".29" stop-color="#c4c3f6"/>
      <stop offset=".64" stop-color="#d2d2f9"/>
      <stop offset="1" stop-color="#e9e9fd"/>
    </linearGradient>
    <linearGradient id="Adsız_degrade_18" data-name="Adsız degrade 18" x1="43.3" y1="162.59" x2="47.08" y2="162.59" gradientTransform="translate(0 291.89) scale(1 -1)" gradientUnits="userSpaceOnUse">
      <stop offset="0" stop-color="#5761d7"/>
      <stop offset=".18" stop-color="#5b65d8"/>
      <stop offset=".39" stop-color="#6a72de"/>
      <stop offset=".61" stop-color="#8188e8"/>
      <stop offset=".85" stop-color="#a2a6f5"/>
      <stop offset="1" stop-color="#bcbeff"/>
    </linearGradient>
    <linearGradient id="Adsız_degrade_19" data-name="Adsız degrade 19" x1="2.74" y1="108.65" x2="50.37" y2="108.65" gradientTransform="translate(0 291.89) scale(1 -1)" gradientUnits="userSpaceOnUse">
      <stop offset=".25" stop-color="#5761d7"/>
      <stop offset=".44" stop-color="#6b74df"/>
      <stop offset=".82" stop-color="#a1a5f4"/>
      <stop offset="1" stop-color="#bcbeff"/>
    </linearGradient>
    <linearGradient id="Adsız_degrade_20" data-name="Adsız degrade 20" x1="2.74" y1="121.67" x2="69.58" y2="121.67" gradientTransform="translate(0 291.89) scale(1 -1)" gradientUnits="userSpaceOnUse">
      <stop offset="0" stop-color="#c0bff6"/>
      <stop offset=".29" stop-color="#c4c3f6"/>
      <stop offset=".64" stop-color="#d2d2f9"/>
      <stop offset="1" stop-color="#e9e9fd"/>
    </linearGradient>
    <linearGradient id="Adsız_degrade_21" data-name="Adsız degrade 21" x1="15.5" y1="121.67" x2="56.82" y2="121.67" gradientTransform="translate(0 291.89) scale(1 -1)" gradientUnits="userSpaceOnUse">
      <stop offset="0" stop-color="#42e8e0"/>
      <stop offset=".15" stop-color="#42e3df"/>
      <stop offset=".33" stop-color="#44d4de"/>
      <stop offset=".52" stop-color="#48bddd"/>
      <stop offset=".72" stop-color="#4d9bda"/>
      <stop offset=".93" stop-color="#5471d8"/>
      <stop offset="1" stop-color="#5761d7"/>
    </linearGradient>
    <linearGradient id="Adsız_degrade_22" data-name="Adsız degrade 22" x1="36.16" y1="135.97" x2="56.82" y2="135.97" gradientTransform="translate(0 291.89) scale(1 -1)" gradientUnits="userSpaceOnUse">
      <stop offset="0" stop-color="#42e8e0"/>
      <stop offset=".15" stop-color="#42e3df"/>
      <stop offset=".33" stop-color="#44d4de"/>
      <stop offset=".52" stop-color="#48bddd"/>
      <stop offset=".72" stop-color="#4d9bda"/>
      <stop offset=".93" stop-color="#5471d8"/>
      <stop offset="1" stop-color="#5761d7"/>
    </linearGradient>
    <linearGradient id="Adsız_degrade_23" data-name="Adsız degrade 23" x1="15.5" y1="135.97" x2="36.16" y2="135.97" gradientTransform="translate(0 291.89) scale(1 -1)" gradientUnits="userSpaceOnUse">
      <stop offset="0" stop-color="#42e8e0"/>
      <stop offset=".15" stop-color="#42e3df"/>
      <stop offset=".33" stop-color="#44d4de"/>
      <stop offset=".52" stop-color="#48bddd"/>
      <stop offset=".72" stop-color="#4d9bda"/>
      <stop offset=".93" stop-color="#5471d8"/>
      <stop offset="1" stop-color="#5761d7"/>
    </linearGradient>
    <linearGradient id="Adsız_degrade_24" data-name="Adsız degrade 24" x1="15.5" y1="138.35" x2="56.82" y2="138.35" gradientTransform="translate(0 291.89) scale(1 -1)" gradientUnits="userSpaceOnUse">
      <stop offset="0" stop-color="#42e8e0"/>
      <stop offset=".15" stop-color="#42e3df"/>
      <stop offset=".33" stop-color="#44d4de"/>
      <stop offset=".52" stop-color="#48bddd"/>
      <stop offset=".72" stop-color="#4d9bda"/>
      <stop offset=".93" stop-color="#5471d8"/>
      <stop offset="1" stop-color="#5761d7"/>
    </linearGradient>
    <linearGradient id="Adsız_degrade_25" data-name="Adsız degrade 25" x1="36.16" y1="124.05" x2="56.82" y2="124.05" gradientTransform="translate(0 291.89) scale(1 -1)" gradientUnits="userSpaceOnUse">
      <stop offset="0" stop-color="#42e8e0"/>
      <stop offset=".15" stop-color="#42e3df"/>
      <stop offset=".33" stop-color="#44d4de"/>
      <stop offset=".52" stop-color="#48bddd"/>
      <stop offset=".72" stop-color="#4d9bda"/>
      <stop offset=".93" stop-color="#5471d8"/>
      <stop offset="1" stop-color="#5761d7"/>
    </linearGradient>
    <linearGradient id="Adsız_degrade_26" data-name="Adsız degrade 26" x1="15.5" y1="124.05" x2="36.16" y2="124.05" gradientTransform="translate(0 291.89) scale(1 -1)" gradientUnits="userSpaceOnUse">
      <stop offset="0" stop-color="#42e8e0"/>
      <stop offset=".15" stop-color="#42e3df"/>
      <stop offset=".33" stop-color="#44d4de"/>
      <stop offset=".52" stop-color="#48bddd"/>
      <stop offset=".72" stop-color="#4d9bda"/>
      <stop offset=".93" stop-color="#5471d8"/>
      <stop offset="1" stop-color="#5761d7"/>
    </linearGradient>
    <linearGradient id="Adsız_degrade_27" data-name="Adsız degrade 27" x1="-40.99" y1="149.23" x2="-32.63" y2="149.23" gradientTransform="translate(159.36 254.77) rotate(3.32) scale(1 -1)" gradientUnits="userSpaceOnUse">
      <stop offset="0" stop-color="#5761d7"/>
      <stop offset=".07" stop-color="#5471d8"/>
      <stop offset=".28" stop-color="#4d9bda"/>
      <stop offset=".48" stop-color="#48bddd"/>
      <stop offset=".67" stop-color="#44d4de"/>
      <stop offset=".85" stop-color="#42e3df"/>
      <stop offset="1" stop-color="#42e8e0"/>
    </linearGradient>
    <linearGradient id="Adsız_degrade_28" data-name="Adsız degrade 28" x1="-29.19" y1="146.53" x2="-11.73" y2="146.53" gradientTransform="translate(159.36 254.77) rotate(3.32) scale(1 -1)" gradientUnits="userSpaceOnUse">
      <stop offset="0" stop-color="#5761d7"/>
      <stop offset=".07" stop-color="#5471d8"/>
      <stop offset=".28" stop-color="#4d9bda"/>
      <stop offset=".48" stop-color="#48bddd"/>
      <stop offset=".67" stop-color="#44d4de"/>
      <stop offset=".85" stop-color="#42e3df"/>
      <stop offset="1" stop-color="#42e8e0"/>
    </linearGradient>
    <linearGradient id="Adsız_degrade_29" data-name="Adsız degrade 29" x1="-37.23" y1="168.66" x2="-8.82" y2="168.66" gradientTransform="translate(159.36 254.77) rotate(3.32) scale(1 -1)" gradientUnits="userSpaceOnUse">
      <stop offset="0" stop-color="#5761d7"/>
      <stop offset=".07" stop-color="#5471d8"/>
      <stop offset=".28" stop-color="#4d9bda"/>
      <stop offset=".48" stop-color="#48bddd"/>
      <stop offset=".67" stop-color="#44d4de"/>
      <stop offset=".85" stop-color="#42e3df"/>
      <stop offset="1" stop-color="#42e8e0"/>
    </linearGradient>
    <linearGradient id="Adsız_degrade_30" data-name="Adsız degrade 30" x1="287.75" y1="103.81" x2="342.84" y2="72.02" gradientTransform="translate(0 291.89) scale(1 -1)" gradientUnits="userSpaceOnUse">
      <stop offset="0" stop-color="#bcbeff"/>
      <stop offset=".23" stop-color="#aaadf7"/>
      <stop offset=".68" stop-color="#7b82e5"/>
      <stop offset="1" stop-color="#5761d7"/>
    </linearGradient>
    <linearGradient id="Adsız_degrade_31" data-name="Adsız degrade 31" x1="280.83" y1="91.81" x2="350.27" y2="91.81" gradientTransform="translate(0 291.89) scale(1 -1)" gradientUnits="userSpaceOnUse">
      <stop offset="0" stop-color="#e9e9fd"/>
      <stop offset=".36" stop-color="#d2d2f9"/>
      <stop offset=".71" stop-color="#c4c3f6"/>
      <stop offset="1" stop-color="#c0bff6"/>
    </linearGradient>
    <linearGradient id="Adsız_degrade_32" data-name="Adsız degrade 32" x1="287.76" y1="144.36" x2="342.84" y2="112.55" gradientTransform="translate(0 291.89) scale(1 -1)" gradientUnits="userSpaceOnUse">
      <stop offset="0" stop-color="#bcbeff"/>
      <stop offset=".23" stop-color="#aaadf7"/>
      <stop offset=".68" stop-color="#7b82e5"/>
      <stop offset="1" stop-color="#5761d7"/>
    </linearGradient>
    <linearGradient id="Adsız_degrade_33" data-name="Adsız degrade 33" x1="280.83" y1="132.35" x2="350.27" y2="132.35" gradientTransform="translate(0 291.89) scale(1 -1)" gradientUnits="userSpaceOnUse">
      <stop offset="0" stop-color="#e9e9fd"/>
      <stop offset=".36" stop-color="#d2d2f9"/>
      <stop offset=".71" stop-color="#c4c3f6"/>
      <stop offset="1" stop-color="#c0bff6"/>
    </linearGradient>
    <linearGradient id="Adsız_degrade_34" data-name="Adsız degrade 34" x1="2474.02" y1="163.79" x2="2715.87" y2="163.79" gradientTransform="translate(2778.38 291.89) rotate(-180)" gradientUnits="userSpaceOnUse">
      <stop offset="0" stop-color="#42e8e0"/>
      <stop offset=".11" stop-color="#36b5bf"/>
      <stop offset=".22" stop-color="#2c87a0"/>
      <stop offset=".34" stop-color="#235f86"/>
      <stop offset=".46" stop-color="#1b3e71"/>
      <stop offset=".58" stop-color="#162560"/>
      <stop offset=".71" stop-color="#121355"/>
      <stop offset=".85" stop-color="#0f084e"/>
      <stop offset="1" stop-color="#0f054c"/>
    </linearGradient>
    <linearGradient id="Adsız_degrade_35" data-name="Adsız degrade 35" x1="2461.32" y1="154.83" x2="2699.88" y2="154.83" gradientTransform="translate(2778.38 291.89) rotate(-180)" gradientUnits="userSpaceOnUse">
      <stop offset="0" stop-color="#42e8e0"/>
      <stop offset=".11" stop-color="#36b5bf"/>
      <stop offset=".22" stop-color="#2c87a0"/>
      <stop offset=".34" stop-color="#235f86"/>
      <stop offset=".46" stop-color="#1b3e71"/>
      <stop offset=".58" stop-color="#162560"/>
      <stop offset=".71" stop-color="#121355"/>
      <stop offset=".85" stop-color="#0f084e"/>
      <stop offset="1" stop-color="#0f054c"/>
    </linearGradient>
    <linearGradient id="Adsız_degrade_36" data-name="Adsız degrade 36" x1="230.81" y1="72" x2="285.96" y2="40.16" gradientTransform="translate(0 291.89) scale(1 -1)" gradientUnits="userSpaceOnUse">
      <stop offset="0" stop-color="#bcbeff"/>
      <stop offset=".23" stop-color="#aaadf7"/>
      <stop offset=".68" stop-color="#7b82e5"/>
      <stop offset="1" stop-color="#5761d7"/>
    </linearGradient>
    <linearGradient id="Adsız_degrade_37" data-name="Adsız degrade 37" x1="223.9" y1="59.96" x2="293.41" y2="59.96" gradientTransform="translate(0 291.89) scale(1 -1)" gradientUnits="userSpaceOnUse">
      <stop offset="0" stop-color="#e9e9fd"/>
      <stop offset=".36" stop-color="#d2d2f9"/>
      <stop offset=".71" stop-color="#c4c3f6"/>
      <stop offset="1" stop-color="#c0bff6"/>
    </linearGradient>
    <linearGradient id="Adsız_degrade_38" data-name="Adsız degrade 38" x1="230.82" y1="111.59" x2="285.96" y2="79.74" gradientTransform="translate(0 291.89) scale(1 -1)" gradientUnits="userSpaceOnUse">
      <stop offset="0" stop-color="#bcbeff"/>
      <stop offset=".23" stop-color="#aaadf7"/>
      <stop offset=".68" stop-color="#7b82e5"/>
      <stop offset="1" stop-color="#5761d7"/>
    </linearGradient>
    <linearGradient id="Adsız_degrade_39" data-name="Adsız degrade 39" x1="234.13" y1="113.72" x2="283.31" y2="85.32" gradientTransform="translate(0 291.89) scale(1 -1)" gradientUnits="userSpaceOnUse">
      <stop offset=".24" stop-color="#5761d7"/>
      <stop offset=".39" stop-color="#7a81e5"/>
      <stop offset=".55" stop-color="#979bf0"/>
      <stop offset=".7" stop-color="#abaef8"/>
      <stop offset=".85" stop-color="#b7bafd"/>
      <stop offset="1" stop-color="#bcbeff"/>
    </linearGradient>
    <linearGradient id="Adsız_degrade_40" data-name="Adsız degrade 40" x1="223.9" y1="99.54" x2="293.41" y2="99.54" gradientTransform="translate(0 291.89) scale(1 -1)" gradientUnits="userSpaceOnUse">
      <stop offset="0" stop-color="#e9e9fd"/>
      <stop offset=".36" stop-color="#d2d2f9"/>
      <stop offset=".71" stop-color="#c4c3f6"/>
      <stop offset="1" stop-color="#c0bff6"/>
    </linearGradient>
    <linearGradient id="Adsız_degrade_41" data-name="Adsız degrade 41" x1="224.98" y1="99.54" x2="292.34" y2="99.54" gradientTransform="translate(0 291.89) scale(1 -1)" gradientUnits="userSpaceOnUse">
      <stop offset="0" stop-color="#e9e9fd"/>
      <stop offset=".36" stop-color="#d2d2f9"/>
      <stop offset=".71" stop-color="#c4c3f6"/>
      <stop offset="1" stop-color="#c0bff6"/>
    </linearGradient>
    <radialGradient id="Adsız_degrade_43" data-name="Adsız degrade 43" cx="-2118.02" cy="3479.6" fx="-2118.02" fy="3479.6" r="16.45" gradientTransform="translate(-2053.4 5266.39) rotate(44.4) scale(.92 -1.51)" gradientUnits="userSpaceOnUse">
      <stop offset="0" stop-color="#c0bff6"/>
      <stop offset="1" stop-color="#393091"/>
    </radialGradient>
    <linearGradient id="Adsız_degrade_44" data-name="Adsız degrade 44" x1="-2408.15" y1="729.88" x2="-2415.85" y2="719.6" gradientTransform="translate(1224.94 2307.8) rotate(44.4) scale(.92 -1.15)" gradientUnits="userSpaceOnUse">
      <stop offset="0" stop-color="#42e8e0"/>
      <stop offset="0" stop-color="#41e6df"/>
      <stop offset=".14" stop-color="#3fb6ca"/>
      <stop offset=".27" stop-color="#3d8cb8"/>
      <stop offset=".41" stop-color="#3b6baa"/>
      <stop offset=".55" stop-color="#3a519f"/>
      <stop offset=".69" stop-color="#393e97"/>
      <stop offset=".84" stop-color="#393392"/>
      <stop offset="1" stop-color="#393091"/>
    </linearGradient>
    <radialGradient id="Adsız_degrade_45" data-name="Adsız degrade 45" cx="-96.61" cy="568.17" fx="-96.61" fy="568.17" r="49.12" gradientTransform="translate(263.53 686.47) rotate(11.2) scale(1 -1)" gradientUnits="userSpaceOnUse">
      <stop offset="0" stop-color="#c0bff6"/>
      <stop offset="1" stop-color="#393091"/>
    </radialGradient>
    <linearGradient id="Adsız_degrade_46" data-name="Adsız degrade 46" x1="-778.43" y1="-198.25" x2="-761.4" y2="-198.25" gradientTransform="translate(484.76 -618.38) rotate(-57.51) scale(1 -1)" gradientUnits="userSpaceOnUse">
      <stop offset="0" stop-color="#42e8e0"/>
      <stop offset="0" stop-color="#41e6df"/>
      <stop offset=".14" stop-color="#3fb6ca"/>
      <stop offset=".27" stop-color="#3d8cb8"/>
      <stop offset=".41" stop-color="#3b6baa"/>
      <stop offset=".55" stop-color="#3a519f"/>
      <stop offset=".69" stop-color="#393e97"/>
      <stop offset=".84" stop-color="#393392"/>
      <stop offset="1" stop-color="#393091"/>
    </linearGradient>
    <radialGradient id="Adsız_degrade_47" data-name="Adsız degrade 47" cx="927.3" cy="54.42" fx="927.3" fy="54.42" r="48.52" gradientTransform="translate(-449.77 206.39) scale(.78 -1.06)" gradientUnits="userSpaceOnUse">
      <stop offset="0" stop-color="#c0bff6"/>
      <stop offset="1" stop-color="#393091"/>
    </radialGradient>
    <linearGradient id="Adsız_degrade_48" data-name="Adsız degrade 48" x1="908.51" y1="21.96" x2="908.51" y2="70.43" gradientTransform="translate(-449.77 206.39) scale(.78 -1.06)" gradientUnits="userSpaceOnUse">
      <stop offset="0" stop-color="#42e8e0"/>
      <stop offset="0" stop-color="#41e6df"/>
      <stop offset=".14" stop-color="#3fb6ca"/>
      <stop offset=".27" stop-color="#3d8cb8"/>
      <stop offset=".41" stop-color="#3b6baa"/>
      <stop offset=".55" stop-color="#3a519f"/>
      <stop offset=".69" stop-color="#393e97"/>
      <stop offset=".84" stop-color="#393392"/>
      <stop offset="1" stop-color="#393091"/>
    </linearGradient>
    <radialGradient id="Adsız_degrade_49" data-name="Adsız degrade 49" cx="273.72" cy="175.47" fx="273.72" fy="175.47" r="37.87" gradientTransform="translate(0 291.89) scale(1 -1)" gradientUnits="userSpaceOnUse">
      <stop offset="0" stop-color="#c0bff6"/>
      <stop offset="1" stop-color="#393091"/>
    </radialGradient>
    <linearGradient id="Adsız_degrade_50" data-name="Adsız degrade 50" x1="256.62" y1="149.96" x2="262.86" y2="194.34" gradientTransform="translate(0 291.89) scale(1 -1)" gradientUnits="userSpaceOnUse">
      <stop offset="0" stop-color="#42e8e0"/>
      <stop offset="0" stop-color="#41e6df"/>
      <stop offset=".14" stop-color="#3fb6ca"/>
      <stop offset=".27" stop-color="#3d8cb8"/>
      <stop offset=".41" stop-color="#3b6baa"/>
      <stop offset=".55" stop-color="#3a519f"/>
      <stop offset=".69" stop-color="#393e97"/>
      <stop offset=".84" stop-color="#393392"/>
      <stop offset="1" stop-color="#393091"/>
    </linearGradient>
    <radialGradient id="Adsız_degrade_51" data-name="Adsız degrade 51" cx="-80.18" cy="535.64" fx="-80.18" fy="535.64" r="17.75" gradientTransform="translate(263.53 686.47) rotate(11.2) scale(1 -1)" gradientUnits="userSpaceOnUse">
      <stop offset="0" stop-color="#c0bff6"/>
      <stop offset="1" stop-color="#393091"/>
    </radialGradient>
    <linearGradient id="Adsız_degrade_52" data-name="Adsız degrade 52" x1="-89.84" y1="522.97" x2="-78.27" y2="535.46" gradientTransform="translate(263.53 686.47) rotate(11.2) scale(1 -1)" gradientUnits="userSpaceOnUse">
      <stop offset="0" stop-color="#42e8e0"/>
      <stop offset="0" stop-color="#41e6df"/>
      <stop offset=".14" stop-color="#3fb6ca"/>
      <stop offset=".27" stop-color="#3d8cb8"/>
      <stop offset=".41" stop-color="#3b6baa"/>
      <stop offset=".55" stop-color="#3a519f"/>
      <stop offset=".69" stop-color="#393e97"/>
      <stop offset=".84" stop-color="#393392"/>
      <stop offset="1" stop-color="#393091"/>
    </linearGradient>
    <radialGradient id="Adsız_degrade_53" data-name="Adsız degrade 53" cx="423.87" cy="2333.45" fx="423.87" fy="2333.45" r="16.45" gradientTransform="translate(-504.47 3628.29) rotate(6.8) scale(.92 -1.51)" gradientUnits="userSpaceOnUse">
      <stop offset="0" stop-color="#c0bff6"/>
      <stop offset="1" stop-color="#393091"/>
    </radialGradient>
    <linearGradient id="Adsız_degrade_54" data-name="Adsız degrade 54" x1="197.17" y1="97.45" x2="210.01" y2="97.45" gradientTransform="translate(92.44 270.01) rotate(6.8) scale(.92 -1.15)" gradientUnits="userSpaceOnUse">
      <stop offset="0" stop-color="#42e8e0"/>
      <stop offset="0" stop-color="#41e6df"/>
      <stop offset=".14" stop-color="#3fb6ca"/>
      <stop offset=".27" stop-color="#3d8cb8"/>
      <stop offset=".41" stop-color="#3b6baa"/>
      <stop offset=".55" stop-color="#3a519f"/>
      <stop offset=".69" stop-color="#393e97"/>
      <stop offset=".84" stop-color="#393392"/>
      <stop offset="1" stop-color="#393091"/>
    </linearGradient>
    <linearGradient id="Adsız_degrade_55" data-name="Adsız degrade 55" x1="287.75" y1="37.73" x2="342.84" y2="5.94" gradientTransform="translate(0 291.89) scale(1 -1)" gradientUnits="userSpaceOnUse">
      <stop offset="0" stop-color="#bcbeff"/>
      <stop offset=".23" stop-color="#aaadf7"/>
      <stop offset=".68" stop-color="#7b82e5"/>
      <stop offset="1" stop-color="#5761d7"/>
    </linearGradient>
    <linearGradient id="Adsız_degrade_56" data-name="Adsız degrade 56" x1="280.83" y1="25.73" x2="350.27" y2="25.73" gradientTransform="translate(0 291.89) scale(1 -1)" gradientUnits="userSpaceOnUse">
      <stop offset="0" stop-color="#e9e9fd"/>
      <stop offset=".36" stop-color="#d2d2f9"/>
      <stop offset=".71" stop-color="#c4c3f6"/>
      <stop offset="1" stop-color="#c0bff6"/>
    </linearGradient>
    <linearGradient id="Adsız_degrade_57" data-name="Adsız degrade 57" x1="287.76" y1="78.28" x2="342.84" y2="46.47" gradientTransform="translate(0 291.89) scale(1 -1)" gradientUnits="userSpaceOnUse">
      <stop offset="0" stop-color="#bcbeff"/>
      <stop offset=".23" stop-color="#aaadf7"/>
      <stop offset=".68" stop-color="#7b82e5"/>
      <stop offset="1" stop-color="#5761d7"/>
    </linearGradient>
    <linearGradient id="Adsız_degrade_58" data-name="Adsız degrade 58" x1="280.83" y1="66.27" x2="350.27" y2="66.27" gradientTransform="translate(0 291.89) scale(1 -1)" gradientUnits="userSpaceOnUse">
      <stop offset="0" stop-color="#e9e9fd"/>
      <stop offset=".36" stop-color="#d2d2f9"/>
      <stop offset=".71" stop-color="#c4c3f6"/>
      <stop offset="1" stop-color="#c0bff6"/>
    </linearGradient>
  </defs>
  <path class="cls-46" d="m90.41,174.28c-.55,0-1.07-.11-1.47-.34l-33.07-19.09c-.43-.25-.66-.6-.66-1,0-.46.32-.9.88-1.23l32.62-18.84c1-.58,2.47-.63,3.34-.13l33.07,19.09c.43.25.66.6.66.99,0,.46-.32.9-.88,1.23l-32.63,18.84c-.54.31-1.22.47-1.87.47h.01Zm.18-40.45c-.56,0-1.16.14-1.62.4l-32.62,18.84c-.39.23-.63.52-.63.78s.22.44.41.55l33.07,19.09c.71.41,2,.35,2.83-.13l32.63-18.84c.39-.23.63-.52.63-.79s-.22-.44-.41-.55l-33.07-19.09c-.32-.18-.75-.27-1.21-.27h0Z"/>
  <g>
    <polygon class="cls-18" points="90.23 54.95 42.64 27.47 90.23 0 137.81 27.47 90.23 54.95"/>
    <polygon class="cls-2" points="90.23 160.41 42.64 132.93 90.23 105.46 137.81 132.93 90.23 160.41"/>
    <polygon class="cls-59" points="137.81 27.47 137.81 132.93 90.23 160.41 90.23 54.95 137.81 27.47"/>
    <polygon class="cls-27" points="42.64 27.47 42.64 132.93 90.23 160.41 90.23 54.95 42.64 27.47"/>
    <g class="cls-65">
      <polygon class="cls-60" points="45.86 34.47 45.86 129.26 87 153.01 87 58.22 45.86 34.47"/>
    </g>
    <polygon class="cls-60" points="130.67 52.95 130.67 55.74 97.36 74.97 97.36 72.18 130.67 52.95"/>
    <polygon class="cls-60" points="130.67 64.74 130.67 67.53 97.36 86.76 97.36 83.97 130.67 64.74"/>
    <polygon class="cls-60" points="130.67 76.53 130.67 79.31 97.36 98.54 97.36 95.76 130.67 76.53"/>
    <polygon class="cls-60" points="130.67 88.31 130.67 91.1 97.36 110.33 97.36 107.54 130.67 88.31"/>
    <polygon class="cls-60" points="130.67 100.1 130.67 102.88 97.36 122.12 97.36 119.33 130.67 100.1"/>
    <polygon class="cls-60" points="130.67 111.88 130.67 114.67 97.36 133.9 97.36 131.11 130.67 111.88"/>
    <polygon class="cls-8" points="90.23 47.73 77.72 47.73 42.64 27.47 80.81 5.43 90.23 5.43 90.23 47.73"/>
    <g>
      <polygon class="cls-38" points="90.23 45.3 55.7 25.37 90.23 5.43 124.75 25.37 90.23 45.3"/>
      <polygon class="cls-33" points="124.75 25.37 124.75 27.79 90.23 47.73 90.23 45.3 124.75 25.37"/>
      <polygon class="cls-52" points="55.7 25.37 55.7 27.79 90.23 47.73 90.23 45.3 55.7 25.37"/>
    </g>
    <g>
      <g>
        <polygon class="cls-57" points="76.84 25.69 75.3 24.8 75.43 24.09 89.62 15.83 91.59 16.77 91.22 17.38 76.84 25.69"/>
        <polygon class="cls-40" points="89.69 16.5 91.22 17.38 92.2 16.81 89.69 15.36 74.32 24.24 75.31 24.81 89.69 16.5"/>
      </g>
      <g>
        <polygon class="cls-57" points="81.48 28.36 79.95 27.48 80.07 26.76 94.26 18.5 96.23 19.44 95.86 20.05 81.48 28.36"/>
        <polygon class="cls-25" points="94.33 19.17 95.86 20.05 96.85 19.49 94.33 18.04 78.96 26.91 79.95 27.48 94.33 19.17"/>
      </g>
      <g>
        <polygon class="cls-57" points="86.12 31.03 84.59 30.15 84.71 29.43 98.9 21.18 100.87 22.11 100.5 22.73 86.12 31.03"/>
        <polygon class="cls-35" points="98.97 21.84 100.5 22.73 101.49 22.16 98.97 20.71 83.61 29.58 84.59 30.15 98.97 21.84"/>
      </g>
      <g>
        <polygon class="cls-57" points="90.76 33.7 89.23 32.82 89.36 32.1 103.54 23.85 105.51 24.79 105.14 25.4 90.76 33.7"/>
        <polygon class="cls-43" points="103.62 24.52 105.14 25.4 106.13 24.83 103.62 23.38 88.25 32.25 89.23 32.82 103.62 24.52"/>
      </g>
    </g>
    <g class="cls-65">
      <polygon class="cls-60" points="42.64 116.27 90.23 87.53 90.23 54.95 42.64 27.47 42.64 116.27"/>
    </g>
    <g>
      <path class="cls-28" d="m88.34,59.69c0-1.21-.85-2.68-1.89-3.28-.53-.3-1-.33-1.34-.13h0l-1.34.78.83.03c-.02.13-.04.26-.04.41,0,1.21.85,2.68,1.89,3.28.14.08.27.14.41.18l-.39.72,1.31-.77h0c.35-.2.56-.62.56-1.23h0Z"/>
      <path class="cls-50" d="m86.99,60.48c0,1.21-.85,1.7-1.89,1.09-1.05-.6-1.89-2.07-1.89-3.28s.85-1.7,1.89-1.09c1.05.6,1.89,2.07,1.89,3.28Z"/>
      <path class="cls-57" d="m86.19,60.01c0,.69-.49.98-1.09.63s-1.09-1.19-1.09-1.89.49-.98,1.09-.63,1.09,1.19,1.09,1.89Z"/>
    </g>
    <g>
      <path class="cls-53" d="m48.43,35.17c0-1.21-.85-2.68-1.89-3.28-.53-.3-1-.33-1.34-.13h0l-1.34.78.83.03c-.02.13-.04.26-.04.41,0,1.21.85,2.68,1.89,3.28.14.08.27.14.41.18l-.39.72,1.31-.77h0c.35-.2.56-.62.56-1.23h0Z"/>
      <path class="cls-64" d="m47.08,35.96c0,1.21-.85,1.7-1.89,1.09-1.05-.6-1.89-2.07-1.89-3.28s.85-1.7,1.89-1.09c1.05.6,1.89,2.07,1.89,3.28Z"/>
      <path class="cls-57" d="m46.28,35.49c0,.69-.49.98-1.09.63s-1.09-1.19-1.09-1.89.49-.98,1.09-.63,1.09,1.19,1.09,1.89Z"/>
    </g>
    <g>
      <path class="cls-67" d="m88.34,154.14c0-1.21-.85-2.68-1.89-3.28-.53-.3-1-.33-1.34-.13h0l-1.34.78.83.03c-.02.13-.04.26-.04.41,0,1.21.85,2.68,1.89,3.28.14.08.27.14.41.18l-.39.72,1.31-.77h0c.35-.2.56-.62.56-1.23h0Z"/>
      <path class="cls-36" d="m86.99,154.93c0,1.21-.85,1.7-1.89,1.09-1.05-.6-1.89-2.07-1.89-3.28s.85-1.7,1.89-1.09c1.05.6,1.89,2.07,1.89,3.28Z"/>
      <path class="cls-57" d="m86.19,154.46c0,.69-.49.98-1.09.63-.6-.35-1.09-1.19-1.09-1.89s.49-.98,1.09-.63c.6.35,1.09,1.19,1.09,1.89Z"/>
    </g>
    <g>
      <path class="cls-79" d="m48.43,129.61c0-1.21-.85-2.68-1.89-3.28-.53-.3-1-.33-1.34-.13h0l-1.34.78.83.03c-.02.13-.04.26-.04.41,0,1.21.85,2.68,1.89,3.28.14.08.27.14.41.18l-.39.72,1.31-.77h0c.35-.2.56-.62.56-1.23h0Z"/>
      <path class="cls-31" d="m47.08,130.4c0,1.21-.85,1.7-1.89,1.09-1.05-.6-1.89-2.07-1.89-3.28s.85-1.7,1.89-1.09c1.05.6,1.89,2.07,1.89,3.28Z"/>
      <path class="cls-57" d="m46.28,129.94c0,.69-.49.98-1.09.63-.6-.35-1.09-1.19-1.09-1.89s.49-.98,1.09-.63c.6.35,1.09,1.19,1.09,1.89Z"/>
    </g>
  </g>
  <g>
    <g>
      <polygon class="cls-46" points="63.08 79.73 57.89 76.74 57.89 75.6 63.08 78.59 63.08 79.73"/>
      <polygon class="cls-10" points="65.74 81.27 63.87 80.19 63.87 79.05 65.74 80.13 65.74 81.27"/>
      <polygon class="cls-46" points="67.8 82.46 66.53 81.73 66.53 80.59 67.8 81.32 67.8 82.46"/>
      <polygon class="cls-46" points="60.72 80.97 57.89 79.34 57.89 78.2 60.72 79.83 60.72 80.97"/>
      <polygon class="cls-46" points="64.97 83.43 61.51 81.43 61.51 80.29 64.97 82.29 64.97 83.43"/>
      <polygon class="cls-46" points="67.03 84.62 65.77 83.89 65.77 82.75 67.03 83.48 67.03 84.62"/>
      <polygon class="cls-46" points="69 85.75 67.73 85.02 67.73 83.88 69 84.61 69 85.75"/>
      <polygon class="cls-46" points="59.93 83.12 57.89 81.94 57.89 80.8 59.93 81.98 59.93 83.12"/>
      <polygon class="cls-46" points="61.43 83.98 60.73 83.58 60.73 82.44 61.43 82.84 61.43 83.98"/>
      <polygon class="cls-46" points="63.49 85.17 62.22 84.44 62.22 83.3 63.49 84.03 63.49 85.17"/>
      <polygon class="cls-10" points="65.44 88.9 57.89 84.54 57.89 83.41 65.44 87.76 65.44 88.9"/>
      <polygon class="cls-46" points="68.1 90.44 66.23 89.36 66.23 88.22 68.1 89.3 68.1 90.44"/>
      <polygon class="cls-46" points="59.93 88.33 57.89 87.15 57.89 86.01 59.93 87.19 59.93 88.33"/>
      <polygon class="cls-46" points="64.73 91.1 60.73 88.79 60.73 87.65 64.73 89.96 64.73 91.1"/>
      <polygon class="cls-46" points="66.8 92.29 65.53 91.56 65.53 90.42 66.8 91.15 66.8 92.29"/>
      <polygon class="cls-10" points="62.07 92.17 57.89 89.75 57.89 88.61 62.07 91.03 62.07 92.17"/>
      <polygon class="cls-10" points="65.89 94.37 62.87 92.62 62.87 91.48 65.89 93.23 65.89 94.37"/>
      <polygon class="cls-46" points="68.73 96.01 66.69 94.83 66.69 93.69 68.73 94.87 68.73 96.01"/>
      <polygon class="cls-46" points="59.3 93.17 57.89 92.35 57.89 91.21 59.3 92.03 59.3 93.17"/>
      <polygon class="cls-46" points="61.96 94.7 60.1 93.63 60.1 92.49 61.96 93.56 61.96 94.7"/>
      <polygon class="cls-46" points="65.77 96.9 62.76 95.16 62.76 94.02 65.77 95.76 65.77 96.9"/>
      <polygon class="cls-46" points="62.22 97.45 57.89 94.95 57.89 93.81 62.22 96.31 62.22 97.45"/>
      <polygon class="cls-10" points="67.07 100.25 63.01 97.91 63.01 96.77 67.07 99.11 67.07 100.25"/>
      <polygon class="cls-46" points="69.13 101.44 67.86 100.71 67.86 99.57 69.13 100.3 69.13 101.44"/>
      <polygon class="cls-46" points="71.11 102.59 69.84 101.85 69.84 100.71 71.11 101.45 71.11 102.59"/>
      <polygon class="cls-46" points="60.48 99.05 57.89 97.56 57.89 96.42 60.48 97.91 60.48 99.05"/>
      <polygon class="cls-46" points="71.33 84.5 74.93 86.57 74.93 85.44 71.33 83.36 71.33 84.5"/>
      <polygon class="cls-10" points="72.1 87.54 74.93 89.18 74.93 88.04 72.1 86.41 72.1 87.54"/>
      <polygon class="cls-46" points="72.88 90.6 74.93 91.78 74.93 90.64 72.88 89.46 72.88 90.6"/>
      <polygon class="cls-46" points="71.95 92.66 74.93 94.38 74.93 93.24 71.95 91.52 71.95 92.66"/>
      <polygon class="cls-46" points="72.88 95.8 74.93 96.98 74.93 95.84 72.88 94.66 72.88 95.8"/>
      <polygon class="cls-46" points="72.33 98.09 74.93 99.59 74.93 98.45 72.33 96.95 72.33 98.09"/>
      <polygon class="cls-46" points="73.52 101.37 74.93 102.19 74.93 101.05 73.52 100.23 73.52 101.37"/>
      <polygon class="cls-46" points="72.19 103.21 74.93 104.79 74.93 103.65 72.19 102.07 72.19 103.21"/>
      <polygon class="cls-46" points="72.33 105.9 74.93 107.39 74.93 106.25 72.33 104.76 72.33 105.9"/>
      <polygon class="cls-46" points="62.38 100.15 61.28 99.51 61.28 98.37 62.38 99.01 62.38 100.15"/>
      <polygon class="cls-10" points="65.65 102.04 63.17 100.61 63.17 99.47 65.65 100.9 65.65 102.04"/>
      <polygon class="cls-46" points="67.71 110.79 63.52 108.37 63.52 107.24 67.71 109.65 67.71 110.79"/>
      <polygon class="cls-46" points="70.58 112.45 68.93 111.5 68.93 110.36 70.58 111.31 70.58 112.45"/>
    </g>
    <path class="cls-46" d="m81.19,125.59c-.18,0-.36-.05-.54-.16l-28.94-16.71c-.59-.34-1.05-1.21-1.05-1.98v-41.87c0-.48.18-.86.5-1.04.28-.16.63-.15.96.05l28.94,16.71c.59.34,1.05,1.21,1.05,1.98v41.87c0,.48-.18.86-.5,1.04-.13.07-.27.11-.42.11Zm-29.62-61.05h-.02s-.09.11-.09.34v41.87c0,.48.3,1.08.65,1.28l28.94,16.71c.09.05.14.05.16.04.02-.01.09-.11.09-.34v-41.87c0-.48-.3-1.08-.65-1.28l-28.94-16.71c-.06-.04-.11-.05-.14-.05h0Z"/>
  </g>
  <g>
    <path class="cls-46" d="m36.16,205.61L0,184.73l36.16-20.88,36.16,20.88-36.16,20.88ZM1.02,184.73l35.13,20.29,35.13-20.28-35.13-20.28L1.02,184.73Z"/>
    <polygon class="cls-66" points="69.58 176.97 69.58 170.23 36.16 188.67 2.74 170.23 2.74 176.97 36.16 196.26 69.58 176.97"/>
    <polygon class="cls-68" points="36.16 189.52 2.74 170.23 36.16 150.93 69.58 170.23 36.16 189.52"/>
    <polygon class="cls-3" points="36.16 188.96 3.22 169.95 2.74 170.23 36.16 189.52 69.58 170.23 69.1 169.95 36.16 188.96"/>
    <polygon class="cls-20" points="36.16 182.15 15.5 170.23 36.16 158.3 56.82 170.23 36.16 182.15"/>
    <g>
      <polygon class="cls-5" points="36.16 182.15 15.5 170.23 36.16 158.3 56.82 170.23 36.16 182.15"/>
      <g>
        <polygon class="cls-14" points="36.16 141.61 56.82 153.54 56.82 170.23 36.16 158.3 36.16 141.61"/>
        <polygon class="cls-6" points="36.16 158.3 15.5 170.23 15.5 153.54 36.16 141.61 36.16 158.3"/>
        <polygon class="cls-4" points="36.16 165.47 15.5 153.54 36.16 141.61 56.82 153.54 36.16 165.47"/>
        <polygon class="cls-13" points="36.16 165.47 36.16 182.15 56.82 170.23 56.82 153.54 36.16 165.47"/>
      </g>
      <polygon class="cls-12" points="15.5 153.54 15.5 170.23 36.16 182.15 36.16 165.47 15.5 153.54"/>
    </g>
  </g>
  <polygon class="cls-11" points="36.16 164.9 15.99 153.25 15.5 153.54 36.16 165.47 56.82 153.54 56.33 153.25 36.16 164.9"/>
  <ellipse class="cls-9" cx="144.67" cy="147.82" rx="19.88" ry="11.48"/>
  <g>
    <path class="cls-23" d="m137.1,138.09s-.48.5-.98,1.1c-.5.59-1.91,1.42-2.5,1.79s-3.31,2.42-3.87,4.45c-.57,2.03,1.37,2.29,3.36,1.94,1.98-.35,3.84-2.18,4.38-2.84.54-.66,2.42-2.16,4.85-3.42,2.43-1.26.96-2.95.96-2.95l-6.19-.06h-.01Z"/>
    <path class="cls-23" d="m155.18,144.11s.4.91.52,2.08c.11,1.17.28,3.71.34,4.45.06.74.08,2.56-1.22,4.3-1.31,1.74-1.98,2.43-3.72,1.74-1.74-.68-1.7-3.6-1.39-5.1s.59-4.86.56-5.21.1-.58.1-.58l4.82-1.69h-.01Z"/>
    <path class="cls-27" d="m131.1,103.67s.37,13.38,3.48,20.48c0,0,2.23,6.25,2.53,13.69,0,0-.52,1.28.22,2.32.73,1.04,5.31,1.99,6.06-1.43.76-3.42.47-9.82-.37-12.49-.83-2.67.3-10.03.3-10.03,0,0,1.25.8,2.89,6.08s2.85,7.3,3.41,8.76,1.08,10.42.73,14.79c0,0,3.71.53,4.78-1.25,1.07-1.77,1.43-10.94,1.16-13.86-.27-2.92-1.49-12.28-1.33-15.18.17-2.9.77-5.25.11-8.14s-20.22-9.32-20.22-9.32l-3.75,5.56v.02Z"/>
    <path class="cls-23" d="m154.96,115.58c.17-2.9.77-5.25.11-8.14-.25-1.09-3.17-2.67-6.72-4.23-5.99-.55-13.58-1.18-14.1-1.1-.47.07-1.71.54-2.74.95l-.42.62s.02.81.1,2.14c1.4.42,4.08-.01,4.08-.01.38.94,2.71,4.27,5.61,5.71s11.39.95,11.88,1.49c.49.55.58,7.87.53,8.8s.8,6.79,1.59,11.98c.78,5.1-.41,11.3-.44,11.5.27-.18.51-.39.68-.67,1.07-1.77,1.43-10.94,1.16-13.86-.27-2.92-1.49-12.28-1.33-15.18h.01Z"/>
    <path class="cls-60" d="m137.65,59.92s-4.34.99-5.8,1.33c-.24.06-.44.23-.53.46-.42,1.07-1.48,4.38-.68,9.22.98,5.95.67,9.95.67,9.95l-2.01,10.45s-2.52,9.95-2.31,10.22c.22.27,5.81,4.53,7.56,3.93s1.17-1.59,1.17-1.59c0,0,1.42,7.21,7.68,7.14,6.27-.07,11.39-.05,12.45-2.58s-.29-13.18-1.4-17.4c-1.1-4.22-3.73-12.62-3.73-12.62l9.18-10.16-7.84-5.99s-1.87-3.48-2.64-3.92-1.17-.07-1.17-.07c0,0-10.6,1.63-10.6,1.63Z"/>
    <g>
      <path class="cls-55" d="m134.66,103.18c0,.36-.21.9-1.33,1.29-1.22.42-4.2-1.4-6.15-2.76.98.81,5.78,4.32,7.38,3.77.35-.12.6-.25.79-.39-.36-.8-.57-1.5-.68-1.9h0Z"/>
      <path class="cls-77" d="m155.81,107.6c-1.12,2.67-6.53,2.65-13.14,2.73-1.68.02-3.03-.46-4.11-1.19,1.14,1.09,2.71,1.91,4.85,1.89,6.27-.07,11.39-.05,12.45-2.58.35-.83.44-2.54.36-4.61,0,1.68-.1,3.04-.41,3.76Z"/>
    </g>
    <path class="cls-70" d="m149.25,58.27s1.6,1.94-.7,4.56c-1.42,1.61-3.86,5.08-5.94,8.69-1.3,2.25-2.5,3.45-3.18,5.39,0,0-.1-2.3-.19-5.85-.09-3.35-.13-6.83.02-7.71.31-1.81,8.22-5.95,9.99-5.08h0Z"/>
    <path class="cls-63" d="m143.26,64.1s-.82.51-1.1.47-1.19-.93-1.19-.93c0,0-2.27-.04-2.52-1.02s-.41-1.96-.64-2.46c-.23-.51-1.21-2.94-1.22-3.92,0-.99.03-2.75-.4-3.68s-1-10.27,8.01-10.01c9.02.26,6.21,9.62,6.21,9.62,0,0,.66.28.26,1.49-.4,1.21-.49,1.33-.69,1.93s-.3.98-.88,1.47l-.15,1.11s.43,1.7-.69,3.34c-1.12,1.65-5,2.59-5,2.59h0Z"/>
    <path class="cls-27" d="m131.6,61.36s-.96.14-4.08,7.99c-1.74,4.38-4.43,8.91-5,12.17-.57,3.25-.25,6.73.39,6.98.62.24,11.83,4.43,15.33,5.75.19.07.4-.05.44-.25l.97-5.41-6.95-2.69s-1.32-1.62-2.57-2.23c0,0,1.39-2.57,1.31-3.27s.12-7.96-.69-10.91c-.81-2.95.85-8.12.85-8.12h0Z"/>
    <path class="cls-63" d="m135.68,82.1s-.96-.64-1.19-.74c-.24-.09-1.52-.53-1.76-.64-.18-.08-.93-.02-1.3.02-.14.01-.25.09-.32.21-.3.55-1.12,2.15-1.03,2.76,0,0,2.32,1.46,2.57,2.12l.37.08s1.55-3.33,2.66-3.81Z"/>
    <path class="cls-27" d="m154.46,91.05c-.27-1.01-.62-2.27-1-3.6l-14.08,6.04s4.22,5.18,11.6,4.85c2.02-.09,3.49-.82,4.58-1.45-.33-2.31-.72-4.44-1.09-5.85h-.01Z"/>
    <path class="cls-27" d="m159.91,68.27s-3.71.51-6.72,5.27c-3,4.76-5.19,10.26-5.19,10.26l-.1.62c-.27,1.62-1.99,2.54-3.49,1.88-3.17-1.41-7.86-3.55-8.74-4.2,0,0-2.81,1.55-3.57,5.22-.61,2.92-.46,2.93-.46,2.93,0,0,12.51,5.84,17.34,5.78s10.96-15.94,11.63-19.22,1.42-7.61-.71-8.54h.01Z"/>
    <path class="cls-32" d="m159.91,68.27s-3.71.51-6.72,5.27c-3,4.76-5.19,10.26-5.19,10.26l-.1.62c-.27,1.62-1.99,2.54-3.49,1.88-3.17-1.41-7.86-3.55-8.74-4.2,0,0-2.81,1.55-3.57,5.22-.61,2.92-.46,2.93-.46,2.93,0,0,12.51,5.84,17.34,5.78s10.96-15.94,11.63-19.22,1.42-7.61-.71-8.54h.01Z"/>
    <path class="cls-60" d="m146.21,87.03s1.58,1.48,2.26.67.48-.9.48-.9c0,0,1.42-.01,1.59-.9s.87-.42.91-1.41c.04-.99-1.15-.79-1.15-.79l-4.1,3.33h.01Z"/>
    <path class="cls-63" d="m144.3,86.25s.43-.4.99-.88c.56-.47,1.46-2.43,1.62-2.61.15-.17,2.04-1.62,2.95-1.65s.23.99.02,1.14c-.21.14-1.1.59-1.1.59,0,0-.91.77-1.02.88-.1.11,2.54-.18,2.96.08.42.26.32.93.03,1.12-.3.18-.52.18-.52.18,0,0,.3.8-.5,1.16-.79.37-.98.16-.98.16,0,0-.07,1.37-1.38,1.1l-3.08-1.28h.01Z"/>
    <path class="cls-56" d="m135.98,47.78s-1.18,3.75,1.92,2.68c3.1-1.07,5.9-2.85,6.87-2.17.74.52.71,2.1.65,2.83-.02.25.05.49.19.7l.92,1.33c.1.15.17.33.18.51l.07.93c.02.23.2.42.44.43h.21c.24.03.44-.14.49-.37l.24-1.36s.73-1.83,2.27-1.11c0,0,1.03-1.38.69-4.35-.34-2.96-1.67-6.04-7.48-6.53-5.81-.49-7.64,6.49-7.64,6.49h-.02Z"/>
    <path class="cls-80" d="m144.86,67.4l-.87-.67s-.8.67-1.12,1.38c-.31.71,0,2.96,0,2.96l-.27.46-.33-.6-.28-2.66s.3-1.97.32-2.02c.03-.05,1.68.18,1.68.18,0,0,.57.44.85.98h.02Z"/>
    <path class="cls-80" d="m140.68,64.75s-.93.06-1.35.41c0,0,.97.05,1.13.07.15.02.22-.47.22-.47h0Z"/>
    <path class="cls-27" d="m142.45,64.96l1.56,1.46s-1.37.63-1.75,1.85c0,0-1.7.32-1.85-.3-.15-.61,0-2.16-.2-2.85-.2-.69,2.24-.16,2.24-.16Z"/>
    <path class="cls-27" d="m140.47,67.94s-.29,1.28-.61,1.8c-.32.53-.64,1.12-.64,1.12l.04,7.48s2.75-5.67,3.35-6.82c0,0-.09-2.73-.35-3.25-.26-.52-1.79-.33-1.79-.33Z"/>
    <path class="cls-29" d="m147.85,56.88c-1.81,5.22-6.89,6.76-6.89,6.76,0,0,.91.88,1.19.93s1.1-.47,1.1-.47c0,0,3.88-.94,5-2.59s.69-3.34.69-3.34l.15-1.11c-.81.26-1.25-.18-1.25-.18h0Z"/>
    <path class="cls-27" d="m151.99,62.99s-.71,2.46-.81,2.55c-.09.09-1.79-.1-1.79-.1l.83,1.56s-8.56,9.18-10.33,14.12c0,0,4.05-6.26,11.18-13.73l-1.01-1.53,1.75.34.19-3.21h-.01Z"/>
    <path class="cls-27" d="m137.93,60.81l-.45.52.53.5-1.58,1.43s-.48,10.04,1.45,16.69c0,0-2.62-6.1-2.03-16.97l1.71-1.16-.56-.55s.93-.46.93-.46Z"/>
    <path class="cls-23" d="m143.32,116.22s.02.01.06.05l-2.22-2.36c1.02,1.44-.16,8.05-.28,9.57s1.18,4.64,1.67,8.3c.49,3.66-.51,8.88-.52,8.89.63-.37,1.14-.98,1.35-1.93.76-3.42.47-9.82-.37-12.49-.83-2.67.3-10.03.3-10.03h0Z"/>
    <path class="cls-75" d="m148.98,96.03c4.83-.06,10.96-15.94,11.63-19.22.11-.55.23-1.13.33-1.71-.02.05-1.27,3.48-2.48,6.52-1.22,3.06-7.67,12.34-10.97,12.94-2.97.55-13.67-4.45-15.75-5.44-.19,1.11-.11,1.13-.11,1.13,0,0,12.51,5.84,17.34,5.78h0Z"/>
    <path class="cls-44" d="m147.42,55.04c.24,0,.44-.15.49-.38l.24-1.36s.73-1.83,2.27-1.11c0,0,.97-1.32.71-4.11-1.71,2.57-5.51,3.76-5.51,3.76l.92,1.33c.1.15.17.33.18.51l.07.93c.02.23.2.42.44.43h.21-.02Z"/>
  </g>
  <g>
    <g class="cls-45">
      <path class="cls-62" d="m350.27,206.14v-6.05l-1.67-.93c-.47,2.86-3.83,4.74-6.64,5.13l-19.13,11.19-8.35,3.02-26.65-13.75.62-.36c-2.28-1.06-3.5-3.5-4.74-5.72l-1.79,1.07-1.07.3v6.2h0c0,1.19.78,2.37,2.34,3.27l26.7,15.42c3.13,1.8,8.21,1.8,11.34,0l26.7-15.42c1.54-.89,2.32-2.05,2.34-3.22v-.16h0Z"/>
      <path class="cls-16" d="m341.95,204.29l-19.13,11.19-7.27,2.62v8.18c2.05,0,4.11-.45,5.67-1.35l26.7-15.42c1.54-.89,2.32-2.05,2.34-3.22v-.16h0v-6.05l-1.53-.85h-.16c-.52,2.81-3.84,4.66-6.63,5.05h0Z"/>
      <path class="cls-1" d="m309.88,218.78l-26.7-15.42c-3.13-1.81-3.13-4.74,0-6.55l26.7-15.42c3.13-1.8,8.21-1.8,11.34,0l26.7,15.42c3.13,1.81,3.13,4.74,0,6.55l-26.7,15.42c-3.13,1.8-8.21,1.8-11.34,0Z"/>
      <g class="cls-45">
        <path class="cls-20" d="m309.88,218.78l-26.7-15.42c-3.13-1.81-3.13-4.74,0-6.55l26.7-15.42c3.13-1.8,8.21-1.8,11.34,0l26.7,15.42c3.13,1.81,3.13,4.74,0,6.55l-26.7,15.42c-3.13,1.8-8.21,1.8-11.34,0Z"/>
      </g>
    </g>
    <g>
      <path class="cls-46" d="m315.55,199.3c-1.82,0-3.65-.4-5.03-1.2l-26.7-15.42c-1.39-.8-2.15-1.88-2.15-3.04s.76-2.24,2.15-3.04l26.7-15.42c2.78-1.6,7.29-1.6,10.07,0l26.7,15.42c1.39.8,2.15,1.88,2.15,3.04s-.76,2.24-2.15,3.04l-26.7,15.42c-1.39.8-3.21,1.2-5.03,1.2h-.01Zm-4.8-1.61c2.65,1.52,6.95,1.53,9.6,0l26.7-15.42c1.24-.71,1.92-1.65,1.92-2.63s-.68-1.92-1.92-2.64l-26.7-15.42c-2.65-1.53-6.95-1.53-9.6,0l-26.7,15.42c-1.24.71-1.92,1.65-1.92,2.64s.68,1.92,1.92,2.64l26.7,15.42h0Z"/>
      <g>
        <path class="cls-15" d="m350.27,173.72v-9.14l-1.67-.93c-.47,2.86-3.83,4.74-6.64,5.13l-19.13,11.19-8.35,3.02-26.65-13.75.62-.36c-2.28-1.06-3.5-3.5-4.74-5.72l-1.79,1.07-1.07.3v9.3h0c0,1.19.78,2.37,2.34,3.27l26.7,15.42c3.13,1.8,8.21,1.81,11.34,0l26.7-15.42c1.54-.89,2.32-2.05,2.34-3.22v-.16h0Z"/>
        <g>
          <path class="cls-22" d="m350.27,165.6v-6.05l-1.67-.93c-.47,2.86-3.83,4.74-6.64,5.13l-19.13,11.19-8.35,3.02-26.65-13.75.62-.36c-2.28-1.06-3.5-3.5-4.74-5.72l-1.79,1.07-1.07.3v6.2h0c0,1.19.78,2.37,2.34,3.27l26.7,15.42c3.13,1.8,8.21,1.81,11.34,0l26.7-15.42c1.54-.89,2.32-2.05,2.34-3.22v-.16h0Z"/>
          <path class="cls-16" d="m341.95,163.74l-19.13,11.19-7.27,2.62v8.18c2.05,0,4.11-.45,5.67-1.35l26.7-15.42c1.54-.89,2.32-2.05,2.34-3.22v-.16h0v-6.05l-1.53-.85h-.16c-.52,2.81-3.84,4.66-6.63,5.05h0Z"/>
          <path class="cls-71" d="m309.88,178.23l-26.7-15.42c-3.13-1.81-3.13-4.74,0-6.55l26.7-15.42c3.13-1.8,8.21-1.8,11.34,0l26.7,15.42c3.13,1.8,3.13,4.74,0,6.55l-26.7,15.42c-3.13,1.81-8.21,1.81-11.34,0Z"/>
          <path class="cls-73" d="m315.55,174.98c-1.6,0-3.21-.35-4.43-1.06l-20.2-11.66c-1.23-.71-1.91-1.67-1.91-2.71s.68-2,1.91-2.71l20.2-11.66c2.44-1.41,6.41-1.41,8.85,0l20.2,11.66c1.23.71,1.91,1.67,1.91,2.71s-.68,2-1.91,2.71l-20.2,11.66c-1.22.7-2.82,1.06-4.42,1.06Zm0-30.33c-1.5,0-3.01.33-4.15.99l-20.2,11.66c-1.06.61-1.64,1.41-1.64,2.24s.58,1.63,1.64,2.24l20.2,11.66c2.29,1.32,6.02,1.32,8.31,0l20.2-11.66c1.06-.61,1.64-1.41,1.64-2.24s-.58-1.63-1.64-2.24l-20.2-11.66c-1.15-.66-2.65-.99-4.16-.99Z"/>
          <path class="cls-2" d="m347.92,162.82l-26.7,15.42c-3.13,1.81-8.21,1.81-11.34,0l-26.7-15.42c-1.4-.81-2.17-1.84-2.32-2.9-.18,1.31.59,2.65,2.32,3.65l26.7,15.42c3.13,1.8,8.21,1.8,11.34,0l26.7-15.42c1.73-1,2.5-2.34,2.32-3.65-.15,1.06-.92,2.09-2.32,2.9Z"/>
        </g>
      </g>
    </g>
  </g>
  <g>
    <path class="cls-7" d="m304.36,96.2l-14.98,8.65c-4.5,2.6-8.51,1.63-9.99-2.43l-29.63-80.96c-3.38-9.25-17.21-.89-20.14,12.17l-18.24,81.48c-1.33,5.95-5.46,11.89-10.14,14.6l-4.36,2.52c-4.23,2.44-8.06,1.74-9.73-1.79l-6.04-12.79c-3.74-7.93-16.21-.45-19.61,11.76h0c-1.57,5.63-5.5,11.02-9.88,13.55l-3.81,2.2c-4.62,2.66-8.7,1.57-10.09-2.71l-5.5-16.9c-3.1-9.54-16.97-1.6-20.15,11.54l-18.26,75.43c-1.43,5.93-5.58,11.75-10.22,14.35l-21.08,11.8,241.85-142.47h0Z"/>
    <g>
      <path class="cls-46" d="m81.61,246.41l-.25-.44,18.1-10.13c4.61-2.58,8.67-8.28,10.1-14.18l18.26-75.43c2.24-9.27,9.51-15.72,14.88-15.93,2.78-.12,4.8,1.45,5.75,4.37l5.5,16.9c.59,1.81,1.68,3.06,3.17,3.63,1.83.7,4.16.32,6.55-1.06l3.81-2.2c4.3-2.48,8.23-7.87,9.77-13.4,2.46-8.84,9.36-14.77,14.33-15.19,2.58-.21,4.61.99,5.75,3.39l6.04,12.79c.68,1.44,1.76,2.42,3.11,2.85,1.77.55,4,.14,6.26-1.17l4.36-2.52c4.59-2.65,8.72-8.59,10.03-14.44l18.24-81.48c2.05-9.15,9.43-15.92,14.77-16.27,2.76-.17,4.82,1.27,5.85,4.07l29.63,80.96c.62,1.69,1.71,2.86,3.16,3.39,1.81.66,4.11.27,6.47-1.09l11.69-6.75.25.44-11.69,6.75c-2.49,1.44-4.94,1.84-6.9,1.13-1.59-.58-2.79-1.85-3.46-3.69l-29.63-80.96c-.96-2.61-2.79-3.89-5.34-3.74-5.16.34-12.31,6.94-14.31,15.88l-18.24,81.48c-1.36,6.07-5.48,12-10.26,14.76l-4.36,2.52c-2.39,1.38-4.75,1.81-6.66,1.21-1.5-.47-2.68-1.54-3.42-3.11l-6.04-12.79c-1.05-2.23-2.86-3.29-5.25-3.1-4.81.41-11.49,6.19-13.89,14.83-1.57,5.65-5.59,11.16-10,13.7l-3.81,2.2c-2.53,1.46-5.02,1.85-6.99,1.1-1.63-.63-2.83-1.99-3.47-3.95l-5.5-16.9c-.89-2.73-2.71-4.14-5.26-4.02-5.09.2-12.26,6.63-14.41,15.55l-18.26,75.43c-1.46,6.03-5.62,11.86-10.35,14.5l-18.1,10.13.02-.02Z"/>
      <rect class="cls-46" x="254.97" y="13.51" width=".5" height="18.6" transform="translate(108.26 232.72) rotate(-60.11)"/>
      <polygon class="cls-46" points="195.14 124.74 178.82 115.34 179.07 114.9 195.39 124.31 195.14 124.74"/>
      <rect class="cls-46" x="137.33" y="116.84" width=".5" height="19.61" transform="translate(-40.74 182.93) rotate(-60.15)"/>
      <path class="cls-46" d="m140.01,281.24c-1.52,0-3.05-.38-4.42-1.16l-54.49-30.51c-.63-.35-1.01-1-1.01-1.72s.38-1.37,1.01-1.72l18.37-10.29c4.62-2.59,8.68-8.29,10.11-14.2l18.26-75.43c1.21-5.02,3.9-9.21,6.95-12.03l-2.79-8.59c-.89-2.74-2.73-4.12-5.27-4.03-5.09.2-12.27,6.63-14.43,15.56l-18.26,75.43c-1.46,6.02-5.61,11.85-10.34,14.5l-47.15,26.44-.23-.41,47.15-26.44c4.62-2.59,8.68-8.29,10.11-14.2l18.26-75.43c2.24-9.27,9.5-15.71,14.87-15.92,2.77-.12,4.79,1.44,5.74,4.36l2.73,8.39c2.49-2.18,5.19-3.46,7.53-3.55,2.76-.11,4.79,1.44,5.74,4.36l2.7,8.3.36-.21c4.3-2.48,8.23-7.88,9.77-13.41,2.46-8.83,9.35-14.76,14.32-15.18,2.58-.21,4.6.98,5.73,3.38l4.05,8.59c2.11-1.64,4.31-2.61,6.22-2.77,2.55-.22,4.6.98,5.73,3.38l1.84,3.9,1.96-1.13c4.6-2.65,8.72-8.59,10.03-14.45l18.24-81.48c2.05-9.15,9.42-15.91,14.76-16.26,2.73-.2,4.8,1.26,5.83,4.06l3.11,8.5c2.36-2.01,4.88-3.22,7.06-3.36,2.72-.18,4.81,1.26,5.83,4.06l26.44,72.25,10.13-5.85c1.12-.65,2.51-.65,3.64,0l11.12,6.39c.74.42,1.18,1.18,1.18,2.03s-.44,1.61-1.17,2.03l-11.81,6.82c-2.49,1.44-4.94,1.84-6.88,1.13-1.59-.58-2.78-1.85-3.45-3.68l-3-8.19-2.67,1.54c-2.49,1.44-4.93,1.84-6.88,1.13-1.58-.58-2.78-1.85-3.45-3.68l-26.29-71.83c-3.13,2.85-5.9,7.16-7.03,12.21l-18.24,81.48c-1.36,6.06-5.48,11.99-10.26,14.75l-4.36,2.52c-2.38,1.38-4.75,1.81-6.65,1.21-1.49-.47-2.67-1.54-3.41-3.1l-3.98-8.43-1.96,1.13c-2.38,1.37-4.75,1.8-6.65,1.21-1.49-.47-2.67-1.54-3.41-3.1l-1.74-3.68c-3.14,2.59-6.05,6.7-7.48,11.8-1.57,5.65-5.59,11.15-9.99,13.69l-3.81,2.2c-2.53,1.46-5.01,1.85-6.97,1.1-1.63-.62-2.82-1.99-3.46-3.94l-2.62-8.05-2.95,1.7c-2.53,1.46-5.01,1.85-6.97,1.1-1.63-.62-2.82-1.99-3.46-3.94l-2.53-7.78c-2.93,2.78-5.52,6.83-6.67,11.6l-18.26,75.43c-1.46,6.02-5.61,11.85-10.34,14.49l-18.37,10.29c-.48.27-.77.76-.77,1.31s.29,1.04.77,1.31l54.49,30.51c2.66,1.5,5.93,1.46,8.55-.1l96.11-56.62.24.4-96.11,56.62c-1.41.84-3.01,1.26-4.6,1.26h0Zm11.28-137.82l2.65,8.15c.59,1.81,1.69,3.07,3.18,3.64,1.83.7,4.17.33,6.57-1.07l3.81-2.2c4.3-2.49,8.23-7.88,9.77-13.41,1.46-5.24,4.47-9.46,7.73-12.11l-4.1-8.69c-1.06-2.24-2.87-3.31-5.27-3.11-4.82.41-11.5,6.2-13.91,14.84-1.57,5.65-5.59,11.15-9.99,13.69l-.45.26h.01Zm-15.94-9.03l2.6,7.99c.59,1.81,1.69,3.07,3.18,3.64,1.83.71,4.16.32,6.57-1.06l3.03-1.75-2.73-8.39c-.89-2.74-2.71-4.1-5.27-4.03-2.26.09-4.92,1.4-7.38,3.61h0Zm64.01-3.33l4,8.47c.68,1.44,1.76,2.43,3.12,2.86,1.78.56,4.01.14,6.27-1.17l4.36-2.52c4.6-2.65,8.72-8.6,10.03-14.45l18.24-81.48c1.17-5.21,4.06-9.65,7.32-12.57l-3.17-8.67c-.96-2.62-2.8-3.91-5.36-3.75-5.17.34-12.33,6.95-14.33,15.89l-18.24,81.48c-1.36,6.07-5.48,11.99-10.26,14.75l-1.99,1.15h0Zm-13.79-4.51l1.78,3.78c.68,1.44,1.76,2.43,3.12,2.86,1.78.56,4.01.14,6.27-1.17l2-1.15-1.86-3.93c-1.06-2.24-2.87-3.32-5.27-3.11-1.86.16-3.99,1.12-6.06,2.73h.02Zm107-23.29l3.02,8.27c.62,1.7,1.72,2.87,3.17,3.4,1.82.66,4.12.27,6.49-1.1l11.81-6.82c.59-.34.94-.95.94-1.63s-.35-1.29-.94-1.63l-11.12-6.39c-.98-.56-2.19-.56-3.17,0l-10.2,5.89h0Zm-39.32-72.93l26.35,72c.62,1.7,1.72,2.87,3.17,3.4,1.82.66,4.12.27,6.49-1.1l2.74-1.58-26.47-72.32c-.96-2.62-2.83-3.92-5.36-3.75-2.14.14-4.61,1.35-6.92,3.35h0Z"/>
    </g>
    <path class="cls-17" d="m317.06,107.06l-11.69,6.75c-4.5,2.6-8.51,1.63-9.99-2.43l-29.63-80.96c-3.38-9.25-17.21-.89-20.14,12.17l-18.24,81.48c-1.33,5.95-5.46,11.89-10.14,14.6l-4.36,2.52c-4.23,2.44-8.06,1.74-9.73-1.79l-6.04-12.79c-3.74-7.93-16.21-.45-19.61,11.76h0c-1.57,5.63-5.5,11.02-9.88,13.55l-3.81,2.2c-4.62,2.66-8.7,1.57-10.09-2.71l-5.5-16.9c-3.1-9.54-16.97-1.6-20.15,11.54l-18.26,75.43c-1.43,5.93-5.58,11.75-10.22,14.35l-21.08,11.8,238.55-140.56h0Z"/>
  </g>
  <g class="cls-45">
    <path class="cls-21" d="m293.41,237.99v-6.06l-1.68-.93c-.47,2.86-3.84,4.74-6.65,5.13l-19.15,11.2-8.36,3.02-26.68-13.77.62-.36c-2.28-1.07-3.51-3.5-4.74-5.73l-1.8,1.07-1.07.3v6.21h0c0,1.19.78,2.37,2.35,3.28l26.73,15.43c3.13,1.81,8.22,1.81,11.35,0l26.73-15.43c1.54-.89,2.32-2.05,2.35-3.22v-.16h0v.02Z"/>
    <path class="cls-16" d="m285.09,236.13l-19.15,11.2-7.28,2.63v8.19c2.06,0,4.11-.45,5.68-1.36l26.73-15.43c1.54-.89,2.32-2.05,2.35-3.22v-.16h0v-6.06l-1.53-.85h-.16c-.52,2.81-3.85,4.67-6.63,5.05h-.01Z"/>
    <path class="cls-74" d="m252.98,250.64l-26.73-15.43c-3.13-1.81-3.13-4.75,0-6.55l26.73-15.43c3.13-1.81,8.22-1.81,11.35,0l26.73,15.43c3.13,1.81,3.13,4.75,0,6.55l-26.73,15.43c-3.13,1.81-8.22,1.81-11.35,0h0Z"/>
    <g class="cls-45">
      <path class="cls-20" d="m252.98,250.64l-26.73-15.43c-3.13-1.81-3.13-4.75,0-6.55l26.73-15.43c3.13-1.81,8.22-1.81,11.35,0l26.73,15.43c3.13,1.81,3.13,4.75,0,6.55l-26.73,15.43c-3.13,1.81-8.22,1.81-11.35,0h0Z"/>
    </g>
  </g>
  <g>
    <path class="cls-46" d="m258.66,232.15c-1.82,0-3.65-.4-5.04-1.2l-26.73-15.43c-1.39-.8-2.15-1.88-2.15-3.04s.76-2.24,2.15-3.04l26.73-15.43c2.78-1.6,7.3-1.6,10.08,0l26.73,15.43c1.39.8,2.15,1.88,2.15,3.04s-.76,2.24-2.15,3.04l-26.73,15.43c-1.39.8-3.21,1.2-5.04,1.2h0Zm-4.8-1.61c2.65,1.53,6.96,1.53,9.61,0l26.73-15.43c1.24-.71,1.92-1.65,1.92-2.64s-.68-1.92-1.92-2.64l-26.73-15.43c-2.65-1.53-6.96-1.53-9.61,0l-26.73,15.43c-1.24.71-1.92,1.65-1.92,2.64s.68,1.92,1.92,2.64l26.73,15.43h0Z"/>
    <g>
      <path class="cls-15" d="m293.41,206.54v-9.15l-1.68-.93c-.47,2.86-3.84,4.74-6.65,5.13l-19.15,11.2-8.36,3.02-26.68-13.77.62-.36c-2.28-1.07-3.51-3.5-4.74-5.73l-1.8,1.07-1.07.3v9.31h0c0,1.19.78,2.37,2.35,3.28l26.73,15.43c3.13,1.81,8.22,1.81,11.35,0l26.73-15.43c1.54-.89,2.32-2.05,2.35-3.22v-.16h0Z"/>
      <g>
        <g>
          <path class="cls-42" d="m293.41,198.41v-6.06l-1.68-.93c-.47,2.86-3.84,4.74-6.65,5.13l-19.15,11.2-8.36,3.02-26.68-13.77.62-.36c-2.28-1.07-3.51-3.5-4.74-5.73l-1.8,1.07-1.07.3v6.21h0c0,1.19.78,2.37,2.35,3.28l26.73,15.43c3.13,1.81,8.22,1.81,11.35,0l26.73-15.43c1.54-.89,2.32-2.05,2.35-3.22v-.16h0v.02Z"/>
          <path class="cls-16" d="m285.09,196.55l-19.15,11.2-7.28,2.63v8.19c2.06,0,4.11-.45,5.68-1.36l26.73-15.43c1.54-.89,2.32-2.05,2.35-3.22v-.16h0v-6.06l-1.53-.85h-.16c-.52,2.81-3.85,4.67-6.63,5.05h-.01Z"/>
          <path class="cls-81" d="m231.51,196.65l25.33-14.63c1-.58,2.63-.58,3.64,0l24.89,14.37-.28.16c2.81-.39,6.18-2.27,6.65-5.13l-27.93-15.54-8.13-2.15-6.62,3.89-22.29,13.3c1.23,2.22,2.46,4.66,4.74,5.73Z"/>
          <path class="cls-16" d="m258.66,174.52l-2.98-.79-6.62,3.89-22.29,13.3c1.23,2.22,2.46,4.66,4.74,5.73l25.33-14.63c.5-.29,1.16-.43,1.82-.43v-7.06h0Z"/>
          <path class="cls-72" d="m252.98,211.06l-26.73-15.43c-3.13-1.81-3.13-4.75,0-6.55l26.73-15.43c3.13-1.81,8.22-1.81,11.35,0l26.73,15.43c3.13,1.81,3.13,4.75,0,6.55l-26.73,15.43c-3.13,1.81-8.22,1.81-11.35,0h0Zm7.49-35.19c-1-.58-2.63-.58-3.64,0l-26.73,15.43c-1,.58-1,1.52,0,2.1l26.73,15.43c1,.58,2.63.58,3.64,0l26.73-15.43c1-.58,1-1.52,0-2.1l-26.73-15.43Z"/>
          <g>
            <path class="cls-2" d="m287.21,191.3l-26.73-15.43c-1-.58-2.63-.58-3.64,0l-26.73,15.43c-.67.39-.89.93-.67,1.43.11-.25.33-.48.67-.67l26.73-15.43c1-.58,2.63-.58,3.64,0l26.73,15.43c.33.19.55.43.67.67.22-.49,0-1.04-.67-1.43h0Z"/>
            <path class="cls-2" d="m291.07,195.63l-26.73,15.43c-3.13,1.81-8.22,1.81-11.35,0l-26.73-15.43c-1.4-.81-2.17-1.84-2.32-2.9-.18,1.31.59,2.66,2.32,3.65l26.73,15.43c3.13,1.81,8.22,1.81,11.35,0l26.73-15.43c1.73-1,2.5-2.35,2.32-3.65-.15,1.06-.92,2.09-2.32,2.9Z"/>
          </g>
          <path class="cls-51" d="m253.74,210.62l-26.73-15.43c-2.71-1.57-2.71-4.12,0-5.68l26.73-15.43c2.71-1.57,7.13-1.57,9.84,0l26.73,15.43c2.71,1.57,2.71,4.12,0,5.68l-26.73,15.43c-2.71,1.57-7.13,1.57-9.84,0h0Zm7.49-35.19c-1.42-.82-3.73-.82-5.14,0l-26.73,15.43c-1.42.82-1.42,2.15,0,2.97l26.73,15.43c1.42.82,3.73.82,5.15,0l26.73-15.43c1.42-.82,1.42-2.15,0-2.97l-26.73-15.43h0Z"/>
        </g>
        <path class="cls-15" d="m260.48,175.87c-1-.58-2.63-.58-3.64,0l-26.73,15.43c-1,.58-1,1.52,0,2.1l26.73,15.43c1,.58,2.63.58,3.64,0l26.73-15.43c1-.58,1-1.52,0-2.1l-26.73-15.43Z"/>
      </g>
    </g>
  </g>
  <g>
    <path class="cls-78" d="m231.04,162.09c-2.85,2.91-10.35,6.8-12.68,4.52s1.41-9.86,4.26-12.77c2.85-2.91,7.04-3.42,9.37-1.14s1.9,6.48-.95,9.39h0Z"/>
    <path class="cls-61" d="m231.04,162.09c-2.85,2.91-10.35,6.8-12.68,4.52s1.41-9.86,4.26-12.77c2.85-2.91,7.04-3.42,9.37-1.14s1.9,6.48-.95,9.39h0Z"/>
    <path class="cls-46" d="m231.38,154.19c-.18,0-.35-.03-.53-.11-.7-.29-1.03-1.09-.73-1.79l4.23-10.11c.29-.7,1.09-1.03,1.79-.73.7.29,1.03,1.09.73,1.79l-4.23,10.11c-.22.53-.73.84-1.26.84Z"/>
    <rect class="cls-46" x="286.88" y="150.17" width="2.74" height="23.38" transform="translate(-39.67 119.94) rotate(-22.03)"/>
    <g>
      <path class="cls-58" d="m246.75,139.19c-.91,4.61-5.39,7.61-10,6.69-4.61-.91-7.61-5.39-6.69-10,.91-4.61,5.39-7.61,10-6.69,4.61.91,7.61,5.39,6.69,10Z"/>
      <path class="cls-54" d="m242.97,130.36c3.96,2.52,5.13,7.78,2.61,11.75-2.52,3.96-7.78,5.13-11.75,2.61-3.96-2.52-5.13-7.78-2.61-11.75,2.52-3.96,7.78-5.13,11.75-2.61Z"/>
      <path class="cls-30" d="m280.84,152.98c0,16.52-9.84,29.91-21.97,29.91s-21.97-13.39-21.97-29.91,9.84-21.47,21.97-21.47,21.97,4.95,21.97,21.47Z"/>
      <path class="cls-48" d="m280.84,152.98c0,16.52-9.84,29.91-21.97,29.91s-21.97-13.39-21.97-29.91,9.84-21.47,21.97-21.47,21.97,4.95,21.97,21.47Z"/>
      <path class="cls-26" d="m269.47,146.52c-5.86,3.38-15.35,3.38-21.2,0-5.86-3.38-5.86-8.86,0-12.24s15.35-3.38,21.2,0c5.86,3.38,5.86,8.86,0,12.24Z"/>
      <path class="cls-46" d="m248.26,136.58c5.86-3.38,15.35-3.38,21.2,0,2.42,1.4,3.84,3.15,4.26,4.97.6-2.58-.82-5.29-4.26-7.27-5.86-3.38-15.35-3.38-21.2,0-3.44,1.98-4.85,4.69-4.26,7.27.42-1.82,1.84-3.57,4.26-4.97Z"/>
      <path class="cls-18" d="m252.33,108.41c0,4.03-2.83,8.94-6.32,10.95-3.49,2.02-6.32.38-6.32-3.65s2.83-8.94,6.32-10.95c3.49-2.02,6.32-.38,6.32,3.65Z"/>
      <circle class="cls-47" cx="259.74" cy="119.74" r="22.41"/>
      <circle class="cls-41" cx="259.74" cy="119.74" r="22.41"/>
      <g>
        <path class="cls-26" d="m252.75,130.35c-.57,4.41-3.9,5.79-7.43,3.09s-5.93-8.46-5.36-12.87c.57-4.41,3.9-5.79,7.43-3.09,3.53,2.7,5.93,8.46,5.36,12.87Z"/>
        <path class="cls-46" d="m249.83,126.53c-.21,1.6-1.42,2.1-2.7,1.12s-2.15-3.07-1.95-4.68c.21-1.6,1.42-2.1,2.7-1.12s2.15,3.07,1.95,4.68Z"/>
        <path class="cls-60" d="m247.01,132.8c-3.53-2.7-5.93-8.46-5.36-12.87.23-1.8.92-3.09,1.9-3.81-1.85.17-3.24,1.74-3.6,4.45-.57,4.41,1.83,10.17,5.36,12.87,2.09,1.6,4.11,1.76,5.53.72-1.15.11-2.48-.32-3.83-1.36h0Z"/>
        <path class="cls-46" d="m245.62,133.3c-3.53-2.7-5.93-8.46-5.36-12.87.27-2.04,1.12-3.43,2.31-4.07-1.35.56-2.33,2-2.62,4.21-.57,4.41,1.83,10.17,5.36,12.87,1.9,1.45,3.73,1.72,5.11.98-1.34.55-3.05.23-4.81-1.12h0Z"/>
      </g>
      <path class="cls-34" d="m292.21,152.66c-.91,4.61-5.39,7.61-10,6.69-4.61-.91-7.61-5.39-6.69-10,.91-4.61,5.39-7.61,10-6.69,4.61.91,7.61,5.39,6.69,10Z"/>
      <path class="cls-39" d="m292.21,152.66c-.91,4.61-5.39,7.61-10,6.69-4.61-.91-7.61-5.39-6.69-10,.91-4.61,5.39-7.61,10-6.69,4.61.91,7.61,5.39,6.69,10Z"/>
    </g>
    <path class="cls-24" d="m297.44,179.2c-.48,4.04-4.05,11.7-7.29,11.32-3.23-.39-4.9-8.67-4.42-12.71.48-4.04,3.49-7.01,6.73-6.62,3.23.39,5.46,3.98,4.98,8.02h0Z"/>
    <path class="cls-76" d="m297.44,179.2c-.48,4.04-4.05,11.7-7.29,11.32-3.23-.39-4.9-8.67-4.42-12.71.48-4.04,3.49-7.01,6.73-6.62,3.23.39,5.46,3.98,4.98,8.02h0Z"/>
  </g>
  <g>
    <g class="cls-45">
      <path class="cls-19" d="m350.27,272.22v-6.05l-1.67-.93c-.47,2.86-3.83,4.74-6.64,5.13l-19.13,11.19-8.35,3.02-26.65-13.75.62-.36c-2.28-1.06-3.5-3.5-4.74-5.72l-1.79,1.07-1.07.3v6.2h0c0,1.19.78,2.37,2.34,3.27l26.7,15.42c3.13,1.8,8.21,1.8,11.34,0l26.7-15.42c1.54-.89,2.32-2.05,2.34-3.22v-.16h0Z"/>
      <path class="cls-16" d="m341.95,270.37l-19.13,11.19-7.27,2.62v8.18c2.05,0,4.11-.45,5.67-1.35l26.7-15.42c1.54-.89,2.32-2.05,2.34-3.22v-.16h0v-6.05l-1.53-.85h-.16c-.52,2.81-3.84,4.66-6.63,5.05h0Z"/>
      <path class="cls-37" d="m309.88,284.86l-26.7-15.42c-3.13-1.81-3.13-4.74,0-6.55l26.7-15.42c3.13-1.8,8.21-1.8,11.34,0l26.7,15.42c3.13,1.8,3.13,4.74,0,6.55l-26.7,15.42c-3.13,1.8-8.21,1.8-11.34,0Z"/>
      <g class="cls-45">
        <path class="cls-20" d="m309.88,284.86l-26.7-15.42c-3.13-1.81-3.13-4.74,0-6.55l26.7-15.42c3.13-1.8,8.21-1.8,11.34,0l26.7,15.42c3.13,1.8,3.13,4.74,0,6.55l-26.7,15.42c-3.13,1.8-8.21,1.8-11.34,0Z"/>
      </g>
    </g>
    <g>
      <path class="cls-46" d="m315.55,265.38c-1.82,0-3.65-.4-5.03-1.2l-26.7-15.42c-1.39-.8-2.15-1.88-2.15-3.04s.76-2.24,2.15-3.04l26.7-15.42c2.78-1.6,7.29-1.6,10.07,0l26.7,15.42c1.39.8,2.15,1.88,2.15,3.04s-.76,2.24-2.15,3.04l-26.7,15.42c-1.39.8-3.21,1.2-5.03,1.2h-.01Zm0-38.85c-1.74,0-3.48.38-4.8,1.14l-26.7,15.42c-1.24.71-1.92,1.65-1.92,2.64s.68,1.92,1.92,2.64l26.7,15.42c2.65,1.53,6.95,1.53,9.6,0l26.7-15.42c1.24-.71,1.92-1.65,1.92-2.64s-.68-1.92-1.92-2.64l-26.7-15.42c-1.32-.76-3.06-1.14-4.8-1.14h0Z"/>
      <g>
        <path class="cls-15" d="m350.27,239.8v-9.14l-1.67-.93c-.47,2.86-3.83,4.74-6.64,5.13l-19.13,11.19-8.35,3.02-26.65-13.75.62-.36c-2.28-1.06-3.5-3.5-4.74-5.72l-1.79,1.07-1.07.3v9.3h0c0,1.19.78,2.37,2.34,3.27l26.7,15.42c3.13,1.8,8.21,1.8,11.34,0l26.7-15.42c1.54-.89,2.32-2.05,2.34-3.22v-.16h0Z"/>
        <g>
          <path class="cls-49" d="m350.27,231.68v-6.05l-1.67-.93c-.47,2.86-3.83,4.74-6.64,5.13l-19.13,11.19-8.35,3.02-26.65-13.75.62-.36c-2.28-1.06-3.5-3.5-4.74-5.72l-1.79,1.07-1.07.3v6.2h0c0,1.19.78,2.37,2.34,3.27l26.7,15.42c3.13,1.8,8.21,1.8,11.34,0l26.7-15.42c1.54-.89,2.32-2.05,2.34-3.22v-.16h0Z"/>
          <path class="cls-16" d="m341.95,229.82l-19.13,11.19-7.27,2.62v8.18c2.05,0,4.11-.45,5.67-1.35l26.7-15.42c1.54-.89,2.32-2.05,2.34-3.22v-.16h0v-6.05l-1.53-.85h-.16c-.52,2.81-3.84,4.66-6.63,5.05h0Z"/>
          <path class="cls-69" d="m309.88,244.31l-26.7-15.42c-3.13-1.81-3.13-4.74,0-6.55l26.7-15.42c3.13-1.8,8.21-1.8,11.34,0l26.7,15.42c3.13,1.8,3.13,4.74,0,6.55l-26.7,15.42c-3.13,1.81-8.21,1.8-11.34,0Z"/>
          <path class="cls-2" d="m347.92,228.9l-26.7,15.42c-3.13,1.81-8.21,1.8-11.34,0l-26.7-15.42c-1.4-.81-2.17-1.84-2.32-2.9-.18,1.31.59,2.65,2.32,3.65l26.7,15.42c3.13,1.8,8.21,1.81,11.34,0l26.7-15.42c1.73-1,2.5-2.34,2.32-3.65-.15,1.06-.92,2.09-2.32,2.9Z"/>
        </g>
      </g>
    </g>
  </g>
</svg>