<?xml version="1.0" encoding="UTF-8"?>
<svg xmlns="http://www.w3.org/2000/svg" xmlns:xlink="http://www.w3.org/1999/xlink" viewBox="0 0 450 450">
  <defs>
    <style>
      .cls-1 {
        fill: url(#_Áåçûìÿííûé_ãğàäèåíò_17-17);
      }

      .cls-1, .cls-2, .cls-3, .cls-4, .cls-5, .cls-6, .cls-7, .cls-8, .cls-9, .cls-10, .cls-11, .cls-12, .cls-13, .cls-14, .cls-15, .cls-16, .cls-17, .cls-18, .cls-19, .cls-20, .cls-21, .cls-22, .cls-23, .cls-24, .cls-25, .cls-26, .cls-27, .cls-28, .cls-29, .cls-30, .cls-31, .cls-32, .cls-33, .cls-34, .cls-35, .cls-36, .cls-37, .cls-38, .cls-39, .cls-40, .cls-41, .cls-42, .cls-43, .cls-44, .cls-45, .cls-46, .cls-47, .cls-48, .cls-49, .cls-50, .cls-51, .cls-52, .cls-53, .cls-54, .cls-55, .cls-56, .cls-57, .cls-58, .cls-59, .cls-60, .cls-61, .cls-62, .cls-63, .cls-64, .cls-65, .cls-66, .cls-67, .cls-68, .cls-69, .cls-70, .cls-71, .cls-72, .cls-73, .cls-74, .cls-75, .cls-76, .cls-77, .cls-78, .cls-79, .cls-80, .cls-81, .cls-82, .cls-83, .cls-84, .cls-85, .cls-86, .cls-87, .cls-88, .cls-89, .cls-90, .cls-91, .cls-92, .cls-93, .cls-94, .cls-95, .cls-96, .cls-97, .cls-98, .cls-99, .cls-100, .cls-101, .cls-102, .cls-103, .cls-104, .cls-105, .cls-106, .cls-107, .cls-108, .cls-109 {
        stroke-width: 0px;
      }

      .cls-2 {
        opacity: .2;
      }

      .cls-2, .cls-55 {
        fill: #82a4cc;
      }

      .cls-2, .cls-96 {
        mix-blend-mode: multiply;
      }

      .cls-3 {
        fill: #fabc9d;
      }

      .cls-4 {
        fill: url(#_Áåçûìÿííûé_ãğàäèåíò_3-7);
      }

      .cls-5 {
        fill: url(#_Áåçûìÿííûé_ãğàäèåíò_17-13);
      }

      .cls-6 {
        fill: url(#_Áåçûìÿííûé_ãğàäèåíò_3-5);
      }

      .cls-7 {
        fill: #e4e0e7;
      }

      .cls-8 {
        fill: url(#_Áåçûìÿííûé_ãğàäèåíò_3-17);
      }

      .cls-9 {
        fill: #dfd7e2;
      }

      .cls-10 {
        fill: url(#_Áåçûìÿííûé_ãğàäèåíò_19);
        mix-blend-mode: screen;
        opacity: .5;
      }

      .cls-11 {
        fill: url(#_Áåçûìÿííûé_ãğàäèåíò_2-9);
      }

      .cls-12 {
        fill: url(#_Áåçûìÿííûé_ãğàäèåíò_17-7);
      }

      .cls-13 {
        fill: #fbbd9e;
      }

      .cls-14 {
        fill: url(#_Áåçûìÿííûé_ãğàäèåíò_17-4);
      }

      .cls-15 {
        fill: url(#_Áåçûìÿííûé_ãğàäèåíò_3-12);
      }

      .cls-16 {
        fill: url(#_Áåçûìÿííûé_ãğàäèåíò_17-15);
      }

      .cls-17 {
        fill: #d9d4d8;
      }

      .cls-18 {
        fill: url(#_Áåçûìÿííûé_ãğàäèåíò_3-35);
      }

      .cls-19 {
        fill: url(#_Áåçûìÿííûé_ãğàäèåíò_2-8);
      }

      .cls-20 {
        fill: url(#_Áåçûìÿííûé_ãğàäèåíò_2-19);
      }

      .cls-21 {
        fill: url(#_Áåçûìÿííûé_ãğàäèåíò_2-20);
      }

      .cls-22 {
        fill: url(#_Áåçûìÿííûé_ãğàäèåíò_3-27);
      }

      .cls-23 {
        fill: url(#_Áåçûìÿííûé_ãğàäèåíò_3);
      }

      .cls-24 {
        fill: #724435;
      }

      .cls-25 {
        fill: url(#_Áåçûìÿííûé_ãğàäèåíò_2-2);
      }

      .cls-26 {
        fill: url(#_Áåçûìÿííûé_ãğàäèåíò_2-15);
      }

      .cls-27 {
        fill: url(#_Áåçûìÿííûé_ãğàäèåíò_17-10);
      }

      .cls-28 {
        fill: url(#_Áåçûìÿííûé_ãğàäèåíò_2-14);
      }

      .cls-29 {
        fill: url(#_Áåçûìÿííûé_ãğàäèåíò_17-12);
      }

      .cls-110 {
        isolation: isolate;
      }

      .cls-30 {
        fill: url(#_Áåçûìÿííûé_ãğàäèåíò_3-14);
      }

      .cls-31 {
        fill: #dff9e1;
      }

      .cls-32 {
        fill: url(#_Áåçûìÿííûé_ãğàäèåíò_3-28);
      }

      .cls-33 {
        fill: url(#_Áåçûìÿííûé_ãğàäèåíò_17-18);
      }

      .cls-34 {
        fill: url(#_Áåçûìÿííûé_ãğàäèåíò_3-15);
      }

      .cls-35 {
        fill: url(#_Áåçûìÿííûé_ãğàäèåíò_3-9);
      }

      .cls-36 {
        fill: #fcbe9f;
      }

      .cls-37 {
        fill: #fdffe6;
      }

      .cls-38 {
        fill: #2f2f96;
      }

      .cls-39 {
        fill: url(#_Áåçûìÿííûé_ãğàäèåíò_17-2);
      }

      .cls-40 {
        fill: url(#_Áåçûìÿííûé_ãğàäèåíò_3-4);
      }

      .cls-41 {
        fill: none;
      }

      .cls-42 {
        fill: url(#_Áåçûìÿííûé_ãğàäèåíò_17-16);
      }

      .cls-111 {
        clip-path: url(#clippath-1);
      }

      .cls-43 {
        fill: url(#_Áåçûìÿííûé_ãğàäèåíò_3-16);
      }

      .cls-44 {
        fill: url(#_Áåçûìÿííûé_ãğàäèåíò_14);
      }

      .cls-45 {
        fill: url(#_Áåçûìÿííûé_ãğàäèåíò_2-18);
      }

      .cls-46 {
        fill: #d6d1db;
      }

      .cls-47 {
        fill: #8db2dc;
      }

      .cls-48 {
        fill: url(#_Áåçûìÿííûé_ãğàäèåíò_2-3);
      }

      .cls-49 {
        fill: url(#_Áåçûìÿííûé_ãğàäèåíò_3-18);
      }

      .cls-50 {
        fill: url(#_Áåçûìÿííûé_ãğàäèåíò_17-9);
      }

      .cls-51 {
        fill: url(#_Áåçûìÿííûé_ãğàäèåíò_3-6);
      }

      .cls-52 {
        fill: url(#_Áåçûìÿííûé_ãğàäèåíò_2-13);
      }

      .cls-53 {
        fill: url(#_Áåçûìÿííûé_ãğàäèåíò_3-32);
      }

      .cls-54 {
        fill: url(#_Áåçûìÿííûé_ãğàäèåíò_3-19);
      }

      .cls-56 {
        fill: url(#_Áåçûìÿííûé_ãğàäèåíò_3-24);
      }

      .cls-57 {
        fill: url(#_Áåçûìÿííûé_ãğàäèåíò_3-25);
      }

      .cls-58 {
        fill: url(#_Áåçûìÿííûé_ãğàäèåíò_2);
      }

      .cls-59 {
        fill: url(#_Áåçûìÿííûé_ãğàäèåíò_17-22);
      }

      .cls-60 {
        fill: url(#_Áåçûìÿííûé_ãğàäèåíò_3-11);
      }

      .cls-61 {
        fill: url(#_Áåçûìÿííûé_ãğàäèåíò_2-11);
      }

      .cls-62 {
        fill: url(#_Áåçûìÿííûé_ãğàäèåíò_2-10);
      }

      .cls-63 {
        fill: url(#_Áåçûìÿííûé_ãğàäèåíò_3-26);
      }

      .cls-64 {
        fill: url(#_Áåçûìÿííûé_ãğàäèåíò_3-22);
      }

      .cls-65 {
        fill: url(#_Áåçûìÿííûé_ãğàäèåíò_17-8);
      }

      .cls-66 {
        fill: url(#_Áåçûìÿííûé_ãğàäèåíò_17-3);
      }

      .cls-67 {
        fill: url(#_Áåçûìÿííûé_ãğàäèåíò_3-20);
      }

      .cls-68 {
        fill: url(#_Áåçûìÿííûé_ãğàäèåíò_3-33);
      }

      .cls-112 {
        clip-path: url(#clippath);
      }

      .cls-69 {
        fill: #5353dd;
      }

      .cls-70 {
        fill: url(#_Áåçûìÿííûé_ãğàäèåíò_3-29);
      }

      .cls-71 {
        fill: url(#_Áåçûìÿííûé_ãğàäèåíò_2-4);
      }

      .cls-72 {
        fill: url(#_Áåçûìÿííûé_ãğàäèåíò_2-6);
      }

      .cls-73 {
        fill: #3f52b0;
      }

      .cls-74 {
        fill: url(#_Áåçûìÿííûé_ãğàäèåíò_17-11);
      }

      .cls-75 {
        fill: url(#_Áåçûìÿííûé_ãğàäèåíò_17-20);
      }

      .cls-76 {
        fill: url(#_Áåçûìÿííûé_ãğàäèåíò_3-30);
      }

      .cls-77 {
        fill: #b5d3f7;
      }

      .cls-78 {
        fill: url(#_Áåçûìÿííûé_ãğàäèåíò_3-31);
      }

      .cls-79 {
        fill: #3c3cb9;
      }

      .cls-80 {
        fill: url(#_Áåçûìÿííûé_ãğàäèåíò_2-5);
      }

      .cls-81 {
        fill: #ada4b8;
      }

      .cls-82 {
        fill: url(#_Áåçûìÿííûé_ãğàäèåíò_2-12);
      }

      .cls-83 {
        fill: url(#_Áåçûìÿííûé_ãğàäèåíò_2-7);
      }

      .cls-84 {
        fill: url(#_Áåçûìÿííûé_ãğàäèåíò_3-3);
      }

      .cls-85 {
        fill: url(#_Áåçûìÿííûé_ãğàäèåíò_3-8);
      }

      .cls-113 {
        filter: url(#luminosity-noclip);
      }

      .cls-86 {
        fill: url(#_Áåçûìÿííûé_ãğàäèåíò_3-21);
      }

      .cls-87 {
        fill: url(#_Áåçûìÿííûé_ãğàäèåíò_2-17);
      }

      .cls-88 {
        fill: #fff;
      }

      .cls-114 {
        mask: url(#mask-1);
      }

      .cls-115 {
        mask: url(#mask);
      }

      .cls-89 {
        fill: #303084;
      }

      .cls-90 {
        fill: #c7c2cc;
      }

      .cls-91 {
        fill: url(#_Áåçûìÿííûé_ãğàäèåíò_3-10);
      }

      .cls-92 {
        fill: url(#_Áåçûìÿííûé_ãğàäèåíò_2-16);
      }

      .cls-93 {
        fill: #aea6ba;
      }

      .cls-94 {
        fill: url(#_Áåçûìÿííûé_ãğàäèåíò_17-21);
      }

      .cls-95 {
        fill: url(#_Áåçûìÿííûé_ãğàäèåíò_3-36);
      }

      .cls-96 {
        fill: url(#_Áåçûìÿííûé_ãğàäèåíò_4);
      }

      .cls-97 {
        fill: #f1a782;
      }

      .cls-98 {
        fill: #cbe3ff;
      }

      .cls-99 {
        fill: url(#_Áåçûìÿííûé_ãğàäèåíò_3-37);
      }

      .cls-100 {
        fill: url(#_Áåçûìÿííûé_ãğàäèåíò_17-14);
      }

      .cls-101 {
        fill: url(#_Áåçûìÿííûé_ãğàäèåíò_17-6);
      }

      .cls-102 {
        fill: url(#_Áåçûìÿííûé_ãğàäèåíò_17);
      }

      .cls-103 {
        fill: url(#_Áåçûìÿííûé_ãğàäèåíò_2-21);
      }

      .cls-104 {
        fill: url(#_Áåçûìÿííûé_ãğàäèåíò_3-13);
      }

      .cls-105 {
        fill: url(#_Áåçûìÿííûé_ãğàäèåíò_3-2);
      }

      .cls-106 {
        fill: url(#_Áåçûìÿííûé_ãğàäèåíò_3-34);
      }

      .cls-107 {
        fill: url(#_Áåçûìÿííûé_ãğàäèåíò_17-19);
      }

      .cls-108 {
        fill: url(#_Áåçûìÿííûé_ãğàäèåíò_17-5);
      }

      .cls-109 {
        fill: url(#_Áåçûìÿííûé_ãğàäèåíò_3-23);
      }
    </style>
    <linearGradient id="_Áåçûìÿííûé_ãğàäèåíò_3" data-name="Áåçûìÿííûé ãğàäèåíò 3" x1="303.52" y1="240.54" x2="326.43" y2="240.54" gradientUnits="userSpaceOnUse">
      <stop offset="0" stop-color="#8db2dc"/>
      <stop offset="1" stop-color="#82a2cb"/>
    </linearGradient>
    <linearGradient id="_Áåçûìÿííûé_ãğàäèåíò_17" data-name="Áåçûìÿííûé ãğàäèåíò 17" x1="316.05" y1="230.48" x2="336.8" y2="230.48" gradientUnits="userSpaceOnUse">
      <stop offset="0" stop-color="#cbe3ff"/>
      <stop offset="1" stop-color="#e4ffd9"/>
    </linearGradient>
    <linearGradient id="_Áåçûìÿííûé_ãğàäèåíò_3-2" data-name="Áåçûìÿííûé ãğàäèåíò 3" x1="323.74" y1="234.92" x2="318.73" y2="243.59" xlink:href="#_Áåçûìÿííûé_ãğàäèåíò_3"/>
    <linearGradient id="_Áåçûìÿííûé_ãğàäèåíò_2" data-name="Áåçûìÿííûé ãğàäèåíò 2" x1="329.11" y1="234.92" x2="334.12" y2="243.59" gradientUnits="userSpaceOnUse">
      <stop offset="0" stop-color="#bbdaff"/>
      <stop offset="1" stop-color="#abc8eb"/>
    </linearGradient>
    <linearGradient id="_Áåçûìÿííûé_ãğàäèåíò_3-3" data-name="Áåçûìÿííûé ãğàäèåíò 3" x1="366.67" y1="311.33" x2="376.94" y2="311.33" xlink:href="#_Áåçûìÿííûé_ãğàäèåíò_3"/>
    <linearGradient id="_Áåçûìÿííûé_ãğàäèåíò_17-2" data-name="Áåçûìÿííûé ãğàäèåíò 17" x1="371.93" y1="306.24" x2="381.96" y2="306.24" xlink:href="#_Áåçûìÿííûé_ãğàäèåíò_17"/>
    <linearGradient id="_Áåçûìÿííûé_ãğàäèåíò_3-4" data-name="Áåçûìÿííûé ãğàäèåíò 3" x1="375.65" y1="308.39" x2="373.23" y2="312.58" xlink:href="#_Áåçûìÿííûé_ãğàäèåíò_3"/>
    <linearGradient id="_Áåçûìÿííûé_ãğàäèåíò_2-2" data-name="Áåçûìÿííûé ãğàäèåíò 2" x1="378.24" y1="308.39" x2="380.66" y2="312.58" xlink:href="#_Áåçûìÿííûé_ãğàäèåíò_2"/>
    <linearGradient id="_Áåçûìÿííûé_ãğàäèåíò_3-5" data-name="Áåçûìÿííûé ãğàäèåíò 3" x1="75.75" y1="347.46" x2="86.02" y2="347.46" xlink:href="#_Áåçûìÿííûé_ãğàäèåíò_3"/>
    <linearGradient id="_Áåçûìÿííûé_ãğàäèåíò_17-3" data-name="Áåçûìÿííûé ãğàäèåíò 17" x1="81.01" y1="342.37" x2="91.04" y2="342.37" xlink:href="#_Áåçûìÿííûé_ãğàäèåíò_17"/>
    <linearGradient id="_Áåçûìÿííûé_ãğàäèåíò_3-6" data-name="Áåçûìÿííûé ãğàäèåíò 3" x1="84.72" y1="344.52" x2="82.3" y2="348.71" xlink:href="#_Áåçûìÿííûé_ãğàäèåíò_3"/>
    <linearGradient id="_Áåçûìÿííûé_ãğàäèåíò_2-3" data-name="Áåçûìÿííûé ãğàäèåíò 2" x1="87.32" y1="344.52" x2="89.74" y2="348.71" xlink:href="#_Áåçûìÿííûé_ãğàäèåíò_2"/>
    <linearGradient id="_Áåçûìÿííûé_ãğàäèåíò_3-7" data-name="Áåçûìÿííûé ãğàäèåíò 3" x1="167.23" y1="357.4" x2="190.13" y2="357.4" xlink:href="#_Áåçûìÿííûé_ãğàäèåíò_3"/>
    <linearGradient id="_Áåçûìÿííûé_ãğàäèåíò_3-8" data-name="Áåçûìÿííûé ãğàäèåíò 3" x1="181.15" y1="371.31" x2="193.22" y2="371.31" xlink:href="#_Áåçûìÿííûé_ãğàäèåíò_3"/>
    <linearGradient id="_Áåçûìÿííûé_ãğàäèåíò_17-4" data-name="Áåçûìÿííûé ãğàäèåíò 17" x1="179.75" y1="347.34" x2="200.51" y2="347.34" xlink:href="#_Áåçûìÿííûé_ãğàäèåíò_17"/>
    <linearGradient id="_Áåçûìÿííûé_ãğàäèåíò_3-9" data-name="Áåçûìÿííûé ãğàäèåíò 3" x1="187.45" y1="351.78" x2="182.44" y2="360.45" xlink:href="#_Áåçûìÿííûé_ãğàäèåíò_3"/>
    <linearGradient id="_Áåçûìÿííûé_ãğàäèåíò_2-4" data-name="Áåçûìÿííûé ãğàäèåíò 2" x1="192.82" y1="351.78" x2="197.82" y2="360.45" xlink:href="#_Áåçûìÿííûé_ãğàäèåíò_2"/>
    <linearGradient id="_Áåçûìÿííûé_ãğàäèåíò_17-5" data-name="Áåçûìÿííûé ãğàäèåíò 17" x1="187.33" y1="365.33" x2="199.11" y2="365.33" xlink:href="#_Áåçûìÿííûé_ãğàäèåíò_17"/>
    <linearGradient id="_Áåçûìÿííûé_ãğàäèåíò_3-10" data-name="Áåçûìÿííûé ãğàäèåíò 3" x1="191.69" y1="367.85" x2="188.85" y2="372.78" xlink:href="#_Áåçûìÿííûé_ãğàäèåíò_3"/>
    <linearGradient id="_Áåçûìÿííûé_ãğàäèåíò_2-5" data-name="Áåçûìÿííûé ãğàäèåíò 2" x1="194.74" y1="367.85" x2="197.59" y2="372.78" xlink:href="#_Áåçûìÿííûé_ãğàäèåíò_2"/>
    <linearGradient id="_Áåçûìÿííûé_ãğàäèåíò_3-11" data-name="Áåçûìÿííûé ãğàäèåíò 3" x1="256.04" y1="377.46" x2="264.18" y2="377.46" xlink:href="#_Áåçûìÿííûé_ãğàäèåíò_3"/>
    <linearGradient id="_Áåçûìÿííûé_ãğàäèåíò_17-6" data-name="Áåçûìÿííûé ãğàäèåíò 17" x1="260.42" y1="373.78" x2="267.95" y2="373.78" xlink:href="#_Áåçûìÿííûé_ãğàäèåíò_17"/>
    <linearGradient id="_Áåçûìÿííûé_ãğàäèåíò_3-12" data-name="Áåçûìÿííûé ãğàäèåíò 3" x1="263.21" y1="375.39" x2="261.39" y2="378.53" xlink:href="#_Áåçûìÿííûé_ãğàäèåíò_3"/>
    <linearGradient id="_Áåçûìÿííûé_ãğàäèåíò_2-6" data-name="Áåçûìÿííûé ãğàäèåíò 2" x1="265.16" y1="375.39" x2="266.97" y2="378.53" xlink:href="#_Áåçûìÿííûé_ãğàäèåíò_2"/>
    <linearGradient id="_Áåçûìÿííûé_ãğàäèåíò_3-13" data-name="Áåçûìÿííûé ãğàäèåíò 3" x1="35.62" y1="271.87" x2="257.6" y2="271.87" xlink:href="#_Áåçûìÿííûé_ãğàäèåíò_3"/>
    <linearGradient id="_Áåçûìÿííûé_ãğàäèåíò_14" data-name="Áåçûìÿííûé ãğàäèåíò 14" x1="207.65" y1="288.16" x2="184.14" y2="288.16" gradientUnits="userSpaceOnUse">
      <stop offset="0" stop-color="#b5d3f7"/>
      <stop offset=".64" stop-color="#99c1ef"/>
      <stop offset=".8" stop-color="#90b5e1"/>
      <stop offset="1" stop-color="#83a3cc"/>
    </linearGradient>
    <linearGradient id="_Áåçûìÿííûé_ãğàäèåíò_17-7" data-name="Áåçûìÿííûé ãğàäèåíò 17" x1="157.02" y1="276.39" x2="227.24" y2="276.39" xlink:href="#_Áåçûìÿííûé_ãğàäèåíò_17"/>
    <linearGradient id="_Áåçûìÿííûé_ãğàäèåíò_17-8" data-name="Áåçûìÿííûé ãğàäèåíò 17" x1="164.03" y1="205.19" x2="171.53" y2="180.94" xlink:href="#_Áåçûìÿííûé_ãğàäèåíò_17"/>
    <linearGradient id="_Áåçûìÿííûé_ãğàäèåíò_3-14" data-name="Áåçûìÿííûé ãğàäèåíò 3" x1="198.38" y1="319.96" x2="238.86" y2="319.96" xlink:href="#_Áåçûìÿííûé_ãğàäèåíò_3"/>
    <linearGradient id="_Áåçûìÿííûé_ãğàäèåíò_17-9" data-name="Áåçûìÿííûé ãğàäèåíò 17" x1="202.22" y1="288.13" x2="287.28" y2="288.13" xlink:href="#_Áåçûìÿííûé_ãğàäèåíò_17"/>
    <linearGradient id="_Áåçûìÿííûé_ãğàäèåíò_17-10" data-name="Áåçûìÿííûé ãğàäèåíò 17" x1="203.8" y1="299.19" x2="320.19" y2="299.19" xlink:href="#_Áåçûìÿííûé_ãğàäèåíò_17"/>
    <linearGradient id="_Áåçûìÿííûé_ãğàäèåíò_3-15" data-name="Áåçûìÿííûé ãğàäèåíò 3" x1="315.15" y1="277.44" x2="356.97" y2="277.44" xlink:href="#_Áåçûìÿííûé_ãğàäèåíò_3"/>
    <linearGradient id="_Áåçûìÿííûé_ãğàäèåíò_17-11" data-name="Áåçûìÿííûé ãğàäèåíò 17" x1="328.51" y1="282.32" x2="347.67" y2="268.99" xlink:href="#_Áåçûìÿííûé_ãğàäèåíò_17"/>
    <clipPath id="clippath">
      <path class="cls-41" d="M325.49,267.39s3.04,1.76,4.59,1.9c.54.05,1-.14,1.09-.19.37-.19.6-.56.45-1.31l-.65-3.26s-2.94-2.59-4.24-1.08c-1.3,1.5-1.68,2.95-1.24,3.95Z"/>
    </clipPath>
    <filter id="luminosity-noclip" x="333.56" y="267.15" width="21.07" height="14.1" color-interpolation-filters="sRGB" filterUnits="userSpaceOnUse">
      <feFlood flood-color="#fff" result="bg"/>
      <feBlend in="SourceGraphic" in2="bg"/>
    </filter>
    <filter id="luminosity-noclip-2" x="333.56" y="-8417" width="21.07" height="32766" color-interpolation-filters="sRGB" filterUnits="userSpaceOnUse">
      <feFlood flood-color="#fff" result="bg"/>
      <feBlend in="SourceGraphic" in2="bg"/>
    </filter>
    <mask id="mask-1" x="333.56" y="-8417" width="21.07" height="32766" maskUnits="userSpaceOnUse"/>
    <linearGradient id="_Áåçûìÿííûé_ãğàäèåíò_4" data-name="Áåçûìÿííûé ãğàäèåíò 4" x1="334.86" y1="283.34" x2="348.47" y2="271.21" gradientUnits="userSpaceOnUse">
      <stop offset="0" stop-color="#000"/>
      <stop offset=".18" stop-color="#3c3c3c"/>
      <stop offset=".4" stop-color="gray"/>
      <stop offset=".6" stop-color="#b7b7b7"/>
      <stop offset=".78" stop-color="#dedede"/>
      <stop offset=".92" stop-color="#f6f6f6"/>
      <stop offset="1" stop-color="#fff"/>
    </linearGradient>
    <mask id="mask" x="333.56" y="267.15" width="21.07" height="14.1" maskUnits="userSpaceOnUse">
      <g class="cls-113">
        <g class="cls-114">
          <path class="cls-96" d="M346.98,268.61c-7.85-4.67-17.28,2.98-11.76,7.2,2,1.53,10.83,7.29,17.43,4.83,1.59-.59,2.39-2.33,1.79-3.92-1.05-2.75-4.27-6.22-7.45-8.11Z"/>
        </g>
      </g>
    </mask>
    <linearGradient id="_Áåçûìÿííûé_ãğàäèåíò_19" data-name="Áåçûìÿííûé ãğàäèåíò 19" x1="334.86" y1="283.34" x2="348.47" y2="271.21" gradientUnits="userSpaceOnUse">
      <stop offset="0" stop-color="#000"/>
      <stop offset=".18" stop-color="#3c3c3c"/>
      <stop offset=".4" stop-color="gray"/>
      <stop offset=".6" stop-color="#b7b7b7"/>
      <stop offset=".78" stop-color="#dedede"/>
      <stop offset=".92" stop-color="#f6f6f6"/>
      <stop offset="1" stop-color="#fff"/>
    </linearGradient>
    <linearGradient id="_Áåçûìÿííûé_ãğàäèåíò_3-16" data-name="Áåçûìÿííûé ãğàäèåíò 3" x1="307.54" y1="350.48" x2="333.11" y2="350.48" xlink:href="#_Áåçûìÿííûé_ãğàäèåíò_3"/>
    <linearGradient id="_Áåçûìÿííûé_ãğàäèåíò_3-17" data-name="Áåçûìÿííûé ãğàäèåíò 3" x1="360.99" y1="266.02" x2="384.5" y2="266.02" xlink:href="#_Áåçûìÿííûé_ãğàäèåíò_3"/>
    <linearGradient id="_Áåçûìÿííûé_ãğàäèåíò_17-12" data-name="Áåçûìÿííûé ãğàäèåíò 17" x1="132.07" y1="131.17" x2="307.07" y2="131.17" xlink:href="#_Áåçûìÿííûé_ãğàäèåíò_17"/>
    <clipPath id="clippath-1">
      <polygon class="cls-41" points="307.07 204.73 132.07 305.76 132.07 177.03 307.07 75.99 307.07 204.73"/>
    </clipPath>
    <linearGradient id="_Áåçûìÿííûé_ãğàäèåíò_17-13" data-name="Áåçûìÿííûé ãğàäèåíò 17" x1="264.21" y1="163.11" x2="277.53" y2="163.11" xlink:href="#_Áåçûìÿííûé_ãğàäèåíò_17"/>
    <linearGradient id="_Áåçûìÿííûé_ãğàäèåíò_3-18" data-name="Áåçûìÿííûé ãğàäèåíò 3" x1="253.58" y1="185.92" x2="262.49" y2="185.92" xlink:href="#_Áåçûìÿííûé_ãğàäèåíò_3"/>
    <linearGradient id="_Áåçûìÿííûé_ãğàäèåíò_3-19" data-name="Áåçûìÿííûé ãğàäèåíò 3" x1="249.82" y1="171.62" x2="262.44" y2="171.62" xlink:href="#_Áåçûìÿííûé_ãğàäèåíò_3"/>
    <linearGradient id="_Áåçûìÿííûé_ãğàäèåíò_3-20" data-name="Áåçûìÿííûé ãğàäèåíò 3" x1="253.53" y1="167.82" x2="262.44" y2="167.82" xlink:href="#_Áåçûìÿííûé_ãğàäèåíò_3"/>
    <linearGradient id="_Áåçûìÿííûé_ãğàäèåíò_3-21" data-name="Áåçûìÿííûé ãğàäèåíò 3" x1="236.48" y1="186.86" x2="245.39" y2="186.86" xlink:href="#_Áåçûìÿííûé_ãğàäèåíò_3"/>
    <linearGradient id="_Áåçûìÿííûé_ãğàäèåíò_17-14" data-name="Áåçûìÿííûé ãğàäèåíò 17" x1="255.15" y1="141.48" x2="273.03" y2="141.48" xlink:href="#_Áåçûìÿííûé_ãğàäèåíò_17"/>
    <linearGradient id="_Áåçûìÿííûé_ãğàäèåíò_17-15" data-name="Áåçûìÿííûé ãğàäèåíò 17" x1="215.16" y1="199.47" x2="232.04" y2="199.47" xlink:href="#_Áåçûìÿííûé_ãğàäèåíò_17"/>
    <linearGradient id="_Áåçûìÿííûé_ãğàäèåíò_3-22" data-name="Áåçûìÿííûé ãğàäèåíò 3" x1="215.16" y1="197.16" x2="232.04" y2="197.16" xlink:href="#_Áåçûìÿííûé_ãğàäèåíò_3"/>
    <linearGradient id="_Áåçûìÿííûé_ãğàäèåíò_3-23" data-name="Áåçûìÿííûé ãğàäèåíò 3" x1="223.08" y1="185.34" x2="232.04" y2="185.34" xlink:href="#_Áåçûìÿííûé_ãğàäèåíò_3"/>
    <linearGradient id="_Áåçûìÿííûé_ãğàäèåíò_17-16" data-name="Áåçûìÿííûé ãğàäèåíò 17" x1="211.56" y1="164.62" x2="235.43" y2="164.62" xlink:href="#_Áåçûìÿííûé_ãğàäèåíò_17"/>
    <linearGradient id="_Áåçûìÿííûé_ãğàäèåíò_3-24" data-name="Áåçûìÿííûé ãğàäèåíò 3" x1="204.3" y1="196.17" x2="213.29" y2="196.17" xlink:href="#_Áåçûìÿííûé_ãğàäèåíò_3"/>
    <linearGradient id="_Áåçûìÿííûé_ãğàäèåíò_17-17" data-name="Áåçûìÿííûé ãğàäèåíò 17" x1="196.83" y1="202.01" x2="210.15" y2="202.01" xlink:href="#_Áåçûìÿííûé_ãğàäèåíò_17"/>
    <linearGradient id="_Áåçûìÿííûé_ãğàäèåíò_3-25" data-name="Áåçûìÿííûé ãğàäèåíò 3" x1="186.2" y1="224.82" x2="195.12" y2="224.82" xlink:href="#_Áåçûìÿííûé_ãğàäèåíò_3"/>
    <linearGradient id="_Áåçûìÿííûé_ãğàäèåíò_3-26" data-name="Áåçûìÿííûé ãğàäèåíò 3" x1="182.45" y1="210.52" x2="195.06" y2="210.52" xlink:href="#_Áåçûìÿííûé_ãğàäèåíò_3"/>
    <linearGradient id="_Áåçûìÿííûé_ãğàäèåíò_3-27" data-name="Áåçûìÿííûé ãğàäèåíò 3" x1="186.15" y1="206.71" x2="195.06" y2="206.71" xlink:href="#_Áåçûìÿííûé_ãğàäèåíò_3"/>
    <linearGradient id="_Áåçûìÿííûé_ãğàäèåíò_3-28" data-name="Áåçûìÿííûé ãğàäèåíò 3" x1="169.1" y1="225.76" x2="178.02" y2="225.76" xlink:href="#_Áåçûìÿííûé_ãğàäèåíò_3"/>
    <linearGradient id="_Áåçûìÿííûé_ãğàäèåíò_17-18" data-name="Áåçûìÿííûé ãğàäèåíò 17" x1="187.77" y1="180.38" x2="205.65" y2="180.38" xlink:href="#_Áåçûìÿííûé_ãğàäèåíò_17"/>
    <linearGradient id="_Áåçûìÿííûé_ãğàäèåíò_3-29" data-name="Áåçûìÿííûé ãğàäèåíò 3" x1="114.25" y1="333.19" x2="182.03" y2="333.19" xlink:href="#_Áåçûìÿííûé_ãğàäèåíò_3"/>
    <linearGradient id="_Áåçûìÿííûé_ãğàäèåíò_3-30" data-name="Áåçûìÿííûé ãğàäèåíò 3" x1="150.71" y1="305.87" x2="164.86" y2="305.87" xlink:href="#_Áåçûìÿííûé_ãğàäèåíò_3"/>
    <linearGradient id="_Áåçûìÿííûé_ãğàäèåíò_2-7" data-name="Áåçûìÿííûé ãğàäèåíò 2" x1="151.49" y1="304.53" x2="166.64" y2="304.53" xlink:href="#_Áåçûìÿííûé_ãğàäèåíò_2"/>
    <linearGradient id="_Áåçûìÿííûé_ãğàäèåíò_3-31" data-name="Áåçûìÿííûé ãğàäèåíò 3" x1="135.34" y1="314.8" x2="149.28" y2="314.8" xlink:href="#_Áåçûìÿííûé_ãğàäèåíò_3"/>
    <linearGradient id="_Áåçûìÿííûé_ãğàäèåíò_2-8" data-name="Áåçûìÿííûé ãğàäèåíò 2" x1="136.13" y1="313.84" x2="151.06" y2="313.84" xlink:href="#_Áåçûìÿííûé_ãğàäèåíò_2"/>
    <linearGradient id="_Áåçûìÿííûé_ãğàäèåíò_2-9" data-name="Áåçûìÿííûé ãğàäèåíò 2" x1="158.89" y1="305.63" x2="159.3" y2="305.63" xlink:href="#_Áåçûìÿííûé_ãğàäèåíò_2"/>
    <linearGradient id="_Áåçûìÿííûé_ãğàäèåíò_2-10" data-name="Áåçûìÿííûé ãğàäèåíò 2" x1="143.32" y1="314.69" x2="143.72" y2="314.69" xlink:href="#_Áåçûìÿííûé_ãğàäèåíò_2"/>
    <linearGradient id="_Áåçûìÿííûé_ãğàäèåíò_3-32" data-name="Áåçûìÿííûé ãğàäèåíò 3" x1="143.51" y1="309.16" x2="160.23" y2="309.16" xlink:href="#_Áåçûìÿííûé_ãğàäèåíò_3"/>
    <linearGradient id="_Áåçûìÿííûé_ãğàäèåíò_17-19" data-name="Áåçûìÿííûé ãğàäèåíò 17" x1="143.51" y1="307.02" x2="165.27" y2="307.02" xlink:href="#_Áåçûìÿííûé_ãğàäèåíò_17"/>
    <linearGradient id="_Áåçûìÿííûé_ãğàäèåíò_2-11" data-name="Áåçûìÿííûé ãğàäèåíò 2" x1="160.22" y1="312.56" x2="165.27" y2="312.56" xlink:href="#_Áåçûìÿííûé_ãğàäèåíò_2"/>
    <linearGradient id="_Áåçûìÿííûé_ãğàäèåíò_2-12" data-name="Áåçûìÿííûé ãğàäèåíò 2" x1="160.22" y1="313.63" x2="161.54" y2="313.63" xlink:href="#_Áåçûìÿííûé_ãğàäèåíò_2"/>
    <linearGradient id="_Áåçûìÿííûé_ãğàäèåíò_3-33" data-name="Áåçûìÿííûé ãğàäèåíò 3" x1="140.19" y1="320.38" x2="156.91" y2="320.38" xlink:href="#_Áåçûìÿííûé_ãğàäèåíò_3"/>
    <linearGradient id="_Áåçûìÿííûé_ãğàäèåíò_17-20" data-name="Áåçûìÿííûé ãğàäèåíò 17" x1="140.19" y1="318.24" x2="161.96" y2="318.24" xlink:href="#_Áåçûìÿííûé_ãğàäèåíò_17"/>
    <linearGradient id="_Áåçûìÿííûé_ãğàäèåíò_2-13" data-name="Áåçûìÿííûé ãğàäèåíò 2" x1="156.91" y1="323.77" x2="161.96" y2="323.77" xlink:href="#_Áåçûìÿííûé_ãğàäèåíò_2"/>
    <linearGradient id="_Áåçûìÿííûé_ãğàäèåíò_2-14" data-name="Áåçûìÿííûé ãğàäèåíò 2" x1="156.91" y1="324.85" x2="158.23" y2="324.85" xlink:href="#_Áåçûìÿííûé_ãğàäèåíò_2"/>
    <linearGradient id="_Áåçûìÿííûé_ãğàäèåíò_3-34" data-name="Áåçûìÿííûé ãğàäèåíò 3" x1="136.88" y1="331.6" x2="153.6" y2="331.6" xlink:href="#_Áåçûìÿííûé_ãğàäèåíò_3"/>
    <linearGradient id="_Áåçûìÿííûé_ãğàäèåíò_17-21" data-name="Áåçûìÿííûé ãğàäèåíò 17" x1="136.88" y1="329.45" x2="158.64" y2="329.45" xlink:href="#_Áåçûìÿííûé_ãğàäèåíò_17"/>
    <linearGradient id="_Áåçûìÿííûé_ãğàäèåíò_2-15" data-name="Áåçûìÿííûé ãğàäèåíò 2" x1="153.59" y1="334.99" x2="158.64" y2="334.99" xlink:href="#_Áåçûìÿííûé_ãğàäèåíò_2"/>
    <linearGradient id="_Áåçûìÿííûé_ãğàäèåíò_2-16" data-name="Áåçûìÿííûé ãğàäèåíò 2" x1="153.59" y1="336.06" x2="154.91" y2="336.06" xlink:href="#_Áåçûìÿííûé_ãğàäèåíò_2"/>
    <linearGradient id="_Áåçûìÿííûé_ãğàäèåíò_3-35" data-name="Áåçûìÿííûé ãğàäèåíò 3" x1="167.94" y1="315.82" x2="182.09" y2="315.82" xlink:href="#_Áåçûìÿííûé_ãğàäèåíò_3"/>
    <linearGradient id="_Áåçûìÿííûé_ãğàäèåíò_2-17" data-name="Áåçûìÿííûé ãğàäèåíò 2" x1="168.73" y1="315.53" x2="183.87" y2="315.53" xlink:href="#_Áåçûìÿííûé_ãğàäèåíò_2"/>
    <linearGradient id="_Áåçûìÿííûé_ãğàäèåíò_3-36" data-name="Áåçûìÿííûé ãğàäèåíò 3" x1="152.57" y1="324.75" x2="166.51" y2="324.75" xlink:href="#_Áåçûìÿííûé_ãğàäèåíò_3"/>
    <linearGradient id="_Áåçûìÿííûé_ãğàäèåíò_3-37" data-name="Áåçûìÿííûé ãğàäèåíò 3" x1="147.06" y1="297.51" x2="169.15" y2="297.51" xlink:href="#_Áåçûìÿííûé_ãğàäèåíò_3"/>
    <linearGradient id="_Áåçûìÿííûé_ãğàäèåíò_17-22" data-name="Áåçûìÿííûé ãğàäèåíò 17" x1="147.06" y1="294.93" x2="171.81" y2="294.93" xlink:href="#_Áåçûìÿííûé_ãğàäèåíò_17"/>
    <linearGradient id="_Áåçûìÿííûé_ãğàäèåíò_2-18" data-name="Áåçûìÿííûé ãğàäèåíò 2" x1="153.36" y1="324.47" x2="168.29" y2="324.47" xlink:href="#_Áåçûìÿííûé_ãğàäèåíò_2"/>
    <linearGradient id="_Áåçûìÿííûé_ãğàäèåíò_2-19" data-name="Áåçûìÿííûé ãğàäèåíò 2" x1="165.21" y1="300.85" x2="171.81" y2="300.85" xlink:href="#_Áåçûìÿííûé_ãğàäèåíò_2"/>
    <linearGradient id="_Áåçûìÿííûé_ãğàäèåíò_2-20" data-name="Áåçûìÿííûé ãğàäèåíò 2" x1="176.18" y1="315.61" x2="176.59" y2="315.61" xlink:href="#_Áåçûìÿííûé_ãğàäèåíò_2"/>
    <linearGradient id="_Áåçûìÿííûé_ãğàäèåíò_2-21" data-name="Áåçûìÿííûé ãğàäèåíò 2" x1="160.61" y1="324.67" x2="161.01" y2="324.67" xlink:href="#_Áåçûìÿííûé_ãğàäèåíò_2"/>
  </defs>
  <g class="cls-110">
    <g id="_0" data-name="0">
      <rect id="_0-2" data-name="0" class="cls-98" width="450" height="450"/>
      <g>
        <polygon class="cls-23" points="326.43 248.03 315.75 248.03 303.52 240.97 317.25 233.04 326.43 248.03"/>
        <g id="Axonometric_Cube" data-name="Axonometric Cube">
          <polygon id="Cube_face_-_top" data-name="Cube face - top" class="cls-102" points="326.43 236.47 316.05 230.48 326.43 224.48 336.8 230.48 326.43 236.47"/>
          <polygon id="Cube_face_-_left" data-name="Cube face - left" class="cls-105" points="326.43 248.03 316.05 242.04 316.05 230.48 326.43 236.47 326.43 248.03"/>
          <polygon id="Cube_face_-_right" data-name="Cube face - right" class="cls-58" points="336.8 242.04 326.43 248.03 326.43 236.47 336.8 230.48 336.8 242.04"/>
        </g>
      </g>
      <g>
        <polygon class="cls-84" points="376.94 314.72 371.79 314.72 366.67 311.77 373.31 307.94 376.94 314.72"/>
        <g id="Axonometric_Cube-2" data-name="Axonometric Cube">
          <polygon id="Cube_face_-_top-2" data-name="Cube face - top" class="cls-39" points="376.94 309.14 371.93 306.24 376.94 303.34 381.96 306.24 376.94 309.14"/>
          <polygon id="Cube_face_-_left-2" data-name="Cube face - left" class="cls-40" points="376.94 314.72 371.93 311.83 371.93 306.24 376.94 309.14 376.94 314.72"/>
          <polygon id="Cube_face_-_right-2" data-name="Cube face - right" class="cls-25" points="381.96 311.83 376.94 314.72 376.94 309.14 381.96 306.24 381.96 311.83"/>
        </g>
      </g>
      <g>
        <polygon class="cls-6" points="86.02 350.86 80.86 350.86 75.75 347.9 82.39 344.07 86.02 350.86"/>
        <g id="Axonometric_Cube-3" data-name="Axonometric Cube">
          <polygon id="Cube_face_-_top-3" data-name="Cube face - top" class="cls-66" points="86.02 345.27 81.01 342.37 86.02 339.47 91.04 342.37 86.02 345.27"/>
          <polygon id="Cube_face_-_left-3" data-name="Cube face - left" class="cls-51" points="86.02 350.86 81.01 347.96 81.01 342.37 86.02 345.27 86.02 350.86"/>
          <polygon id="Cube_face_-_right-3" data-name="Cube face - right" class="cls-48" points="91.04 347.96 86.02 350.86 86.02 345.27 91.04 342.37 91.04 347.96"/>
        </g>
      </g>
      <g>
        <polygon class="cls-4" points="190.13 364.89 179.46 364.89 167.23 357.83 180.96 349.9 190.13 364.89"/>
        <polygon class="cls-85" points="193.22 375.3 187.16 375.3 181.15 371.83 188.95 367.33 193.22 375.3"/>
        <g>
          <g id="Axonometric_Cube-4" data-name="Axonometric Cube">
            <polygon id="Cube_face_-_top-4" data-name="Cube face - top" class="cls-14" points="190.13 353.33 179.75 347.34 190.13 341.35 200.51 347.34 190.13 353.33"/>
            <polygon id="Cube_face_-_left-4" data-name="Cube face - left" class="cls-35" points="190.13 364.89 179.75 358.9 179.75 347.34 190.13 353.33 190.13 364.89"/>
            <polygon id="Cube_face_-_right-4" data-name="Cube face - right" class="cls-71" points="200.51 358.9 190.13 364.89 190.13 353.33 200.51 347.34 200.51 358.9"/>
          </g>
          <g id="Axonometric_Cube-5" data-name="Axonometric Cube">
            <polygon id="Cube_face_-_top-5" data-name="Cube face - top" class="cls-108" points="193.22 368.73 187.33 365.33 193.22 361.93 199.11 365.33 193.22 368.73"/>
            <polygon id="Cube_face_-_left-5" data-name="Cube face - left" class="cls-91" points="193.22 375.3 187.33 371.9 187.33 365.33 193.22 368.73 193.22 375.3"/>
            <polygon id="Cube_face_-_right-5" data-name="Cube face - right" class="cls-80" points="199.11 371.9 193.22 375.3 193.22 368.73 199.11 365.33 199.11 371.9"/>
          </g>
        </g>
      </g>
      <g>
        <polygon class="cls-60" points="264.18 380.14 260.1 380.14 256.04 377.8 261.3 374.77 264.18 380.14"/>
        <g id="Axonometric_Cube-6" data-name="Axonometric Cube">
          <polygon id="Cube_face_-_top-6" data-name="Cube face - top" class="cls-101" points="264.18 375.95 260.42 373.78 264.18 371.61 267.95 373.78 264.18 375.95"/>
          <polygon id="Cube_face_-_left-6" data-name="Cube face - left" class="cls-15" points="264.18 380.14 260.42 377.97 260.42 373.78 264.18 375.95 264.18 380.14"/>
          <polygon id="Cube_face_-_right-6" data-name="Cube face - right" class="cls-72" points="267.95 377.97 264.18 380.14 264.18 375.95 267.95 373.78 267.95 377.97"/>
        </g>
      </g>
      <g>
        <path class="cls-104" d="M256.73,235.72l-82.82-7.36c-2.23-.2-4.47.3-6.41,1.42l-131.18,75.74c-1.19.69-.79,2.5.58,2.62l81.76,7.27c1.99.18,3.98-.26,5.71-1.26l42.5-24.54,13.37,7.72c2.14,1.24,4.93,1.86,7.74,1.89,1.86.02,4.96.02,6.82,0,0,0,33.5-21.76,29.12-24.29l-15.8-9.12,49.01-28.3c.81-.47.54-1.69-.39-1.78Z"/>
        <g>
          <g class="cls-110">
            <path class="cls-44" d="M223.97,281.63l-22.7,13.19c-4.37,2.54-11.5,2.54-15.9,0l-28.35-16.36v2.54s28.34,16.37,28.34,16.37c4.4,2.54,11.53,2.54,15.9,0l22.7-13.19c2.18-1.26,3.26-2.92,3.27-4.57v-2.54c0,1.66-1.08,3.31-3.26,4.57Z"/>
            <path class="cls-12" d="M223.92,272.42l-28.35-16.37-38.55,22.4,28.35,16.36c4.4,2.54,11.53,2.54,15.9,0l22.7-13.19c4.38-2.55,4.35-6.67-.05-9.21Z"/>
          </g>
          <g class="cls-110">
            <polygon class="cls-88" points="162.29 252.92 201.01 230.51 202.93 232.09 164.21 254.5 162.29 252.92"/>
            <polygon class="cls-17" points="164.21 254.5 202.93 232.09 197.72 257.18 159 279.58 164.21 254.5"/>
            <polygon class="cls-93" points="162.29 252.92 164.21 254.5 159 279.58 157 278.43 162.29 252.92"/>
          </g>
          <polygon class="cls-55" points="177.04 292.55 177.05 290.01 215.59 267.61 195.57 256.05 157.02 278.46 157.02 280.99 177.04 292.55"/>
          <path class="cls-65" d="M274.29,70.99c-.79-.27-1.72-.17-2.66.37l-164.16,94.78c-2.23,1.29-3.66,4.56-3.2,7.33l20.52,124.79c.26,1.6,1.1,2.68,2.19,3.05l1.43.49c-1.09-.37-1.93-1.45-2.19-3.05l-20.52-124.79c-.46-2.77.98-6.05,3.2-7.33l164.16-94.78c.94-.54,1.87-.64,2.66-.37l-1.43-.49Z"/>
          <path class="cls-79" d="M298.39,199.44l-20.52-124.79c-.46-2.77-2.63-3.96-4.85-2.68l-164.16,94.78c-2.23,1.29-3.66,4.56-3.2,7.33l20.52,124.79c.46,2.77,2.63,3.96,4.85,2.68l164.16-94.78c2.23-1.29,3.66-4.56,3.2-7.33Z"/>
        </g>
      </g>
      <g>
        <path class="cls-30" d="M220.62,303.4l-21.63,12.49c-.84.49-.82,1.71.04,2.16l35.21,18.46h2.3l2.32-16.71-18.24-16.41Z"/>
        <g class="cls-110">
          <path class="cls-50" d="M285.7,263.88l-83.48,48.49c.4-.23.96-.2,1.58.16l83.49-48.49c-.62-.36-1.18-.39-1.58-.16Z"/>
          <path class="cls-55" d="M206.01,316.28l83.49-48.5c0,.75-.26,1.27-.66,1.51l-83.49,48.5c.41-.24.66-.75.66-1.51h0Z"/>
          <polygon class="cls-77" points="236.71 334.34 320.19 285.85 320.03 288.02 236.54 336.52 236.71 334.34"/>
          <polygon class="cls-27" points="203.8 312.53 287.28 264.04 320.19 285.85 236.71 334.34 203.8 312.53"/>
          <path class="cls-55" d="M203.8,312.53l32.91,21.81-.16,2.17-30.54-20.24c0,1.49-1,2.06-2.23,1.35-1.23-.71-2.22-2.42-2.21-3.83,0-1.41,1-1.98,2.23-1.27Z"/>
        </g>
        <g>
          <g>
            <path class="cls-77" d="M282.93,269.74l3.49,2.27c.4.26,1.02.31,1.38.09l3.75-2.19c.15-.09.23-.22.24-.35l.03-.43c0,.13-.09.26-.24.35l-3.75,2.19c-.36.21-.98.17-1.38-.09l-3.49-2.27c-.23-.15-.33-.33-.32-.5l-.03.43c-.01.17.1.35.32.5Z"/>
            <path class="cls-77" d="M276.88,273.28l3.49,2.27c.4.26,1.02.29,1.39.08l3.74-2.2c.16-.09.24-.21.25-.35l.03-.43c0,.13-.09.26-.25.35l-3.74,2.2c-.37.21-.99.18-1.39-.08l-3.49-2.27c-.22-.14-.33-.33-.32-.5l-.03.43c-.01.17.09.35.32.5Z"/>
            <path class="cls-77" d="M270.84,276.82l3.49,2.27c.39.25,1.02.29,1.39.08l3.73-2.2c.16-.09.25-.22.26-.36l.03-.43c0,.14-.1.26-.26.36l-3.73,2.2c-.37.21-1,.17-1.39-.08l-3.49-2.27c-.22-.15-.33-.33-.32-.5l-.03.43c-.01.17.1.36.32.5Z"/>
            <path class="cls-77" d="M288.74,272.77l-.03.43c-.01.17.1.36.33.51l3.48,2.26c.4.26,1.02.31,1.39.1l3.74-2.2c.16-.09.24-.21.25-.35l.03-.43c0,.13-.09.26-.25.35l-3.74,2.2c-.37.21-.99.16-1.39-.1l-3.48-2.26c-.23-.15-.34-.33-.33-.51Z"/>
            <path class="cls-77" d="M286.15,286.42l-9.15-5.94c-.28-.18-.42-.42-.41-.63l-.03.43c-.01.22.12.45.41.63l9.15,5.94c.5.33,1.27.38,1.72.11l15.73-9.21c.2-.12.31-.27.32-.44l.03-.43c-.01.17-.12.32-.32.44l-15.73,9.21c-.45.27-1.22.22-1.72-.11Z"/>
            <path class="cls-77" d="M300.95,280.7l-.03.43c-.01.17.1.35.32.5l3.49,2.27c.4.26,1.02.31,1.38.09l3.75-2.19c.15-.09.23-.22.24-.35l.03-.43c0,.13-.09.26-.24.35l-3.75,2.19c-.36.21-.98.17-1.38-.09l-3.49-2.27c-.23-.15-.33-.33-.32-.5Z"/>
            <path class="cls-77" d="M316.01,285.33l-3.74,2.2c-.37.21-.98.17-1.38-.09l-3.49-2.27c-.23-.15-.33-.33-.32-.5l-.03.43c-.01.17.1.35.32.5l3.49,2.27c.4.26,1.01.3,1.38.09l3.74-2.2c.16-.09.24-.21.25-.35l.03-.43c0,.13-.09.26-.25.35Z"/>
            <path class="cls-77" d="M300.08,287.53l3.74-2.2c.16-.09.24-.21.25-.35l.03-.43c0,.13-.09.26-.25.35l-3.74,2.2c-.37.21-.99.18-1.39-.08l-3.49-2.27c-.22-.15-.33-.33-.32-.5l-.03.43c-.01.17.09.35.32.5l3.49,2.27c.4.26,1.02.29,1.39.08Z"/>
            <path class="cls-77" d="M309.97,288.87l-3.74,2.2c-.37.21-.99.18-1.39-.08l-3.49-2.27c-.22-.15-.33-.33-.32-.5l-.03.43c-.01.17.1.36.32.5l3.49,2.27c.4.26,1.02.29,1.39.08l3.74-2.2c.16-.09.24-.21.25-.35l.03-.43c0,.13-.09.26-.25.35Z"/>
            <path class="cls-77" d="M294.04,291.07l3.73-2.2c.16-.09.25-.22.26-.36l.03-.43c0,.14-.09.26-.26.36l-3.73,2.2c-.37.21-1,.17-1.4-.09l-3.48-2.26c-.22-.15-.33-.33-.32-.5l-.03.43c-.01.17.1.36.32.5l3.48,2.26c.4.26,1.03.3,1.4.09Z"/>
            <path class="cls-77" d="M303.91,292.42l-3.73,2.2c-.37.21-1,.17-1.4-.09l-3.48-2.26c-.22-.15-.33-.33-.32-.5l-.03.43c-.01.17.1.36.32.5l3.48,2.26c.4.26,1.03.3,1.4.09l3.73-2.2c.16-.09.25-.22.26-.36l.03-.43c0,.14-.09.26-.26.36Z"/>
            <path class="cls-77" d="M262.67,281.56l3.49,2.27c.4.26,1.02.31,1.38.09l5.69-3.33c.16-.1.25-.23.26-.36l.03-.43c0,.14-.09.26-.26.36l-5.69,3.33c-.36.21-.98.17-1.38-.09l-3.49-2.27c-.23-.15-.33-.33-.32-.5l-.03.43c-.01.17.1.35.32.5Z"/>
            <path class="cls-77" d="M279.49,284.1l-3.74,2.19c-.36.21-.99.18-1.39-.08l-3.48-2.26c-.22-.15-.33-.33-.32-.5l-.03.43c-.01.17.1.36.32.5l3.48,2.26c.4.26,1.03.3,1.39.08l3.74-2.19c.16-.1.24-.22.25-.36l.03-.43c0,.14-.09.27-.25.36Z"/>
            <path class="cls-77" d="M279.7,291.82l5.69-3.33c.16-.1.24-.22.25-.36l.03-.43c0,.13-.09.26-.25.36l-5.69,3.33c-.37.21-.98.17-1.38-.09l-3.49-2.27c-.23-.15-.33-.33-.32-.5l-.03.43c-.01.17.1.35.32.5l3.49,2.27c.4.26,1.01.3,1.38.09Z"/>
            <path class="cls-77" d="M287.88,294.61l3.74-2.19c.16-.1.24-.22.25-.36l.03-.43c0,.14-.09.27-.25.36l-3.74,2.19c-.36.21-.99.18-1.39-.08l-3.48-2.26c-.23-.15-.34-.34-.32-.51l-.03.43c-.01.17.1.36.32.51l3.48,2.26c.4.26,1.03.3,1.39.08Z"/>
            <path class="cls-77" d="M256.63,285.1l3.49,2.27c.4.26,1.02.31,1.38.09l3.75-2.19c.15-.09.23-.22.24-.35l.03-.43c0,.13-.09.26-.24.35l-3.75,2.19c-.36.21-.98.17-1.38-.09l-3.49-2.27c-.23-.15-.33-.33-.32-.5l-.03.43c-.01.17.1.35.32.5Z"/>
            <path class="cls-77" d="M250.58,288.65l3.49,2.27c.4.26,1.02.29,1.39.08l3.73-2.2c.17-.09.25-.22.26-.36l.03-.43c0,.14-.1.26-.26.36l-3.73,2.2c-.37.21-.99.18-1.39-.08l-3.49-2.27c-.22-.15-.33-.33-.32-.5l-.03.43c-.01.17.09.35.32.5Z"/>
            <path class="cls-77" d="M244.53,292.19l3.49,2.27c.39.25,1.02.29,1.39.08l3.73-2.2c.16-.09.25-.22.26-.36l.03-.43c0,.14-.09.26-.26.36l-3.73,2.2c-.37.21-1,.17-1.39-.08l-3.49-2.27c-.22-.15-.33-.33-.32-.5l-.03.43c-.01.17.1.36.32.5Z"/>
            <path class="cls-77" d="M268.31,289.74l-3.48-2.26c-.23-.15-.34-.33-.33-.51l-.03.43c-.01.17.1.36.33.51l3.48,2.26c.4.26,1.02.31,1.39.08l3.74-2.19c.16-.1.24-.22.25-.36l.03-.43c0,.14-.09.27-.25.36l-3.74,2.19c-.37.22-.99.18-1.39-.08Z"/>
            <path class="cls-77" d="M262.27,293.28l-3.48-2.26c-.23-.15-.34-.34-.33-.51l-.03.43c-.01.17.1.36.33.51l3.48,2.26c.4.26,1.02.31,1.38.09l3.75-2.19c.16-.09.24-.22.25-.35l.03-.43c0,.13-.09.26-.25.35l-3.75,2.19c-.36.21-.98.17-1.38-.09Z"/>
            <path class="cls-77" d="M256.23,296.82l-3.49-2.27c-.22-.14-.33-.33-.32-.5l-.03.43c-.01.17.1.36.32.5l3.49,2.27c.4.26,1.02.31,1.38.09l3.75-2.19c.15-.09.23-.22.24-.35l.03-.43c0,.13-.09.26-.24.35l-3.75,2.2c-.36.21-.98.17-1.38-.09Z"/>
            <path class="cls-77" d="M273.66,295.36l3.74-2.2c.16-.09.24-.21.25-.35l.03-.43c0,.13-.09.26-.25.35l-3.74,2.2c-.37.21-.99.16-1.38-.09l-3.49-2.27c-.23-.15-.34-.33-.33-.51l-.03.43c-.01.17.1.36.33.51l3.49,2.27c.39.25,1.01.3,1.38.09Z"/>
            <path class="cls-77" d="M267.62,298.9l3.73-2.2c.17-.09.25-.22.26-.36l.03-.43c0,.14-.1.26-.26.36l-3.73,2.2c-.37.21-1,.17-1.4-.09l-3.48-2.26c-.22-.15-.33-.33-.32-.5l-.03.43c-.01.17.1.36.32.5l3.48,2.26c.4.26,1.03.3,1.4.09Z"/>
            <path class="cls-77" d="M238.49,295.73l3.48,2.26c.4.26,1.02.31,1.4.09l3.73-2.2c.16-.09.25-.22.26-.36l.03-.43c0,.14-.09.26-.26.36l-3.73,2.2c-.38.21-1,.17-1.4-.09l-3.48-2.26c-.23-.15-.34-.33-.33-.5l-.03.43c-.01.17.1.36.33.5Z"/>
            <path class="cls-77" d="M250.18,300.37l-3.49-2.27c-.22-.14-.33-.33-.32-.5l-.03.43c-.01.17.09.35.32.5l3.49,2.27c.4.26,1.03.3,1.39.08l3.74-2.19c.16-.1.24-.22.25-.36l.03-.43c0,.13-.09.26-.25.36l-3.74,2.19c-.36.21-.99.18-1.39-.08Z"/>
            <path class="cls-77" d="M261.57,302.43l3.74-2.19c.16-.1.24-.23.25-.36l.03-.43c0,.14-.09.27-.25.36l-3.74,2.19c-.36.21-.99.18-1.39-.08l-3.48-2.26c-.22-.15-.33-.33-.32-.5l-.03.43c-.01.17.1.36.32.5l3.48,2.26c.4.26,1.03.3,1.39.08Z"/>
            <path class="cls-77" d="M255.53,305.97l3.74-2.19c.16-.1.24-.23.25-.36l.03-.43c0,.14-.09.27-.25.36l-3.74,2.19c-.37.22-.99.18-1.39-.08l-3.48-2.26c-.23-.15-.34-.33-.33-.51l-.03.43c-.01.17.1.36.33.51l3.48,2.26c.4.26,1.02.31,1.39.08Z"/>
            <path class="cls-77" d="M232.45,299.27l3.48,2.26c.4.26,1.02.31,1.38.09l3.75-2.19c.16-.09.24-.22.25-.35l.03-.43c0,.13-.09.26-.25.35l-3.75,2.19c-.36.21-.98.17-1.38-.09l-3.48-2.26c-.23-.15-.34-.33-.33-.51l-.03.43c-.01.17.1.36.33.51Z"/>
            <path class="cls-77" d="M244.14,303.91l-3.49-2.27c-.22-.15-.33-.33-.32-.5l-.03.43c-.01.17.09.35.32.5l3.49,2.27c.4.26,1.02.29,1.39.08l3.73-2.2c.16-.09.25-.22.26-.36l.03-.43c0,.14-.09.26-.26.36l-3.73,2.2c-.37.21-.99.18-1.39-.08Z"/>
            <path class="cls-77" d="M249.47,309.52l3.75-2.19c.16-.09.24-.22.25-.35l.03-.43c0,.13-.09.26-.25.35l-3.75,2.19c-.36.21-.98.17-1.38-.09l-3.48-2.26c-.23-.15-.34-.34-.33-.51l-.03.43c-.01.17.1.36.33.51l3.48,2.26c.4.26,1.02.31,1.38.09Z"/>
            <path class="cls-77" d="M297.52,295.95l-5.69,3.33c-.36.21-.98.17-1.38-.09l-3.48-2.26c-.23-.15-.34-.34-.33-.51l-.03.43c-.01.17.1.36.33.51l3.48,2.26c.4.26,1.02.31,1.38.09l5.69-3.33c.16-.1.25-.23.26-.36l.03-.43c0,.14-.09.26-.26.36Z"/>
            <path class="cls-77" d="M281.84,298.15l3.74-2.19c.16-.09.24-.22.25-.36l.03-.43c0,.14-.09.26-.25.36l-3.74,2.19c-.37.22-.99.18-1.39-.08l-3.49-2.27c-.22-.14-.33-.33-.32-.5l-.03.43c-.01.17.1.36.32.5l3.49,2.27c.4.26,1.02.31,1.39.08Z"/>
            <path class="cls-77" d="M289.67,300.63l-27.99,16.4c-.37.21-.98.17-1.38-.09l-3.49-2.27c-.23-.15-.34-.33-.33-.51l-.03.43c-.01.17.1.36.33.51l3.49,2.27c.4.26,1.01.3,1.38.09l27.99-16.4c.16-.1.25-.23.26-.36l.03-.43c0,.14-.09.26-.26.36Z"/>
            <path class="cls-77" d="M275.78,301.7l3.75-2.19c.15-.09.23-.22.24-.35l.03-.43c0,.13-.09.26-.24.35l-3.75,2.19c-.36.21-.98.17-1.38-.09l-3.49-2.27c-.23-.15-.33-.33-.32-.5l-.03.43c-.01.17.1.35.32.5l3.49,2.27c.4.26,1.02.31,1.38.09Z"/>
            <path class="cls-77" d="M269.74,305.24l3.75-2.19c.15-.09.23-.22.24-.35l.03-.43c0,.13-.09.26-.24.35l-3.75,2.19c-.37.21-.98.17-1.38-.09l-3.49-2.27c-.23-.15-.33-.33-.32-.5l-.03.43c-.01.17.1.35.32.5l3.49,2.27c.4.26,1.01.3,1.38.09Z"/>
            <path class="cls-77" d="M263.7,308.78l3.73-2.2c.17-.09.25-.22.26-.36l.03-.43c0,.14-.1.26-.26.36l-3.73,2.2c-.37.21-.99.18-1.39-.08l-3.49-2.27c-.22-.15-.33-.33-.32-.5l-.03.43c-.01.17.1.36.32.5l3.49,2.27c.4.26,1.02.29,1.39.08Z"/>
            <path class="cls-77" d="M257.66,312.32l3.73-2.2c.16-.09.25-.22.26-.36l.03-.43c0,.14-.09.26-.26.36l-3.73,2.2c-.37.21-1,.17-1.4-.09l-3.48-2.26c-.22-.15-.33-.33-.32-.5l-.03.43c-.01.17.1.36.32.5l3.48,2.26c.4.26,1.03.3,1.4.09Z"/>
            <path class="cls-77" d="M226.41,302.81l3.48,2.26c.4.26,1.02.31,1.38.09l3.75-2.19c.16-.09.24-.22.25-.35l.03-.43c0,.13-.09.26-.25.35l-3.75,2.19c-.36.21-.98.17-1.38-.09l-3.48-2.26c-.23-.15-.34-.34-.33-.51l-.03.43c-.01.17.1.36.33.51Z"/>
            <path class="cls-77" d="M238.1,307.45l-3.49-2.27c-.23-.15-.34-.33-.33-.5l-.03.43c-.01.17.1.36.33.5l3.49,2.27c.4.26,1.01.3,1.39.08l3.73-2.2c.16-.09.25-.22.26-.36l.03-.43c0,.14-.09.26-.26.36l-3.73,2.2c-.38.21-.99.18-1.39-.08Z"/>
            <path class="cls-77" d="M243.43,313.06l3.75-2.19c.15-.09.23-.22.24-.35l.03-.43c0,.13-.09.26-.24.35l-3.75,2.19c-.36.21-.98.17-1.38-.09l-3.49-2.27c-.23-.15-.33-.33-.32-.5l-.03.43c-.01.17.1.35.32.5l3.49,2.27c.4.26,1.02.31,1.38.09Z"/>
            <path class="cls-77" d="M251.61,315.85l3.74-2.19c.16-.1.24-.22.25-.36l.03-.43c0,.14-.09.27-.25.36l-3.74,2.19c-.37.22-.99.18-1.39-.08l-3.48-2.26c-.23-.15-.34-.33-.33-.5l-.03.43c-.01.17.1.36.33.5l3.48,2.26c.4.26,1.02.31,1.39.08Z"/>
            <path class="cls-77" d="M259.34,318.31l-3.74,2.2c-.37.21-.98.17-1.38-.09l-3.49-2.27c-.23-.15-.33-.33-.32-.5l-.03.43c-.01.17.1.35.32.5l3.49,2.27c.4.26,1.01.3,1.38.09l3.74-2.2c.16-.09.24-.21.25-.35l.03-.43c0,.13-.09.26-.25.35Z"/>
            <path class="cls-77" d="M220.36,306.36l3.48,2.26c.4.26,1.03.3,1.39.08l3.74-2.19c.16-.1.25-.23.26-.36l.03-.43c0,.14-.09.26-.26.36l-3.74,2.19c-.36.21-.99.18-1.39-.08l-3.48-2.26c-.23-.15-.34-.34-.32-.51l-.03.43c-.01.17.1.36.32.51Z"/>
            <path class="cls-77" d="M232.04,310.98l-3.48-2.26c-.23-.15-.34-.33-.33-.51l-.03.43c-.01.17.1.36.33.51l3.48,2.26c.4.26,1.02.31,1.39.1l3.74-2.2c.16-.09.24-.21.25-.35l.03-.43c0,.13-.09.26-.25.35l-3.74,2.2c-.37.21-.99.16-1.39-.1Z"/>
            <path class="cls-77" d="M237.42,316.17c-.36.21-.99.18-1.39-.08l-3.49-2.27c-.22-.14-.33-.33-.32-.5l-.03.43c-.01.17.09.35.32.5l3.49,2.27c.4.26,1.03.3,1.39.08l3.74-2.19c.16-.1.24-.22.25-.36l.03-.43c0,.13-.09.26-.25.36l-3.74,2.19Z"/>
            <path class="cls-77" d="M245.55,319.4l3.75-2.2c.16-.09.24-.22.25-.35l.03-.43c0,.13-.09.26-.25.35l-3.75,2.2c-.36.21-.98.17-1.38-.09l-3.48-2.26c-.23-.15-.34-.34-.33-.51l-.03.43c-.01.17.1.36.33.51l3.48,2.26c.4.26,1.02.31,1.38.09Z"/>
            <path class="cls-77" d="M214.31,309.89l3.49,2.27c.4.26,1.03.3,1.39.08l3.74-2.19c.16-.09.24-.22.25-.36l.03-.43c0,.14-.09.26-.25.36l-3.74,2.19c-.36.21-.99.18-1.39-.08l-3.49-2.27c-.22-.14-.33-.33-.32-.5l-.03.43c-.01.17.09.35.32.5Z"/>
            <path class="cls-77" d="M225.99,314.53l-3.48-2.26c-.22-.15-.33-.33-.32-.5l-.03.43c-.01.17.1.36.32.5l3.48,2.26c.4.26,1.03.3,1.39.08l3.75-2.19c.16-.09.24-.22.25-.35l.03-.43c0,.13-.09.26-.25.35l-3.75,2.19c-.36.21-.99.18-1.39-.08Z"/>
            <path class="cls-77" d="M226.47,317.79l3.49,2.27c.4.26,1.02.29,1.39.08l3.73-2.2c.16-.09.25-.22.26-.36l.03-.43c0,.14-.1.26-.26.36l-3.73,2.2c-.37.21-.99.18-1.39-.08l-3.49-2.27c-.22-.15-.33-.33-.32-.5l-.03.43c-.01.17.09.35.32.5Z"/>
            <path class="cls-77" d="M234.64,320.59l3.48,2.26c.4.26,1.03.3,1.39.08l3.75-2.2c.16-.09.24-.22.25-.35l.03-.43c0,.13-.09.26-.25.35l-3.75,2.19c-.36.21-.99.18-1.39-.08l-3.48-2.26c-.23-.15-.33-.34-.32-.51l-.03.43c-.01.17.1.36.32.51Z"/>
            <path class="cls-77" d="M253.29,321.86l-3.73,2.2c-.37.21-1,.17-1.4-.09l-3.48-2.26c-.22-.15-.33-.33-.32-.5l-.03.43c-.01.17.1.36.32.5l3.48,2.26c.4.26,1.03.3,1.4.09l3.73-2.2c.17-.09.25-.22.26-.36l.03-.43c0,.14-.1.26-.26.36Z"/>
            <path class="cls-77" d="M217.14,313.24l.03-.43c0,.14-.09.26-.25.36l-3.74,2.19c-.37.22-.99.18-1.39-.08l-3.49-2.27c-.22-.15-.33-.33-.32-.5l-.03.43c-.01.17.1.35.32.5l3.49,2.27c.4.26,1.02.31,1.39.08l3.74-2.19c.16-.09.24-.22.25-.36Z"/>
            <path class="cls-77" d="M225.31,316.03l.03-.43c0,.14-.09.26-.26.36l-5.69,3.33c-.36.21-.98.17-1.38-.09l-3.48-2.26c-.23-.15-.34-.34-.33-.51l-.03.43c-.01.17.1.36.33.51l3.48,2.26c.4.26,1.02.31,1.38.09l5.69-3.33c.16-.1.25-.23.26-.36Z"/>
            <path class="cls-77" d="M229.3,321.13l.03-.43c0,.14-.09.26-.26.36l-3.73,2.2c-.38.21-1,.17-1.39-.08l-3.49-2.27c-.23-.15-.34-.33-.33-.5l-.03.43c-.01.17.1.36.33.5l3.49,2.27c.39.25,1.01.3,1.39.08l3.73-2.2c.16-.09.25-.22.26-.36Z"/>
            <path class="cls-77" d="M237.46,323.93l.03-.43c0,.14-.09.26-.25.36l-5.69,3.33c-.36.21-.98.17-1.38-.09l-3.49-2.27c-.23-.15-.33-.33-.32-.5l-.03.43c-.01.17.1.35.32.5l3.49,2.27c.4.26,1.02.31,1.38.09l5.69-3.33c.16-.09.24-.22.25-.36Z"/>
            <path class="cls-77" d="M247.25,325.4l-3.74,2.19c-.36.21-.99.18-1.39-.08l-3.48-2.26c-.22-.15-.33-.33-.32-.5l-.03.43c-.01.17.1.36.32.5l3.48,2.26c.4.26,1.03.3,1.39.08l3.74-2.19c.16-.09.25-.22.26-.36l.03-.43c0,.14-.09.26-.26.36Z"/>
            <path class="cls-77" d="M241.21,328.94l-3.74,2.19c-.37.22-.99.18-1.39-.08l-3.48-2.26c-.23-.15-.34-.33-.33-.51l-.03.43c-.01.17.1.36.33.51l3.48,2.26c.4.26,1.02.31,1.39.08l3.74-2.19c.16-.1.24-.22.25-.36l.03-.43c0,.14-.09.27-.25.36Z"/>
          </g>
          <g>
            <path class="cls-88" d="M282.96,269.31l3.49,2.27c.4.26,1.02.31,1.38.09l3.75-2.19c.36-.21.32-.6-.09-.86l-3.48-2.26c-.4-.26-1.02-.31-1.38-.09l-3.75,2.19c-.36.21-.33.59.07.85Z"/>
            <path class="cls-88" d="M276.91,272.86l3.49,2.27c.4.26,1.02.29,1.39.08l3.74-2.2c.37-.21.33-.59-.07-.85l-3.48-2.26c-.4-.26-1.02-.31-1.38-.09l-3.75,2.2c-.36.21-.34.6.06.86Z"/>
            <path class="cls-88" d="M270.87,276.4l3.49,2.27c.39.25,1.02.29,1.39.08l3.73-2.2c.37-.21.34-.6-.06-.86l-3.48-2.26c-.4-.26-1.02-.31-1.4-.09l-3.73,2.2c-.37.21-.34.6.06.86Z"/>
            <path class="cls-88" d="M289.07,273.27l3.48,2.26c.4.26,1.02.31,1.39.1l3.74-2.2c.37-.21.33-.59-.07-.85l-3.48-2.26c-.4-.26-1.02-.31-1.39-.1l-3.74,2.2c-.37.21-.33.59.07.85Z"/>
            <path class="cls-88" d="M292.7,276.95l-4.59-2.98c-.5-.33-1.26-.37-1.72-.11l-9.48,5.55c-.45.27-.4.75.1,1.08l9.15,5.94c.5.33,1.27.38,1.72.11l15.73-9.21c.46-.27.42-.74-.08-1.07l-3.41-2.21c-.33-.21-.84-.25-1.15-.08l-5.28,3.05c-.25.15-.69.12-.98-.07Z"/>
            <path class="cls-88" d="M301.28,281.2l3.49,2.27c.4.26,1.02.31,1.38.09l3.75-2.19c.36-.21.32-.6-.09-.86l-3.48-2.26c-.4-.26-1.02-.31-1.38-.09l-3.75,2.19c-.36.21-.33.59.07.85Z"/>
            <path class="cls-88" d="M315.93,284.48l-3.48-2.26c-.4-.26-1.02-.31-1.38-.09l-3.75,2.19c-.36.21-.33.59.07.85l3.49,2.27c.4.26,1.01.3,1.38.09l3.74-2.2c.37-.21.33-.59-.07-.85Z"/>
            <path class="cls-88" d="M300.11,287.1l3.74-2.2c.37-.21.33-.59-.07-.85l-3.48-2.26c-.4-.26-1.02-.31-1.38-.09l-3.75,2.19c-.36.21-.34.6.06.86l3.49,2.27c.4.26,1.02.29,1.39.08Z"/>
            <path class="cls-88" d="M309.89,288.02l-3.48-2.26c-.4-.26-1.02-.31-1.38-.09l-3.75,2.19c-.37.21-.34.6.06.86l3.49,2.27c.4.26,1.02.29,1.39.08l3.74-2.2c.37-.21.33-.59-.07-.85Z"/>
            <path class="cls-88" d="M294.07,290.64l3.73-2.2c.37-.21.34-.6-.06-.86l-3.48-2.26c-.4-.26-1.03-.3-1.4-.09l-3.73,2.2c-.37.21-.34.6.06.86l3.48,2.26c.4.26,1.03.3,1.4.09Z"/>
            <path class="cls-88" d="M303.85,291.56l-3.48-2.26c-.4-.26-1.03-.3-1.4-.09l-3.73,2.2c-.37.21-.34.6.06.86l3.48,2.26c.4.26,1.03.3,1.4.09l3.73-2.2c.37-.21.34-.6-.06-.86Z"/>
            <path class="cls-88" d="M262.7,281.13l3.49,2.27c.4.26,1.02.31,1.38.09l5.69-3.33c.37-.22.34-.6-.06-.86l-3.49-2.27c-.4-.26-1.02-.31-1.39-.08l-5.69,3.33c-.36.21-.33.59.07.85Z"/>
            <path class="cls-88" d="M279.43,283.24l-3.49-2.27c-.4-.26-1.02-.29-1.39-.08l-3.73,2.2c-.37.21-.34.6.06.86l3.48,2.26c.4.26,1.03.3,1.39.08l3.74-2.19c.36-.21.34-.6-.06-.86Z"/>
            <path class="cls-88" d="M279.73,291.39l5.69-3.33c.37-.22.33-.61-.07-.87l-3.48-2.26c-.4-.26-1.02-.31-1.39-.08l-5.69,3.33c-.36.21-.33.59.07.85l3.49,2.27c.4.26,1.01.3,1.38.09Z"/>
            <path class="cls-88" d="M287.91,294.18l3.74-2.19c.36-.21.34-.6-.06-.86l-3.49-2.27c-.4-.26-1.03-.3-1.39-.08l-3.74,2.19c-.36.21-.33.61.07.87l3.48,2.26c.4.26,1.03.3,1.39.08Z"/>
            <path class="cls-88" d="M256.66,284.67l3.49,2.27c.4.26,1.02.31,1.38.09l3.75-2.19c.36-.21.32-.6-.09-.86l-3.48-2.26c-.4-.26-1.02-.31-1.38-.09l-3.75,2.19c-.36.21-.33.59.07.85Z"/>
            <path class="cls-88" d="M250.61,288.22l3.49,2.27c.4.26,1.02.29,1.39.08l3.73-2.2c.38-.21.34-.6-.06-.86l-3.48-2.26c-.4-.26-1.02-.31-1.39-.08l-3.74,2.19c-.36.21-.34.6.06.86Z"/>
            <path class="cls-88" d="M244.56,291.76l3.49,2.27c.39.25,1.02.29,1.39.08l3.73-2.2c.37-.21.34-.6-.06-.86l-3.48-2.26c-.4-.26-1.03-.3-1.4-.09l-3.73,2.2c-.37.21-.34.6.06.86Z"/>
            <path class="cls-88" d="M268.5,284.42l-3.74,2.19c-.37.22-.33.61.07.87l3.48,2.26c.4.26,1.02.31,1.39.08l3.74-2.19c.36-.21.34-.6-.06-.86l-3.49-2.27c-.4-.26-1.03-.3-1.39-.08Z"/>
            <path class="cls-88" d="M262.46,287.96l-3.75,2.19c-.36.21-.32.6.09.86l3.48,2.26c.4.26,1.02.31,1.38.09l3.75-2.19c.36-.21.33-.59-.07-.85l-3.49-2.27c-.4-.26-1.02-.31-1.38-.09Z"/>
            <path class="cls-88" d="M256.42,291.5l-3.75,2.19c-.36.21-.32.6.07.85l3.49,2.27c.4.26,1.02.31,1.38.09l3.75-2.2c.36-.21.32-.6-.09-.86l-3.48-2.26c-.4-.26-1.02-.31-1.38-.09Z"/>
            <path class="cls-88" d="M273.69,294.93l3.74-2.2c.37-.21.33-.59-.07-.85l-3.48-2.26c-.4-.26-1.02-.31-1.39-.1l-3.74,2.2c-.37.21-.33.59.07.85l3.49,2.27c.39.25,1.01.3,1.38.09Z"/>
            <path class="cls-88" d="M267.65,298.47l3.73-2.2c.38-.21.34-.6-.06-.86l-3.49-2.27c-.39-.25-1.01-.3-1.39-.08l-3.73,2.2c-.37.21-.34.6.06.86l3.48,2.26c.4.26,1.03.3,1.4.09Z"/>
            <path class="cls-88" d="M238.52,295.3l3.48,2.26c.4.26,1.02.31,1.4.09l3.73-2.2c.37-.21.34-.6-.06-.86l-3.49-2.27c-.39-.25-1.02-.29-1.39-.08l-3.73,2.2c-.38.21-.34.6.06.86Z"/>
            <path class="cls-88" d="M250.37,295.05l-3.74,2.19c-.36.21-.34.6.06.86l3.49,2.27c.4.26,1.03.3,1.39.08l3.74-2.19c.37-.22.33-.61-.07-.87l-3.48-2.26c-.4-.26-1.02-.31-1.39-.08Z"/>
            <path class="cls-88" d="M261.6,302l3.74-2.19c.36-.21.34-.6-.06-.86l-3.49-2.27c-.4-.26-1.02-.29-1.39-.08l-3.73,2.2c-.37.21-.34.6.06.86l3.48,2.26c.4.26,1.03.3,1.39.08Z"/>
            <path class="cls-88" d="M255.56,305.54l3.74-2.19c.36-.21.34-.6-.06-.86l-3.49-2.27c-.4-.26-1.03-.3-1.39-.08l-3.74,2.19c-.37.22-.33.61.07.87l3.48,2.26c.4.26,1.02.31,1.39.08Z"/>
            <path class="cls-88" d="M232.48,298.84l3.48,2.26c.4.26,1.02.31,1.38.09l3.75-2.19c.36-.21.33-.59-.07-.85l-3.49-2.27c-.4-.26-1.01-.3-1.38-.09l-3.74,2.2c-.37.21-.33.59.07.85Z"/>
            <path class="cls-88" d="M244.33,298.59l-3.74,2.19c-.36.21-.34.6.06.86l3.49,2.27c.4.26,1.02.29,1.39.08l3.73-2.2c.37-.21.34-.6-.06-.86l-3.48-2.26c-.4-.26-1.03-.3-1.39-.08Z"/>
            <path class="cls-88" d="M249.5,309.09l3.75-2.19c.36-.21.33-.59-.07-.85l-3.49-2.27c-.4-.26-1.02-.31-1.38-.09l-3.75,2.19c-.36.21-.32.6.09.86l3.48,2.26c.4.26,1.02.31,1.38.09Z"/>
            <path class="cls-88" d="M281.87,297.72l3.74-2.19c.36-.21.33-.61-.07-.87l-3.48-2.26c-.4-.26-1.03-.3-1.39-.08l-3.74,2.19c-.37.22-.33.61.06.86l3.49,2.27c.4.26,1.02.31,1.39.08Z"/>
            <path class="cls-88" d="M297.46,295.09l-3.49-2.27c-.4-.26-1.01-.3-1.39-.08l-5.69,3.33c-.36.21-.32.6.09.86l3.48,2.26c.4.26,1.02.31,1.38.09l5.69-3.33c.37-.22.34-.6-.06-.86Z"/>
            <path class="cls-88" d="M275.81,301.27l3.75-2.19c.36-.21.32-.6-.09-.86l-3.48-2.26c-.4-.26-1.02-.31-1.38-.09l-3.75,2.19c-.36.21-.33.59.07.85l3.49,2.27c.4.26,1.02.31,1.38.09Z"/>
            <path class="cls-88" d="M269.77,304.81l3.75-2.19c.36-.21.32-.6-.09-.86l-3.48-2.26c-.4-.26-1.02-.31-1.38-.09l-3.75,2.2c-.36.21-.33.59.07.85l3.49,2.27c.4.26,1.01.3,1.38.09Z"/>
            <path class="cls-88" d="M263.73,308.35l3.73-2.2c.38-.21.34-.6-.06-.86l-3.48-2.26c-.4-.26-1.02-.31-1.39-.08l-3.74,2.19c-.37.21-.34.6.06.86l3.49,2.27c.4.26,1.02.29,1.39.08Z"/>
            <path class="cls-88" d="M257.69,311.89l3.73-2.2c.37-.21.34-.6-.06-.86l-3.48-2.26c-.4-.26-1.03-.3-1.4-.09l-3.73,2.2c-.37.21-.34.6.06.86l3.48,2.26c.4.26,1.03.3,1.4.09Z"/>
            <path class="cls-88" d="M289.6,299.77l-3.49-2.27c-.4-.26-1.01-.3-1.39-.08l-27.99,16.4c-.37.21-.33.59.07.85l3.49,2.27c.4.26,1.01.3,1.38.09l27.99-16.4c.37-.22.34-.6-.06-.86Z"/>
            <path class="cls-88" d="M226.44,302.38l3.48,2.26c.4.26,1.02.31,1.38.09l3.75-2.19c.36-.21.33-.59-.07-.85l-3.49-2.27c-.4-.26-1.02-.31-1.38-.09l-3.75,2.19c-.36.21-.32.6.09.86Z"/>
            <path class="cls-88" d="M238.28,302.13l-3.74,2.19c-.38.21-.34.6.06.86l3.49,2.27c.4.26,1.01.3,1.39.08l3.73-2.2c.37-.21.34-.6-.06-.86l-3.48-2.26c-.4-.26-1.03-.3-1.39-.08Z"/>
            <path class="cls-88" d="M243.46,312.63l3.75-2.19c.36-.21.32-.6-.09-.86l-3.48-2.26c-.4-.26-1.02-.31-1.38-.09l-3.75,2.19c-.36.21-.33.59.07.85l3.49,2.27c.4.26,1.02.31,1.38.09Z"/>
            <path class="cls-88" d="M251.64,315.42l3.74-2.19c.36-.21.34-.6-.06-.86l-3.49-2.27c-.4-.26-1.02-.29-1.39-.08l-3.73,2.2c-.38.21-.34.6.06.86l3.48,2.26c.4.26,1.02.31,1.39.08Z"/>
            <path class="cls-88" d="M259.27,317.46l-3.48-2.26c-.4-.26-1.02-.31-1.38-.09l-3.75,2.19c-.36.21-.33.59.07.85l3.49,2.27c.4.26,1.01.3,1.38.09l3.74-2.2c.37-.21.33-.59-.07-.85Z"/>
            <path class="cls-88" d="M220.39,305.93l3.48,2.26c.4.26,1.03.3,1.39.08l3.74-2.19c.37-.22.34-.6-.06-.86l-3.49-2.27c-.4-.26-1.02-.31-1.39-.08l-3.74,2.19c-.36.21-.33.61.07.87Z"/>
            <path class="cls-88" d="M232.23,305.67l-3.74,2.2c-.37.21-.33.59.07.85l3.48,2.26c.4.26,1.02.31,1.39.1l3.74-2.2c.37-.21.33-.59-.07-.85l-3.48-2.26c-.4-.26-1.02-.31-1.39-.1Z"/>
            <path class="cls-88" d="M237.61,310.86c-.4-.26-1.02-.31-1.39-.08l-3.74,2.19c-.36.21-.34.6.06.86l3.49,2.27c.4.26,1.03.3,1.39.08l3.74-2.19c.37-.22.33-.61-.07-.87l-3.48-2.26Z"/>
            <path class="cls-88" d="M245.58,318.97l3.75-2.2c.36-.21.33-.59-.07-.85l-3.49-2.27c-.4-.26-1.02-.31-1.38-.09l-3.75,2.2c-.36.21-.32.6.09.86l3.48,2.26c.4.26,1.02.31,1.38.09Z"/>
            <path class="cls-88" d="M214.34,309.46l3.49,2.27c.4.26,1.03.3,1.39.08l3.74-2.19c.36-.21.33-.61-.07-.87l-3.48-2.26c-.4-.26-1.03-.3-1.39-.08l-3.74,2.19c-.36.21-.34.6.06.86Z"/>
            <path class="cls-88" d="M226.19,309.21l-3.74,2.2c-.37.21-.34.6.06.86l3.48,2.26c.4.26,1.03.3,1.39.08l3.75-2.19c.36-.21.33-.59-.07-.85l-3.49-2.27c-.4-.26-1.01-.3-1.38-.09Z"/>
            <path class="cls-88" d="M226.5,317.36l3.49,2.27c.4.26,1.02.29,1.39.08l3.73-2.2c.37-.21.34-.6-.06-.86l-3.48-2.26c-.4-.26-1.03-.3-1.39-.08l-3.74,2.19c-.36.21-.34.6.06.86Z"/>
            <path class="cls-88" d="M234.67,320.17l3.48,2.26c.4.26,1.03.3,1.39.08l3.75-2.19c.36-.21.33-.59-.07-.85l-3.49-2.27c-.4-.26-1.02-.31-1.38-.09l-3.75,2.2c-.36.21-.33.61.07.87Z"/>
            <path class="cls-88" d="M253.23,321l-3.48-2.26c-.4-.26-1.02-.31-1.4-.09l-3.73,2.2c-.37.21-.34.6.06.86l3.48,2.26c.4.26,1.03.3,1.4.09l3.73-2.2c.38-.21.34-.6-.06-.86Z"/>
            <path class="cls-88" d="M216.85,312.3l-3.48-2.26c-.4-.26-1.03-.3-1.39-.08l-3.74,2.19c-.37.22-.34.6.06.86l3.49,2.27c.4.26,1.02.31,1.39.08l3.74-2.19c.36-.21.33-.61-.07-.87Z"/>
            <path class="cls-88" d="M225.02,315.1l-3.49-2.27c-.4-.26-1.02-.31-1.39-.08l-5.69,3.33c-.36.21-.32.6.09.86l3.48,2.26c.4.26,1.02.31,1.38.09l5.69-3.33c.37-.22.34-.6-.06-.86Z"/>
            <path class="cls-88" d="M229.01,320.2l-3.48-2.26c-.4-.26-1.03-.3-1.4-.09l-3.73,2.2c-.38.21-.34.6.06.86l3.49,2.27c.39.25,1.01.3,1.39.08l3.73-2.2c.37-.21.34-.6-.06-.86Z"/>
            <path class="cls-88" d="M237.17,322.99l-3.48-2.26c-.4-.26-1.03-.3-1.39-.08l-5.69,3.33c-.36.21-.33.59.07.85l3.49,2.27c.4.26,1.02.31,1.38.09l5.69-3.33c.36-.21.33-.61-.07-.87Z"/>
            <path class="cls-88" d="M247.19,324.54l-3.49-2.27c-.4-.26-1.02-.29-1.39-.08l-3.73,2.2c-.37.21-.34.6.06.86l3.48,2.26c.4.26,1.03.3,1.39.08l3.74-2.19c.37-.21.34-.6-.06-.86Z"/>
            <path class="cls-88" d="M241.14,328.08l-3.49-2.27c-.4-.26-1.02-.29-1.39-.08l-3.74,2.19c-.37.22-.33.61.07.87l3.48,2.26c.4.26,1.02.31,1.39.08l3.74-2.19c.36-.21.34-.6-.06-.86Z"/>
          </g>
        </g>
      </g>
      <g>
        <g>
          <path class="cls-34" d="M341.82,267.18c-6.18-2.06-17.78-2.66-22.68.36-7.89,4.87-2.71,9.46,3.71,13.38,15.88,9.71,21.12,10.11,29.95,6.05,2.61-1.2,4.18-3.12,4.17-5.01-.01-1.9-4.24-11.16-15.15-14.78Z"/>
          <g>
            <path class="cls-74" d="M356.78,279.16c-1.33-3.41-6.37-9.97-13.98-12.87-6.09-2.32-13.78-4.69-22.9.59-.36.21-.69.42-.99.65-3.3,2.42-3.2,6.5.33,8.97,6.47,4.54,14.34,8.8,14.34,8.8,1.95,1.05,4.01,1.9,6.16,2.45,5.24,1.33,9.89.86,13.83-1.43,2.49-1.45,3.72-3.34,3.71-5.24,0-.38-.16-1.06-.5-1.92Z"/>
            <path class="cls-55" d="M331.18,267.81l-2.57-1.4c-.75-.36-1.87-.44-2.9.45-.63.54-.35.77.4,1.14l2.58,1.21c.75.36,2,.47,2.69,0,.69-.47.54-1.04-.21-1.4Z"/>
            <g class="cls-112">
              <g class="cls-110">
                <path class="cls-88" d="M329.52,265.72c-.87-.49-1.72-.51-2.53-.08l3.71,5.91c1.81-1.38.91-4.56-1.18-5.83Z"/>
                <path class="cls-46" d="M330.64,268.63c-.46-1.18-1.29-2.17-2.15-2.67-.42-.24-.85-.37-1.24-.33-.2.02-.37.07-.52.16-.22.14-.82.51-1.08,1.44-.63,2.24,1.96,6.02,4.6,4.62.77-.45.96-1.74.39-3.21Z"/>
                <path class="cls-90" d="M328.81,269.3c-.28-.74-.81-1.36-1.34-1.67-.26-.15-.53-.23-.78-.21-.74.06-1,1.01-.57,2.11.29.74.81,1.36,1.34,1.67.26.15.53.23.77.21.74-.06,1-1.01.58-2.11Z"/>
                <path class="cls-7" d="M330.9,268.48c-.03-.08-.07-.17-.1-.25-.25-.56-.58-1.07-.95-1.5-.34-.39-.71-.7-1.09-.92-.42-.24-.85-.37-1.24-.33-.2.02-.37.07-.52.16l-.26.15c.15-.09.33-.14.52-.16.39-.03.82.09,1.24.33.38.22.75.53,1.09.92.37.43.71.94.95,1.5.04.08.07.17.1.25.57,1.47.38,2.76-.39,3.21l.26-.15c.77-.45.96-1.74.39-3.21Z"/>
              </g>
            </g>
            <path class="cls-2" d="M354.03,284.63c-3.94,2.29-8.59,2.77-13.83,1.43-2.15-.55-4.2-1.4-6.16-2.45,0,0-7.87-4.26-14.34-8.8-1.96-1.37-2.85-3.24-2.7-5.04-1.08,2.25-.35,4.92,2.24,6.73,6.47,4.54,14.34,8.8,14.34,8.8,1.95,1.05,4.01,1.9,6.16,2.45,5.24,1.33,9.89.86,13.83-1.43,2.32-1.35,3.54-3.09,3.68-4.86-.57,1.16-1.64,2.25-3.21,3.17Z"/>
            <path class="cls-2" d="M353.79,285.44c-3.94,2.29-8.59,2.77-13.83,1.43-2.15-.55-4.2-1.4-6.16-2.45,0,0-7.87-4.26-14.34-8.8-2.09-1.47-2.97-3.5-2.65-5.41-.8,2.15,0,4.6,2.42,6.3,6.47,4.54,14.34,8.8,14.34,8.8,1.95,1.05,4.01,1.9,6.16,2.45,5.24,1.33,9.89.86,13.83-1.43,2.15-1.25,3.34-2.84,3.62-4.47-.5,1.32-1.63,2.57-3.39,3.59Z"/>
          </g>
        </g>
        <g class="cls-115">
          <path class="cls-10" d="M346.98,268.61c-7.85-4.67-17.28,2.98-11.76,7.2,2,1.53,10.83,7.29,17.43,4.83,1.59-.59,2.39-2.33,1.79-3.92-1.05-2.75-4.27-6.22-7.45-8.11Z"/>
        </g>
      </g>
      <g class="cls-110">
        <path class="cls-88" d="M289.82,44.33c-2.12-1.23-5.06-1.06-8.3.81l3.98,2.31c3.24-1.87,6.18-2.04,8.3-.81l-3.98-2.31Z"/>
        <polygon class="cls-88" points="281.53 45.15 253.57 61.28 257.56 63.59 285.51 47.46 281.53 45.15"/>
        <path class="cls-88" d="M257.56,63.59l-3.98-2.31c-6.44,3.72-11.65,12.74-11.63,20.14.01,3.68,1.31,6.27,3.4,7.48l3.98,2.31c-2.09-1.22-3.39-3.81-3.4-7.48-.02-7.39,5.19-16.42,11.63-20.14Z"/>
        <g>
          <path class="cls-98" d="M285.51,47.46l-27.95,16.14c-6.44,3.72-11.65,12.74-11.63,20.14.02,7.4,5.26,10.39,11.71,6.67l27.95-16.14c6.44-3.72,11.64-12.74,11.62-20.14-.02-7.39-5.26-10.39-11.7-6.67Z"/>
          <path class="cls-88" d="M252.4,92.26c-1.16,0-2.23-.27-3.17-.81-2.28-1.31-3.54-4.05-3.55-7.71-.02-7.47,5.25-16.6,11.76-20.35l27.95-16.14.12.22-.12-.22c3.21-1.85,6.23-2.14,8.53-.82,2.28,1.31,3.54,4.05,3.55,7.71.02,7.47-5.25,16.61-11.75,20.36l-27.95,16.14c-1.89,1.09-3.71,1.64-5.36,1.64ZM290.74,46.1c-1.56,0-3.3.53-5.1,1.57l-27.95,16.14c-6.37,3.67-11.53,12.61-11.51,19.92,0,3.48,1.18,6.06,3.3,7.28,2.13,1.23,4.99.94,8.03-.82l27.95-16.14c6.36-3.67,11.52-12.61,11.5-19.92,0-3.47-1.18-6.06-3.3-7.27-.87-.5-1.85-.75-2.92-.75Z"/>
        </g>
      </g>
      <g>
        <path class="cls-43" d="M331.55,346.44c-33.87-.32-27.62,8.06-7.54,8.09.91-.83.05-1.49.06-2.41,0-.79.95-2.35,1.74-2.31l7.3.15s.25-3.5-1.56-3.51Z"/>
        <path class="cls-7" d="M334.16,348.78c-.03-.39-.26-.78-.58-1-.12-.08-.25-.17-.34-.26-.71-.65-1.96-1.55-2.11-1.61-.72-.28-1.62-.53-2.05-.23-.33.23-.31.96-.15,1.18.44.65,2.94,3.09,3.17,3.21.76.42,2.16.07,2.11-.59-.02-.2-.03-.42-.05-.7Z"/>
        <path class="cls-7" d="M327.29,352.53c-.13-.2-2.05-.49-2.05-.49-.37-.06-1.2-.17-1.65-.19-1.24-.06-2.67-.48-3.07-.12-.27.23-.23,1.02-.08,1.35.26.57.98,1.17,5.77,2,.51.09.97,0,1.28-.16.25-.13.59-.39.47-.78-.18-.59-.56-1.46-.65-1.61Z"/>
        <g>
          <path class="cls-88" d="M331.13,345.31c-1.27-.49-2.56.42-2.2.95.44.65,2.94,3.09,3.17,3.21.76.42,2.13.07,2.08-.59-.02-.2-.03-.45-.05-.73-.03-.39-.22-.75-.55-.96-.12-.08-.25-.17-.34-.26-.71-.65-1.96-1.55-2.11-1.61Z"/>
          <path class="cls-88" d="M327.29,351.92c-.13-.2-2.05-.49-2.05-.49-.37-.06-1.2-.17-1.65-.19-1.24-.06-2.57-.05-2.97.31-.27.23-.33.6-.18.92.26.57.98,1.17,5.77,2,.51.09.97,0,1.28-.16.25-.13.44-.32.32-.71-.18-.59-.41-1.52-.51-1.67Z"/>
          <path class="cls-79" d="M324.31,326.87c-.11,1.03-.43,11.66-.39,12.26.09,1.2.14,3.76.14,5.61,0,2.35.18,7.12.18,7.12.07,1.13,2.8,1.37,3.08.37l.98-7.18c.31-1.6-.03-2.89-.04-4.51.15-2.12,1.63-8.37,2.55-11.94.13-.5-.09-1.03-.37-1.46-1.3-2-5.49-2.47-6.14-.26Z"/>
          <path class="cls-79" d="M334.12,336.96c-.39-2.27.3-4.79.22-7.09-.05-1.32-.1-3.45-.62-4.94-.03-.09-.13-.12-.21-.08-1.76.86-3.29.75-4.08,2.18l-.73,1.63c.31,2.03.64,4.31,1.17,6.6.25,1.05.34,2.05.65,3.39.13.59.23,1.19.31,1.78.16,1.2.15,1.81.16,1.91.07,1.22.4,2.25.46,4.91.12,1.05,2.66,1.29,2.67.38,0-.78.15-1.81.26-2.33.46-2.14.69-3.58.35-5.75-.17-1.07-.41-1.52-.59-2.59Z"/>
          <path class="cls-36" d="M315.07,315.44c-.06-.05-.11-.12-.12-.2-.07-.35-.19-1.43.6-2.56.76-1.08,1.57.76,1.57.76l-.98,2.85-1.07-.86Z"/>
          <g class="cls-110">
            <path class="cls-88" d="M316.38,315.71l-2.81-6.52c-.05-.11-.02-.24.06-.29l3.76-2.36s.03-.02.05-.02l-.15.02s-.03,0-.05.02l-3.76,2.36c-.08.05-.11.18-.06.29l2.81,6.52c.04.09.11.13.18.12l.15-.02c-.07.01-.15-.04-.18-.12Z"/>
            <path class="cls-79" d="M320.44,313.17l-2.81-6.52c-.05-.11-.15-.15-.23-.1l-3.76,2.36c-.08.05-.11.18-.06.29l2.81,6.52c.05.11.15.15.23.1l3.76-2.36c.08-.05.11-.18.06-.29Z"/>
          </g>
          <path class="cls-36" d="M327.31,315.8c-.95-.47-2.66-1.37-3.1-1.7l-1.05-1.29c-.21-.26-.52-.44-.86-.49-1.54-.24-1.37-.15-1.94.04-.3.06-.52.25-.58.32-.12.14-.41.21-.55.33-.15.12-.24.35-.12.49.1.12.28.1.44.08,1.35-.15,2.46.31,2.48.43.02.09-.35.25-1.13.31-.15.01-.32-.03-.45.04-.14.07-.22.27-.11.38.03.03.07.05.11.06.39.15.83.14,1.25.16.36.02.69.14.99.3.3.16.59.35.87.55.65.46,3.36,2.63,3.61,2.73-.15-.91.17-1.81.17-2.73Z"/>
          <path class="cls-36" d="M323.23,314.63c-1.15,1.07-3.51,4.38-3.51,4.38,0,0-2.61-2.81-3.46-3.85.04-.72.02-1.06.46-1.73.27-.4-.07-.59-.36-.42-.77.46-1.15.81-1.41,1.6-.08.25-.09.81.27,1.61.6,1.32,3.51,6.11,4.69,6.11,1.41,0,4.53-3.56,4.93-4.02.47-.54-1.3-3.98-1.61-3.69Z"/>
          <path class="cls-88" d="M323.76,313.63c-1.41.52-1.47,1.9-1.14,2.88.11.33.25.21.39.53,1.11,2.4,1.54,5.05,1.42,7.69-.04.96-.1,1.82-.15,2.27-.35,2.91,10.39,2.45,9.56-1.6-.38-1.82-.67-4.66-.14-6.3.53-1.63.96-3.28,1.32-4.96.64-3.01-3.25-2.37-4.12-2.35-.88.03-5.24,1.14-7.14,1.84Z"/>
          <path class="cls-88" d="M323.06,314.03c-.63.58-2.1,2.57-2.82,3.49-.58.75,2.06,3.46,3.1,2.82.38-.23,2.19-2.59,2.44-2.86,1.68-1.82-1.15-4.9-2.72-3.45Z"/>
          <g>
            <path class="cls-13" d="M328.42,313.75c1.38-.25,2.43-.88,2.35-1.41-.03-.18-.26-.35-.51-.46-1.28.23-4.25.96-4.39,1.08-.13.11-.11.21-.1.28.08.53,1.27.76,2.65.51Z"/>
            <path class="cls-13" d="M325.23,307.05c-.02.14-.64.81-.71.93-.11.2.16.52.16.59,0,.23-.06.4-.12.62-.12.42-.18.86.02,1.2.24.42.86.47,1.16.85.11.14.16.31.21.47l.31,1.27c.34,1.09,4.3.04,3.96-.73-.22-.5-.26-1.17-.16-1.31.21-.28.57-.77.86-1.39.71-1.54.24-3.37-1.2-4.26-.52-.32-1.15-.53-1.9-.59-.64-.05-1.59.1-2.16,1-.21.34-.33.75-.43,1.35Z"/>
            <path class="cls-79" d="M326.47,307.59c.17.14.22.38.12.58-.14.26-.29.55-.24.7.03.07.1.13.17.12.07-.01.12-.08.17-.13.49-.58,1.32.11.54,1.05-.83,1-.33,1.62.49,1.87,1.08.32,2.44-.31,3-1.29.39-.67.7-1.49.79-2.27.25-2.25-1.56-4.07-4-4.13-1.98-.04-2.1,1.53-2.04,2.14.05.53.63,1.07,1,1.37Z"/>
          </g>
        </g>
      </g>
      <g>
        <g>
          <path class="cls-79" d="M234.37,295.88c.15.44.38.85.54,1.27.47,1.23.53,2.53.6,3.83,0,.07.01.14.06.18.03.02.07.03.1.04,1.22.22,2.18-1.5,2.7-2.39.56-.98,1.12-2.31.95-3.46-.22-1.46-1.03-3.35-2.76-3.41-2.09-.07-2.79,2.27-2.21,3.93Z"/>
          <path class="cls-7" d="M259.18,333.19c-.21-.48-3.21-3.24-3.32-4l-1.68.16c.26.2,0,.57-.15.86-.15.29-.17.5-.16.83,0,.7.77,1.28,1.26,1.86.84.99,1.73,1.82,2.12,1.99.62.27,1.7.22,2.01-.53.16-.38.09-.79-.08-1.19Z"/>
          <path class="cls-7" d="M253.48,332.4c-.14-.15-.23-.37-.16-.57l-1.95-.28c-.28-.04-.56.09-.7.34-.26.45-.61,1,0,1.54.18.16,2.66,2.5,3.54,2.81,1.41.49,3.12-.16,2.47-1.4-.32-.6-3.05-2.28-3.19-2.44Z"/>
          <path class="cls-88" d="M258.97,332.64c-.21-.48-3.01-3.38-3.12-4.13l-1.68.16c.26.2.18.61.03.91-.15.29-.28.59-.28.92,0,.7.7,1.15,1.19,1.73.84.99,1.73,1.82,2.12,1.99.62.27,1.5.35,1.81-.39.16-.38.09-.79-.08-1.19Z"/>
          <path class="cls-88" d="M253.08,330.92l-1.62-.28c-.14.19-1.6,1.47-.8,2.2.18.16,2.66,2.5,3.54,2.81,1.41.49,2.97-.06,2.31-1.3-.57-1.07-3.03-1.97-3.43-3.42Z"/>
          <path class="cls-79" d="M256.27,328.83c-.63-1.58-2.24-6.29-2.84-8.52-.07-.27-.15-.65-.23-1.3-.07-.59-.29-1.17-.71-1.6-3.54-3.6-9.28-5.44-10.71-7.56l-1.86,6.43c2.69,1.94,9.76,3.25,10.11,3.4-.09,1.96.14,4.06,1.34,5.62.81,1.05,2.62,3.69,2.7,3.99.16.65,2.54.37,2.21-.45Z"/>
          <path class="cls-79" d="M248.38,321.36c-.2-.58-.55-1.1-1.03-1.49-1.9-1.52-6.42-4.69-6.52-4.99-.15-.45.11-.93.34-1.35.28-.52.51-1.06.69-1.62.1-.29.18-.6.13-.91-.11-.65-.82-1.26-.5-1.84l-6.57,1.48c-1.44,1.25-1.32,4.74.21,6.58.81.98,2.37,1.81,3.46,2.44,1.74,1.01,3.93,2.13,5.81,2.96,1.75,3.54,3.47,3.96,6.52,8.81.39.87,2.56-.07,2.19-.65-5.25-8.16-4.11-7.58-4.73-9.43Z"/>
          <path class="cls-88" d="M247.58,312.18c-.32-1.19-2.75-6.31-3.12-7.12,0,0-.77-6.34-1.61-7.6-.3-.45-.89-.72-1.42-.59-.87.3-.83.84-.7,1.59.13.75.99,7.18,1.38,7.88.85,1.51,3.57,6.52,3.63,6.63.38.77,2.11.01,1.84-.79Z"/>
          <path class="cls-88" d="M235.75,300.01c-1.01.8-.93,1.65-.61,2.79.34,1.2.96,2.38.88,3.67-.08,1.35-.93,2.51-1.43,3.77-.09.23-.17.46-.16.71.03.71.76,1.17,1.44,1.37,1.91.57,4.1.11,5.61-1.19.27-.23.53-.5.62-.84.27-.99-.93-1.95-.66-2.94.2-.74,1.07-1.03,1.63-1.56.49-.45.75-1.13.69-1.8-.11-1.33-1.37-2.32-1.58-3.64-.11-.68.07-1.36.1-2.05.03-.64-.2-1.4-.99-1.34-.86.06-1.98,1-2.75,1.39-.96.49-1.94.98-2.79,1.66Z"/>
          <path class="cls-97" d="M240.93,298.1c-.19-.12-.4-.2-.62-.27-.15-.05-1.2-1.02-1.29-.89-.46.64-.17,1.13-.89,1.92-1.21,1.33,2.36,3.96,3.21,1.38.12-.37.25-.64.31-1,.07-.47-.36-.92-.72-1.14Z"/>
          <g>
            <path class="cls-88" d="M238.08,292.78c.23.27.13.74-.23,1.05-.36.31-.84.34-1.07.08-.23-.27-.13-.74.23-1.05.36-.31.84-.34,1.07-.08Z"/>
            <g>
              <path class="cls-3" d="M242.71,298.8c.05-.36.06-.73-.03-1.04-.23-.8.46-2.03-.25-2.97-.8-1.05-1.44-.88-2.02-.68-1.05.37-3.7,1.32-3.3,2.35.94,2.43,2.18,3.16,2.91,3.52.52.26,1.81,1.03,2.3.33.16-.23.2-.55.27-.82.05-.21.1-.44.13-.68Z"/>
              <path class="cls-79" d="M242.06,293.73c-2.26-2.7-6.03-.92-5.75,1.91.25,2.54,2.05,3.26,2.48,3.48-.11-.23-.56-.88-.55-1.17,0-.26.24-.33.45-.25.16.06.3.19.41.32.1.11.48.76.49.24,0-.33-.12-.74.2-.98.15-.11.33-.16.49-.23.5-.21.89-.59,1.23-.99.29-.34.99-.38,1.17-.73.22-.43-.37-1.29-.63-1.59Z"/>
            </g>
          </g>
          <path class="cls-88" d="M242.34,314.68c-1.17-1.14-5.56-5.41-5.56-5.41,0-2.4.92-8.64-1.6-8.63-.79,0-1.37.85-1.57,1.62-.15.56-.2,7.4.56,8.25,1.06,1.19,4.58,4.16,6.92,5.27.73.31,1.77-.55,1.25-1.11Z"/>
          <path class="cls-3" d="M238,298.01c0,.59.42.86.94,1.06l.42-.6c-.63-1.28-1.36-.99-1.36-.45Z"/>
        </g>
        <g>
          <g>
            <g class="cls-110">
              <path class="cls-81" d="M240.26,317.28v.19s.02.06.06.09l4.9,2.83c.09.05.22.05.31,0l6.93-4.03s.06-.06.06-.09v-.19s-12.27,1.2-12.27,1.2Z"/>
              <path class="cls-88" d="M252.47,315.99l-4.9-2.83c-.09-.05-.22-.05-.31,0l-6.93,4.03c-.08.05-.08.13,0,.18l4.9,2.83c.09.05.22.05.31,0l6.93-4.03c.08-.05.08-.13,0-.18Z"/>
            </g>
            <path class="cls-9" d="M243.67,318.44l-.31.18s-.08.02-.11,0l-.26-.15s-.03-.05,0-.06l.31-.18s.08-.02.11,0l.26.15s.03.05,0,.06ZM244.17,318.09l-.26-.15s-.08-.02-.11,0l-.31.18s-.03.05,0,.06l.26.15s.08.02.11,0l.31-.18s.03-.05,0-.06ZM244.67,317.81l-.26-.15s-.08-.02-.11,0l-.31.18s-.03.05,0,.06l.26.15s.08.02.11,0l.31-.18s.03-.05,0-.06ZM245.16,317.52l-.26-.15s-.08-.02-.11,0l-.31.18s-.03.05,0,.06l.26.15s.08.02.11,0l.31-.18s.03-.05,0-.06ZM245.66,317.23l-.26-.15s-.08-.02-.11,0l-.31.18s-.03.05,0,.06l.26.15s.08.02.11,0l.31-.18s.03-.05,0-.06ZM246.16,316.95l-.26-.15s-.08-.02-.11,0l-.31.18s-.03.05,0,.06l.26.15s.08.02.11,0l.31-.18s.03-.05,0-.06ZM246.66,316.66l-.26-.15s-.08-.02-.11,0l-.31.18s-.03.05,0,.06l.26.15s.08.02.11,0l.31-.18s.03-.05,0-.06ZM247.15,316.37l-.26-.15s-.08-.02-.11,0l-.31.18s-.03.05,0,.06l.26.15s.08.02.11,0l.31-.18s.03-.05,0-.06ZM247.65,316.08l-.26-.15s-.08-.02-.11,0l-.31.18s-.03.05,0,.06l.26.15s.08.02.11,0l.31-.18s.03-.05,0-.06ZM248.31,315.7l-.26-.15s-.08-.02-.11,0l-.47.27s-.03.05,0,.06l.26.15s.08.02.11,0l.47-.27s.03-.05,0-.06ZM250.18,316.2l-.26-.15s-.08-.02-.11,0l-.31.18s-.03.05,0,.06l.26.15s.08.02.11,0l.31-.18s.03-.05,0-.06ZM250.68,315.91l-.26-.15s-.08-.02-.11,0l-.31.18s-.03.05,0,.06l.26.15s.08.02.11,0l.31-.18s.03-.05,0-.06ZM251.17,315.63l-.26-.15s-.08-.02-.11,0l-.31.18s-.03.05,0,.06l.26.15s.08.02.11,0l.31-.18s.03-.05,0-.06ZM250.63,316.46l-.26-.15s-.08-.02-.11,0l-.31.18s-.03.05,0,.06l.26.15s.08.02.11,0l.31-.18s.03-.05,0-.06ZM251.13,316.18l-.26-.15s-.08-.02-.11,0l-.31.18s-.03.05,0,.06l.26.15s.08.02.11,0l.31-.18s.03-.05,0-.06ZM251.63,315.89l-.26-.15s-.08-.02-.11,0l-.31.18s-.03.05,0,.06l.26.15s.08.02.11,0l.31-.18s.03-.05,0-.06ZM244.29,318.55l-.26-.15s-.08-.02-.11,0l-.47.27s-.03.05,0,.06l.26.15s.08.02.11,0l.47-.27s.03-.05,0-.06ZM244.79,318.26l-.26-.15s-.08-.02-.11,0l-.31.18s-.03.05,0,.06l.26.15s.08.02.11,0l.31-.18s.03-.05,0-.06ZM245.29,317.97l-.26-.15s-.08-.02-.11,0l-.31.18s-.03.05,0,.06l.26.15s.08.02.11,0l.31-.18s.03-.05,0-.06ZM245.79,317.69l-.26-.15s-.08-.02-.11,0l-.31.18s-.03.05,0,.06l.26.15s.08.02.11,0l.31-.18s.03-.05,0-.06ZM246.28,317.4l-.26-.15s-.08-.02-.11,0l-.31.18s-.03.05,0,.06l.26.15s.08.02.11,0l.31-.18s.03-.05,0-.06ZM246.78,317.11l-.26-.15s-.08-.02-.11,0l-.31.18s-.03.05,0,.06l.26.15s.08.02.11,0l.31-.18s.03-.05,0-.06ZM247.28,316.83l-.26-.15s-.08-.02-.11,0l-.31.18s-.03.05,0,.06l.26.15s.08.02.11,0l.31-.18s.03-.05,0-.06ZM247.78,316.54l-.26-.15s-.08-.02-.11,0l-.31.18s-.03.05,0,.06l.26.15s.08.02.11,0l.31-.18s.03-.05,0-.06ZM248.28,316.25l-.26-.15s-.08-.02-.11,0l-.31.18s-.03.05,0,.06l.26.15s.08.02.11,0l.31-.18s.03-.05,0-.06ZM248.77,315.96l-.26-.15s-.08-.02-.11,0l-.31.18s-.03.05,0,.06l.26.15s.08.02.11,0l.31-.18s.03-.05,0-.06ZM244.57,318.9l-.26-.15s-.08-.02-.11,0l-.31.18s-.03.05,0,.06l.26.15s.08.02.11,0l.31-.18s.03-.05,0-.06ZM245.07,318.62l-.26-.15s-.08-.02-.11,0l-.31.18s-.03.05,0,.06l.26.15s.08.02.11,0l.31-.18s.03-.05,0-.06ZM245.57,318.33l-.26-.15s-.08-.02-.11,0l-.31.18s-.03.05,0,.06l.26.15s.08.02.11,0l.31-.18s.03-.05,0-.06ZM246.07,318.04l-.26-.15s-.08-.02-.11,0l-.31.18s-.03.05,0,.06l.26.15s.08.02.11,0l.31-.18s.03-.05,0-.06ZM245.48,319.42l-.26-.15s-.08-.02-.11,0l-.31.18s-.03.05,0,.06l.26.15s.08.02.11,0l.31-.18s.03-.05,0-.06ZM245.97,319.14l-.26-.15s-.08-.02-.11,0l-.31.18s-.03.05,0,.06l.26.15s.08.02.11,0l.31-.18s.03-.05,0-.06ZM246.47,318.85l-.26-.15s-.08-.02-.11,0l-.31.18s-.03.05,0,.06l.26.15s.08.02.11,0l.31-.18s.03-.05,0-.06ZM246.97,318.56l-.26-.15s-.08-.02-.11,0l-.31.18s-.03.05,0,.06l.26.15s.08.02.11,0l.31-.18s.03-.05,0-.06ZM250.11,316.75l-.26-.15s-.08-.02-.11,0l-.47.27s-.03.05,0,.06l.26.15s.08.02.11,0l.47-.27s.03-.05,0-.06ZM246.57,317.75l-.26-.15s-.08-.02-.11,0l-.31.18s-.03.05,0,.06l.26.15s.08.02.11,0l.31-.18s.03-.05,0-.06ZM247.06,317.47l-.26-.15s-.08-.02-.11,0l-.31.18s-.03.05,0,.06l.26.15s.08.02.11,0l.31-.18s.03-.05,0-.06ZM247.56,317.18l-.26-.15s-.08-.02-.11,0l-.31.18s-.03.05,0,.06l.26.15s.08.02.11,0l.31-.18s.03-.05,0-.06ZM248.06,316.89l-.26-.15s-.08-.02-.11,0l-.31.18s-.03.05,0,.06l.26.15s.08.02.11,0l.31-.18s.03-.05,0-.06ZM248.56,316.61l-.26-.15s-.08-.02-.11,0l-.31.18s-.03.05,0,.06l.26.15s.08.02.11,0l.31-.18s.03-.05,0-.06ZM249.21,316.23l-.26-.15s-.08-.02-.11,0l-.47.27s-.03.05,0,.06l.26.15s.08.02.11,0l.47-.27s.03-.05,0-.06ZM245.2,319.07l-.26-.15s-.08-.02-.11,0l-.47.27s-.03.05,0,.06l.26.15s.08.02.11,0l.47-.27s.03-.05,0-.06ZM245.7,318.78l-.26-.15s-.08-.02-.11,0l-.31.18s-.03.05,0,.06l.26.15s.08.02.11,0l.31-.18s.03-.05,0-.06ZM246.19,318.5l-.26-.15s-.08-.02-.11,0l-.31.18s-.03.05,0,.06l.26.15s.08.02.11,0l.31-.18s.03-.05,0-.06ZM246.69,318.21l-.26-.15s-.08-.02-.11,0l-.31.18s-.03.05,0,.06l.26.15s.08.02.11,0l.31-.18s.03-.05,0-.06ZM247.19,317.92l-.26-.15s-.08-.02-.11,0l-.31.18s-.03.05,0,.06l.26.15s.08.02.11,0l.31-.18s.03-.05,0-.06ZM247.69,317.63l-.26-.15s-.08-.02-.11,0l-.31.18s-.03.05,0,.06l.26.15s.08.02.11,0l.31-.18s.03-.05,0-.06ZM248.18,317.35l-.26-.15s-.08-.02-.11,0l-.31.18s-.03.05,0,.06l.26.15s.08.02.11,0l.31-.18s.03-.05,0-.06ZM248.68,317.06l-.26-.15s-.08-.02-.11,0l-.31.18s-.03.05,0,.06l.26.15s.08.02.11,0l.31-.18s.03-.05,0-.06ZM249.18,316.77l-.26-.15s-.08-.02-.11,0l-.31.18s-.03.05,0,.06l.26.15s.08.02.11,0l.31-.18s.03-.05,0-.06ZM249.68,316.49l-.26-.15s-.08-.02-.11,0l-.31.18s-.03.05,0,.06l.26.15s.08.02.11,0l.31-.18s.03-.05,0-.06ZM248.82,315.41l-.26-.15s-.08-.02-.11,0l-.31.18s-.03.05,0,.06l.26.15s.08.02.11,0l.31-.18s.03-.05,0-.06ZM249.31,315.13l-.26-.15s-.08-.02-.11,0l-.31.18s-.03.05,0,.06l.26.15s.08.02.11,0l.31-.18s.03-.05,0-.06ZM249.81,314.84l-.26-.15s-.08-.02-.11,0l-.31.18s-.03.05,0,.06l.26.15s.08.02.11,0l.31-.18s.03-.05,0-.06ZM250.27,315.1l-.26-.15s-.08-.02-.11,0l-.31.18s-.03.05,0,.06l.26.15s.08.02.11,0l.31-.18s.03-.05,0-.06Z"/>
          </g>
          <path class="cls-3" d="M245.26,317.75s.04-.03.06-.04c.15-.12.25-.28.31-.46.21-.67-.36-1.39-.71-1.9-.13-.19-.24-.39-.46-.49-.17-.07-.36-.1-.55-.14-.49-.1-1,.05-1.57-.04-.44-.07-1.38.71-1.08.99.86.79,1.89.84,2.08.96.32.2.54.64.7.97.07.16.14.33.27.45s.35.16.48.04c.06-.06.09-.14.16-.19.05-.03.1-.05.15-.07.06-.02.11-.05.16-.08Z"/>
          <path class="cls-3" d="M248.23,313.72c-.35-.59-.58-1.02-.8-1.31-.3-.54-1.5-.19-1.4.39.05.23.37,1.36.43,1.59.11.39.18,1.89.59,2,.34.09,1.84-.3,1.79-.92,0,0-.19-1.04-.61-1.75Z"/>
          <g>
            <path class="cls-81" d="M245.51,320.39l1.67-4.69-.05-.05-1.67,4.69c-.02.06-.02.1,0,.12l.05.05s-.02-.06,0-.12Z"/>
            <path class="cls-88" d="M254.47,311.29s-.1-.02-.18.03l-6.79,3.92c-.15.09-.31.27-.36.41l.05.05c.05-.14.21-.32.36-.41l6.79-3.92c.09-.05.15-.06.18-.03l-.05-.05Z"/>
            <path class="cls-9" d="M254.34,311.37l-6.79,3.92c-.15.09-.31.27-.36.41l-1.67,4.69c-.05.14.04.18.19.09l6.79-3.92c.15-.09.31-.27.36-.41l1.67-4.69c.05-.14-.04-.17-.19-.09Z"/>
          </g>
        </g>
      </g>
      <g>
        <path class="cls-8" d="M381.01,262.37s-15.94-.03-19.38,3.39c-2.6,2.59,3.01,4.38,12.41,3.78.2-.01.53-2.46.53-2.46l9.91-.42c.31-.03-3.48-4.29-3.48-4.29Z"/>
        <g id="_16" data-name="16">
          <g>
            <path class="cls-24" d="M382.2,229.14c-.86.12-3.24.72-3.54.55-1-.55-2.62-1.9-3-2.32-.24-.27-.23-1.55-.13-2.2.15-.94-.44-.81-.47-1.84,0-.12,0-.25-.04-.36-.05-.11-.17-.2-.29-.17-.21.07-.27.65-.24.86.04.23.17.43.21.66.06.4-.19.49-.47-.01-.36-.64-1.34-2.36-1.61-1.84-.19.35,1.15,1.86.85,2.06-.2.12-1.44-1.77-1.7-1.9-.09-.05-.21-.05-.29.03-.14.14,0,.33.12.48.28.3,1.45,1.88,1.28,1.98-.16.09-1.36-1.66-1.75-1.7-.1,0-.21.05-.21.16,0,.36,1.05,1.41,1.27,1.72.12.17.33.36.2.49-.2.15-1.16-1.23-1.43-1.01-.29.39.48.87,2.46,2.98,1.12,1.19,4.36,4.79,5.24,5.03.88.24,3.33-.2,3.33-.2.43-.22,1.32-.68,1.61-1.07.51-.69.26-2.6-1.41-2.36Z"/>
            <path class="cls-88" d="M377.62,266.7c-.02-.19-.02-.33,0-.48l-2.14.22c-3.57.22-5.35.08-5.39,1.34-.43,2.47,4.87,2.14,7.38,1.81,1.34-.18.23-2.32.14-2.9Z"/>
            <path class="cls-88" d="M385.13,263.02l-1.53-1.15c-.27-.37-.22-.48-.58-.77-.57-.46-2.33-.28-2.35.64-.07.59.05.86.15,1.04.3.54,1.73,2.53,2.06,3.04.86,1.32,2.74,1.01,2.71.1-.02-.57.13-.39-.46-2.9Z"/>
            <path class="cls-79" d="M385.7,257.28c-.03-.55-.12-1.11-.23-1.65-1.52-7.68-.19-11.02-1.46-13.08l-10.16,2.09c-.83,6.47.39,6.56.33,10.31-.02,1.39.12,2.86.06,4.25-.13,3.47.74,5.13.51,7.3.05,1,3.08,1.16,3.06.19-.05-2.48,1.05-5.64.59-7.93-.13-.67-.19-1.42-.23-2.1-.03-.67.23-2.87,1.54-7.19,0,0,1.52,4.63,1.56,5.95,0,.32.02.64.04.93.05,1.1.29,2.18.66,3.21.29.82.59,1.95.61,4,.01,1.26,2.87,1.18,2.83.25-.11-3.03.41-4.38.29-6.55Z"/>
            <path class="cls-88" d="M384.1,225.86c4.29-.5-.97,9.89.52,17.79,1.1,4.75-11.64,5.34-10.87,1.31.54-3.44,1.99-8.1,1.52-11.89-.11-.87-.59-1.96-.22-2.81.31-.72,7.05-4.18,9.04-4.41Z"/>
          </g>
          <path class="cls-24" d="M373.93,232.1c-1.01,1.48-3.83,4.24-3.83,4.24,0,0-3.35.5-3.54.5-.45-.01-1.45-1.4-1.57-1.68-.12-.28-.4-.53-.65-.7-.45-.3-.72-.08-1.19-.04-.74.07-1.49-.02-1.71.84-.23.92-.36,2.19.6,2.53,1.22.43,3.2.89,3.2.89.29,0,5.14.82,5.54.75.3-.05,5.74-3.81,6.07-4.42.39-.72-2.66-3.3-2.93-2.91Z"/>
          <path class="cls-88" d="M376.17,229.85c-.18-.13-.78.08-.94.24-.68.69-3.07,3.21-3.91,4.24-.68.84,1.95,3.78,3.15,3.07.44-.26,3.21-2.33,3.39-2.72.42-.91-.69-4.11-1.7-4.84Z"/>
          <g class="cls-110">
            <path class="cls-88" d="M371.05,215.65c-1.24-.72-2.97-.62-4.87.48l2.34,1.36c1.9-1.1,3.63-1.2,4.87-.48l-2.34-1.36Z"/>
            <polygon class="cls-88" points="366.17 216.12 355.32 222.39 357.66 223.74 368.51 217.48 366.17 216.12"/>
            <path class="cls-88" d="M357.66,223.74l-2.34-1.36c-3.78,2.18-6.84,7.48-6.83,11.82,0,2.16.77,3.68,2,4.39l2.34,1.36c-1.23-.71-1.99-2.23-2-4.39-.01-4.34,3.05-9.64,6.83-11.82Z"/>
            <path class="cls-69" d="M368.51,217.48l-10.85,6.27c-3.78,2.18-6.84,7.48-6.83,11.82.01,4.35,3.09,6.1,6.87,3.92l10.85-6.27c3.78-2.18,6.84-7.48,6.82-11.82-.01-4.34-3.09-6.1-6.87-3.91Z"/>
            <path class="cls-88" d="M368.76,225.68v-1.48l-1.31.55c-.11-.46-.32-.82-.6-1.1l.78-1.53-1.05-.44-1.08,1.4c-.44-.03-.92.04-1.44.23l-.21-1.19-1.48.86-.21,1.43c-.52.42-1.01.9-1.44,1.44l-1.08-.16-1.05,1.66.78.63c-.28.6-.49,1.2-.6,1.79l-1.31.97v1.48l1.31-.55c.11.46.32.82.6,1.1l-.78,1.53,1.05.44,1.08-1.4c.44.03.92-.04,1.44-.23l.21,1.19,1.48-.86.21-1.43c.52-.42,1.01-.9,1.44-1.44l1.08.16,1.05-1.66-.78-.63c.28-.6.49-1.2.6-1.79l1.31-.97ZM363.11,230.04c-1.01.59-1.84.24-1.84-.78s.82-2.31,1.84-2.9c1.01-.59,1.84-.24,1.84.78s-.82,2.31-1.84,2.9Z"/>
          </g>
          <g>
            <path class="cls-24" d="M377.69,220.49c-.64.63-.98,1.55-.92,2.44,0,.1.02.21-.02.3-.06.14-.21.2-.34.28s-.26.2-.23.35c.02.11.13.18.19.28.05.09.07.2.08.3.04.43.08.86.06,1.3,0,.14-.02.28.02.41.11.36.55.47.91.59.19.06.28.12.36.36.22.67.21.99.17,1.51-.08,1.05,4.36.17,3.8-1.2-.07-.18-.18-.78-.07-.98.35-.61,1.51-1.01,1.58-3,.15-4.25-3.93-4.57-5.58-2.93Z"/>
            <path class="cls-89" d="M378.3,224.32c-.13.53.85.6.95.23.27-.58.86-.45,1.1-.08.31.48.14,1.03-.37,1.64-.21.25-.13.66.18.78,1.02.41,3.27-1.56,3.66-3.93.29-1.9-.21-3-1.61-3.75-.69-.37-1.8-.57-2.35-.57-2.22,0-3.31,1.42-3.12,3.06.03.26.21.49.45.59.64.25,1.45.65,1.12,2.03Z"/>
          </g>
        </g>
      </g>
      <path class="cls-88" d="M89.95,176.01c.11,1.13,1.05,1.53,2.25.95l3.65-1.78-3.65,2.44c-1.19.8-2.14,2.29-2.25,3.55l-.33,3.84-.33-3.46c-.11-1.13-1.05-1.53-2.25-.95l-3.65,1.78,3.65-2.44c1.19-.8,2.14-2.29,2.25-3.55l.33-3.84.33,3.46Z"/>
      <path class="cls-88" d="M80.21,171.78c.03.32.29.43.63.26l1.02-.5-1.02.68c-.33.22-.6.64-.63.99l-.09,1.07-.09-.97c-.03-.32-.29-.43-.63-.26l-1.02.5,1.02-.68c.33-.22.6-.64.63-.99l.09-1.07.09.97Z"/>
      <path class="cls-31" d="M113.45,139.32c0,4.91-3.98,11.18-8.89,14.02-4.91,2.83-8.89,1.15-8.89-3.76s3.98-11.18,8.89-14.02c4.91-2.83,8.89-1.15,8.89,3.76Z"/>
      <path class="cls-88" d="M257.99,42.63c0,1.57-1.27,3.58-2.84,4.49-1.57.91-2.84.37-2.84-1.2s1.27-3.58,2.84-4.49c1.57-.91,2.84-.37,2.84,1.2Z"/>
      <g>
        <path class="cls-88" d="M307.9,63.06c.12,1.22,1.14,1.66,2.43,1.03l3.95-1.93-3.95,2.64c-1.29.86-2.31,2.48-2.43,3.83l-.36,4.16-.36-3.74c-.12-1.22-1.14-1.66-2.43-1.03l-3.95,1.93,3.95-2.64c1.29-.86,2.31-2.48,2.43-3.83l.36-4.16.36,3.74Z"/>
        <path class="cls-88" d="M315.58,74.33c.06.61.56.82,1.2.51l1.95-.95-1.95,1.3c-.64.43-1.14,1.22-1.2,1.9l-.18,2.06-.18-1.85c-.06-.61-.56-.82-1.2-.51l-1.95.95,1.95-1.3c.64-.43,1.14-1.22,1.2-1.9l.18-2.06.18,1.85Z"/>
      </g>
      <g class="cls-110">
        <path class="cls-88" d="M163.01,68.75c-1.24-.72-2.97-.62-4.87.48l2.34,1.36c1.9-1.1,3.63-1.2,4.87-.48l-2.34-1.36Z"/>
        <polygon class="cls-88" points="158.14 69.23 147.28 75.5 149.62 76.85 160.47 70.59 158.14 69.23"/>
        <path class="cls-88" d="M149.62,76.85l-2.34-1.36c-3.78,2.18-6.84,7.48-6.83,11.82,0,2.16.77,3.68,2,4.39l2.34,1.36c-1.23-.71-1.99-2.23-2-4.39-.01-4.34,3.05-9.64,6.83-11.82Z"/>
        <g>
          <path class="cls-98" d="M146.59,93.28c-2.18,0-3.54-1.77-3.55-4.61-.01-4.26,2.99-9.46,6.7-11.6l10.85-6.27c1.04-.6,2.03-.91,2.95-.91,2.18,0,3.54,1.76,3.55,4.6.01,4.26-2.99,9.47-6.7,11.61l-10.85,6.27c-1.04.6-2.03.91-2.95.91h0Z"/>
          <path class="cls-88" d="M163.55,70.15c2.03,0,3.29,1.67,3.3,4.35.01,4.18-2.94,9.29-6.57,11.39l-10.85,6.27c-.99.57-1.96.87-2.82.87-2.03,0-3.29-1.67-3.3-4.36-.01-4.18,2.94-9.29,6.58-11.39l10.85-6.27c.99-.57,1.96-.87,2.82-.87h0ZM163.55,69.65c-.92,0-1.97.3-3.07.94l-10.85,6.27c-3.78,2.18-6.84,7.48-6.83,11.82,0,3.08,1.55,4.86,3.8,4.86.93,0,1.97-.3,3.07-.94l10.85-6.27c3.78-2.18,6.84-7.48,6.82-11.82,0-3.07-1.55-4.85-3.8-4.85h0Z"/>
        </g>
      </g>
      <path class="cls-79" d="M169.96,80.69c0,2.29-1.86,5.22-4.15,6.54-2.29,1.32-4.15.54-4.15-1.75s1.86-5.22,4.15-6.54c2.29-1.32,4.15-.54,4.15,1.75Z"/>
      <polygon class="cls-69" points="307.07 204.73 132.07 305.76 132.07 177.03 307.07 75.99 307.07 204.73"/>
      <polygon class="cls-29" points="307.07 85.32 132.07 186.35 132.07 177.03 307.07 75.99 307.07 85.32"/>
      <g class="cls-111">
        <path class="cls-38" d="M146.99,168.81l-61.91,35.75c-6.58,3.8-11.91,13.02-11.88,20.57.02,7.56,5.38,10.62,11.96,6.82l61.91-35.75c6.58-3.8,11.9-13.01,11.88-20.58-.02-7.56-5.37-10.61-11.95-6.81Z"/>
      </g>
      <g class="cls-110">
        <path class="cls-88" d="M159.62,153.02c-2.17-1.26-5.17-1.08-8.48.83l4.07,2.36c3.31-1.91,6.31-2.09,8.48-.83l-4.07-2.36Z"/>
        <polygon class="cls-88" points="151.14 153.85 119.91 171.88 123.98 174.24 155.21 156.21 151.14 153.85"/>
        <path class="cls-88" d="M123.98,174.24l-4.07-2.36c-6.58,3.8-11.91,13.02-11.88,20.57.01,3.76,1.34,6.4,3.48,7.65l4.07,2.36c-2.14-1.24-3.47-3.89-3.48-7.65-.02-7.56,5.3-16.77,11.88-20.57Z"/>
        <path class="cls-69" d="M155.21,156.21l-31.23,18.03c-6.58,3.8-11.91,13.02-11.88,20.57.02,7.56,5.38,10.62,11.96,6.82l31.23-18.03c6.58-3.8,11.9-13.01,11.88-20.58-.02-7.56-5.37-10.61-11.95-6.81Z"/>
      </g>
      <path class="cls-88" d="M297.79,99.15l-5.35,3.09v-1.05l5.35-3.09v1.05ZM297.79,101.19l-5.35,3.09v1.05l5.35-3.09v-1.05ZM297.79,104.28l-5.35,3.09v1.05l5.35-3.09v-1.05Z"/>
      <g>
        <path class="cls-88" d="M125.29,191.74c-2.51,1.45-4.55.75-4.55-1.91s2.04-5.7,4.55-7.15c2.52-1.46,4.53-.75,4.53,1.91s-2.02,5.7-4.53,7.15ZM125.29,189.77c1.41-.82,2.33-2.37,2.33-3.92s-.92-2.04-2.33-1.22c-1.44.83-2.35,2.35-2.35,3.93s.91,2.05,2.35,1.22Z"/>
        <path class="cls-88" d="M134.22,186.6c-2.07,1.19-3.63.71-3.63-1.52s1.6-4.54,3.66-5.73c2.07-1.19,3.66-.72,3.66,1.51s-1.61,4.55-3.68,5.74ZM134.22,184.73c.77-.44,1.49-1.43,1.49-2.61s-.71-1.34-1.46-.91c-.78.45-1.46,1.4-1.46,2.6s.66,1.37,1.44.92Z"/>
        <path class="cls-88" d="M143.37,174.08c1.73-1,3.1-.4,3.1,1.81s-1.37,4.42-3.1,5.42c-1.03.6-1.78.54-2.17.17v4.34l-2.16,1.24v-10.39l2.16-1.24v1c.39-.84,1.13-1.75,2.17-2.35ZM142.73,176.33c-.81.47-1.54,1.51-1.54,2.63s.73,1.32,1.54.85c.82-.47,1.55-1.52,1.55-2.65s-.73-1.3-1.55-.83Z"/>
        <path class="cls-88" d="M150.47,177.22c-1.88,1.08-3.14.77-3.24-.54l2.13-1.23c.05.46.49.54,1.08.19.55-.32.85-.74.85-1.06,0-1.13-3.83,1.9-3.83-.69,0-1.2,1.02-2.77,2.86-3.83,1.82-1.05,2.82-.62,2.96.68l-1.99,1.15c-.06-.44-.43-.55-1.03-.2-.5.29-.78.65-.78.99,0,1.12,3.81-1.87,3.85.73,0,1.22-1.08,2.77-2.85,3.79Z"/>
        <path class="cls-88" d="M156.35,173.83c-.77.44-1.29.23-1.29-.42s.52-1.48,1.29-1.93c.76-.44,1.27-.22,1.27.45s-.52,1.46-1.27,1.89ZM155.15,165.25l2.33-1.35-.25,6.18-1.83,1.06-.25-5.89Z"/>
      </g>
      <polygon class="cls-38" points="266.24 171.61 268.67 170.21 268.64 159.42 264.21 161.98 264.14 136.47 255.15 141.66 244.69 152.12 233.88 174.35 233.84 158.51 226.54 157.88 211.56 166.53 196.78 182.36 196.76 175.37 187.77 180.56 177.32 191.02 156.23 234.42 156.25 243.08 173.33 233.22 173.35 242.38 184.02 236.23 191.71 227.36 198.82 227.98 213.8 219.33 220.44 211.08 224.26 208.87 231.52 199.84 231.52 199.62 240.7 194.32 240.73 203.48 251.39 197.33 261.85 186.87 261.84 184.35 264.27 181.93 264.25 176.31 266.25 175.15 266.24 171.61"/>
      <g>
        <g class="cls-110">
          <polygon class="cls-5" points="273.1 166.97 264.21 161.81 268.64 159.25 277.53 164.41 273.1 166.97"/>
          <polygon class="cls-49" points="262.49 193.08 253.6 187.91 253.58 178.75 262.47 183.92 262.49 193.08"/>
          <polygon class="cls-54" points="258.72 175.28 249.82 170.11 253.55 167.96 262.44 173.13 258.72 175.28"/>
          <polygon class="cls-67" points="262.44 173.13 253.55 167.96 253.53 162.5 262.42 167.67 262.44 173.13"/>
          <polygon class="cls-86" points="245.39 193.78 236.5 188.61 236.48 179.95 245.37 185.11 245.39 193.78"/>
          <polygon class="cls-100" points="264.04 146.66 255.15 141.49 264.14 136.3 273.03 141.47 264.04 146.66"/>
          <polygon class="cls-47" points="245.37 185.11 236.48 179.95 255.15 141.49 264.04 146.66 245.37 185.11"/>
        </g>
        <g class="cls-110">
          <polygon class="cls-16" points="224.05 204.36 215.16 199.19 223.15 194.58 232.04 199.75 224.05 204.36"/>
          <polygon class="cls-64" points="222.61 199.75 215.16 199.19 223.15 194.58 232.04 199.75 222.61 199.75"/>
          <polygon class="cls-109" points="232.04 199.75 223.15 194.58 223.08 170.93 231.97 176.09 232.04 199.75"/>
          <polygon class="cls-37" points="235.43 162.88 226.54 157.71 233.84 158.34 242.73 163.5 235.43 162.88"/>
          <polygon class="cls-42" points="220.45 171.52 211.56 166.36 226.54 157.71 235.43 162.88 220.45 171.52"/>
          <polygon class="cls-47" points="213.19 180.56 204.3 175.39 211.56 166.36 220.45 171.52 213.19 180.56"/>
          <polygon class="cls-56" points="213.29 216.95 204.4 211.78 204.3 175.39 213.19 180.56 213.29 216.95"/>
        </g>
        <g class="cls-110">
          <polygon class="cls-1" points="205.72 205.87 196.83 200.7 201.26 198.15 210.15 203.31 205.72 205.87"/>
          <polygon class="cls-57" points="195.12 231.98 186.23 226.81 186.2 217.65 195.09 222.82 195.12 231.98"/>
          <polygon class="cls-63" points="191.34 214.18 182.45 209.01 186.17 206.86 195.06 212.03 191.34 214.18"/>
          <polygon class="cls-22" points="195.06 212.03 186.17 206.86 186.15 201.4 195.05 206.57 195.06 212.03"/>
          <polygon class="cls-32" points="178.02 232.67 169.13 227.51 169.1 218.85 177.99 224.01 178.02 232.67"/>
          <polygon class="cls-33" points="196.66 185.56 187.77 180.39 196.76 175.2 205.65 180.37 196.66 185.56"/>
          <polygon class="cls-47" points="177.99 224.01 169.1 218.85 187.77 180.39 196.66 185.56 177.99 224.01"/>
          <g>
            <path class="cls-88" d="M277.56,175.21l-.03-10.79-4.43,2.56-.07-25.5-8.99,5.19-18.67,38.46.02,8.66,17.07-9.86.03,9.16,10.66-6.16-.03-9.16,4.43-2.56ZM258.72,175.28l3.71-7.61.02,5.46-3.72,2.15Z"/>
            <path class="cls-88" d="M235.43,162.88l-14.98,8.65-7.27,9.03.1,36.39,7.29.63,14.98-8.65,7.27-9.03-.1-36.39-7.29-.63ZM224.05,204.36l-.07-23.65,7.99-4.61.07,23.65-7.99,4.61Z"/>
            <path class="cls-88" d="M210.15,203.31l-4.43,2.56-.07-25.5-8.99,5.19-18.67,38.46.02,8.66,17.07-9.86.03,9.16,10.66-6.16-.03-9.16,4.43-2.56-.03-10.79ZM191.34,214.18l3.71-7.61.02,5.46-3.72,2.15Z"/>
          </g>
        </g>
      </g>
      <polygon class="cls-70" points="181.79 329.26 152.89 330.47 138.6 322.35 164.74 320.63 165 319.13 136.65 320.89 114.25 333.82 132.03 344.09 153.3 347.26 154.61 345.97 146.32 344.63 155.1 339.11 157.88 331.7 182.03 330.67 181.79 329.26"/>
      <g>
        <g class="cls-110">
          <polygon class="cls-76" points="164.86 320.74 164.07 320.28 150.71 291 151.5 291.46 164.86 320.74"/>
          <polygon class="cls-83" points="153.28 290.43 166.64 319.72 164.86 320.74 151.5 291.46 151.49 290.09 154.58 288.31 154.58 289.68 153.28 290.43"/>
        </g>
        <g class="cls-110">
          <polygon class="cls-78" points="136.13 337.33 135.34 336.87 148.49 292.28 149.28 292.74 136.13 337.33"/>
          <polygon class="cls-19" points="147.98 293.49 147.97 292.12 151.05 290.35 151.06 291.71 137.91 336.3 136.13 337.33 149.28 292.74 147.98 293.49"/>
        </g>
        <g>
          <path class="cls-73" d="M158.92,305.15c-.81.56-6.26,5.69-15.55,8.98-.5.18-.46.8-.4,1,.12.4.9-.04,1.16-.14,5.59-2.21,10.52-5.25,15.32-9.03.15-.12.22-.31.17-.5-.14-.57-.1-.73-.7-.31Z"/>
          <path id="Axonometric_Ellipse" data-name="Axonometric Ellipse" class="cls-11" d="M159.3,305.51c0,.13-.09.29-.2.35s-.2.01-.2-.12.09-.29.2-.35.2-.01.2.12Z"/>
          <path id="Axonometric_Ellipse-2" data-name="Axonometric Ellipse" class="cls-62" d="M143.72,314.57c0,.13-.09.29-.2.35-.11.06-.2.01-.2-.12s.09-.29.2-.35c.11-.06.2-.01.2.12Z"/>
        </g>
        <g>
          <g class="cls-110">
            <polygon class="cls-53" points="160.23 314.7 143.51 305 143.51 303.63 160.22 313.33 160.23 314.7"/>
            <polygon class="cls-107" points="160.22 313.33 143.51 303.63 148.56 300.71 165.27 310.41 160.22 313.33"/>
            <polygon class="cls-61" points="165.27 310.41 165.27 311.44 161.54 313.6 161.54 313.94 160.23 314.7 160.22 313.33 165.27 310.41"/>
            <polygon class="cls-82" points="160.22 313.33 160.23 314.7 161.54 313.94 161.54 312.56 160.22 313.33"/>
          </g>
          <g class="cls-110">
            <polygon class="cls-68" points="156.91 325.92 140.2 316.22 140.19 314.84 156.91 324.54 156.91 325.92"/>
            <polygon class="cls-75" points="156.91 324.54 140.19 314.84 145.24 311.93 161.96 321.63 156.91 324.54"/>
            <polygon class="cls-52" points="161.96 321.63 161.96 322.66 158.23 324.81 158.23 325.16 156.91 325.92 156.91 324.54 161.96 321.63"/>
            <polygon class="cls-28" points="156.91 324.54 156.91 325.92 158.23 325.16 158.23 323.78 156.91 324.54"/>
          </g>
          <g class="cls-110">
            <polygon class="cls-106" points="153.6 337.13 136.88 327.43 136.88 326.06 153.59 335.76 153.6 337.13"/>
            <polygon class="cls-94" points="153.59 335.76 136.88 326.06 141.93 323.15 158.64 332.84 153.59 335.76"/>
            <polygon class="cls-26" points="158.64 332.84 158.64 333.87 154.91 336.03 154.91 336.37 153.6 337.13 153.59 335.76 158.64 332.84"/>
            <polygon class="cls-92" points="153.59 335.76 153.6 337.13 154.91 336.37 154.91 335 153.59 335.76"/>
          </g>
        </g>
        <g class="cls-110">
          <polygon class="cls-18" points="182.09 330.69 181.3 330.23 167.94 300.94 168.73 301.4 182.09 330.69"/>
          <polygon class="cls-87" points="170.51 300.38 183.87 329.66 182.09 330.69 168.73 301.4 169.48 300.71 170.51 300.38"/>
        </g>
        <g class="cls-110">
          <polygon class="cls-95" points="153.36 347.28 152.57 346.82 165.72 302.23 166.51 302.69 153.36 347.28"/>
          <polygon class="cls-99" points="165.21 303.44 169.15 299.8 147.06 291.59 147.06 292.96 165.21 303.44"/>
          <polygon class="cls-59" points="171.81 298.26 153.66 287.78 150.14 289.81 147.06 291.59 165.21 302.07 171.81 298.26"/>
          <polygon class="cls-45" points="167.46 301.76 168.29 301.66 155.14 346.25 153.36 347.28 166.51 302.69 167.46 301.76"/>
          <polygon class="cls-20" points="171.81 299.62 171.81 298.26 165.21 302.07 165.21 303.44 171.81 299.62"/>
        </g>
        <g>
          <path class="cls-73" d="M176.21,315.13c-.81.56-6.26,5.69-15.55,8.98-.5.18-.46.8-.4,1,.12.4.9-.04,1.16-.14,5.59-2.21,10.52-5.25,15.32-9.03.15-.12.22-.31.17-.5-.14-.57-.1-.73-.7-.31Z"/>
          <path id="Axonometric_Ellipse-3" data-name="Axonometric Ellipse" class="cls-21" d="M176.59,315.49c0,.13-.09.29-.2.35-.11.06-.2.01-.2-.12s.09-.29.2-.35c.11-.06.2-.01.2.12Z"/>
          <path id="Axonometric_Ellipse-4" data-name="Axonometric Ellipse" class="cls-103" d="M161.01,324.55c0,.13-.09.29-.2.35s-.2.01-.2-.12.09-.29.2-.35.2-.01.2.12Z"/>
        </g>
      </g>
    </g>
  </g>
</svg>